G04 EAGLE Gerber RS-274X export*
G75*
%MOMM*%
%FSLAX34Y34*%
%LPD*%
%INBottom Copper*%
%IPPOS*%
%AMOC8*
5,1,8,0,0,1.08239X$1,22.5*%
G01*
%ADD10P,2.336880X8X22.500000*%
%ADD11P,1.732040X8X202.500000*%
%ADD12C,1.600200*%
%ADD13C,1.778000*%
%ADD14R,1.778000X1.778000*%
%ADD15R,2.540000X2.540000*%
%ADD16C,2.540000*%
%ADD17P,2.336880X8X202.500000*%
%ADD18R,3.416000X3.416000*%
%ADD19C,3.416000*%
%ADD20C,1.930400*%
%ADD21P,1.732040X8X292.500000*%
%ADD22C,0.508000*%
%ADD23C,0.756400*%
%ADD24C,0.254000*%
%ADD25C,0.406400*%
%ADD26C,0.304800*%

G36*
X95572Y214637D02*
X95572Y214637D01*
X95622Y214635D01*
X95729Y214657D01*
X95838Y214671D01*
X95885Y214689D01*
X95933Y214699D01*
X96032Y214747D01*
X96134Y214788D01*
X96174Y214817D01*
X96219Y214839D01*
X96302Y214910D01*
X96391Y214974D01*
X96423Y215013D01*
X96461Y215045D01*
X96524Y215135D01*
X96594Y215219D01*
X96615Y215264D01*
X96644Y215305D01*
X96683Y215408D01*
X96730Y215507D01*
X96739Y215556D01*
X96757Y215602D01*
X96769Y215712D01*
X96789Y215819D01*
X96786Y215869D01*
X96792Y215918D01*
X96776Y216027D01*
X96770Y216137D01*
X96754Y216184D01*
X96747Y216233D01*
X96695Y216386D01*
X96293Y217356D01*
X96293Y219468D01*
X97101Y221418D01*
X98594Y222911D01*
X100544Y223719D01*
X102656Y223719D01*
X104606Y222911D01*
X106099Y221418D01*
X106271Y221002D01*
X106286Y220977D01*
X106295Y220949D01*
X106364Y220839D01*
X106429Y220726D01*
X106449Y220705D01*
X106465Y220680D01*
X106560Y220591D01*
X106650Y220498D01*
X106675Y220482D01*
X106697Y220462D01*
X106810Y220399D01*
X106921Y220331D01*
X106949Y220323D01*
X106975Y220308D01*
X107101Y220276D01*
X107225Y220238D01*
X107254Y220236D01*
X107283Y220229D01*
X107444Y220219D01*
X480285Y220219D01*
X480384Y220231D01*
X480483Y220234D01*
X480541Y220251D01*
X480601Y220259D01*
X480693Y220295D01*
X480788Y220323D01*
X480840Y220353D01*
X480897Y220376D01*
X480977Y220434D01*
X481062Y220484D01*
X481137Y220550D01*
X481154Y220562D01*
X481162Y220572D01*
X481183Y220590D01*
X522134Y261541D01*
X522194Y261619D01*
X522262Y261692D01*
X522291Y261745D01*
X522328Y261792D01*
X522368Y261883D01*
X522416Y261970D01*
X522431Y262029D01*
X522455Y262084D01*
X522470Y262182D01*
X522495Y262278D01*
X522501Y262378D01*
X522505Y262398D01*
X522503Y262411D01*
X522505Y262439D01*
X522505Y296895D01*
X541410Y315800D01*
X541470Y315878D01*
X541538Y315950D01*
X541567Y316003D01*
X541604Y316051D01*
X541644Y316142D01*
X541692Y316229D01*
X541707Y316287D01*
X541731Y316343D01*
X541746Y316441D01*
X541771Y316537D01*
X541777Y316637D01*
X541781Y316657D01*
X541779Y316669D01*
X541781Y316697D01*
X541781Y518385D01*
X541769Y518484D01*
X541766Y518583D01*
X541749Y518641D01*
X541741Y518701D01*
X541705Y518793D01*
X541677Y518888D01*
X541647Y518940D01*
X541624Y518997D01*
X541566Y519077D01*
X541516Y519162D01*
X541450Y519237D01*
X541438Y519254D01*
X541428Y519262D01*
X541410Y519283D01*
X519283Y541410D01*
X516381Y544311D01*
X516381Y669407D01*
X516380Y669416D01*
X516381Y669425D01*
X516360Y669574D01*
X516341Y669722D01*
X516338Y669731D01*
X516337Y669740D01*
X516285Y669892D01*
X515393Y672044D01*
X515393Y674156D01*
X516201Y676106D01*
X517694Y677599D01*
X519644Y678407D01*
X521756Y678407D01*
X523706Y677599D01*
X525199Y676106D01*
X526007Y674156D01*
X526007Y672044D01*
X525115Y669892D01*
X525113Y669883D01*
X525108Y669875D01*
X525071Y669730D01*
X525031Y669586D01*
X525031Y669576D01*
X525029Y669567D01*
X525019Y669407D01*
X525019Y548415D01*
X525031Y548316D01*
X525034Y548217D01*
X525051Y548159D01*
X525059Y548099D01*
X525095Y548007D01*
X525123Y547912D01*
X525153Y547860D01*
X525176Y547803D01*
X525234Y547723D01*
X525284Y547638D01*
X525350Y547563D01*
X525362Y547546D01*
X525372Y547538D01*
X525390Y547517D01*
X547517Y525390D01*
X550419Y522489D01*
X550419Y312594D01*
X531514Y293689D01*
X531454Y293611D01*
X531386Y293539D01*
X531357Y293486D01*
X531320Y293438D01*
X531280Y293347D01*
X531232Y293261D01*
X531217Y293202D01*
X531193Y293146D01*
X531178Y293048D01*
X531153Y292953D01*
X531147Y292853D01*
X531143Y292832D01*
X531145Y292820D01*
X531143Y292792D01*
X531143Y258335D01*
X528241Y255434D01*
X489605Y216797D01*
X489520Y216688D01*
X489431Y216581D01*
X489423Y216562D01*
X489410Y216546D01*
X489355Y216418D01*
X489296Y216293D01*
X489292Y216273D01*
X489284Y216254D01*
X489262Y216116D01*
X489236Y215980D01*
X489237Y215960D01*
X489234Y215940D01*
X489247Y215801D01*
X489256Y215663D01*
X489262Y215644D01*
X489264Y215624D01*
X489311Y215492D01*
X489354Y215361D01*
X489364Y215343D01*
X489371Y215324D01*
X489449Y215209D01*
X489524Y215092D01*
X489539Y215078D01*
X489550Y215061D01*
X489654Y214969D01*
X489755Y214874D01*
X489773Y214864D01*
X489788Y214851D01*
X489912Y214787D01*
X490034Y214720D01*
X490054Y214715D01*
X490072Y214706D01*
X490207Y214676D01*
X490342Y214641D01*
X490370Y214639D01*
X490382Y214636D01*
X490402Y214637D01*
X490503Y214631D01*
X553539Y214631D01*
X553638Y214643D01*
X553737Y214646D01*
X553795Y214663D01*
X553855Y214671D01*
X553947Y214707D01*
X554042Y214735D01*
X554094Y214765D01*
X554151Y214788D01*
X554231Y214846D01*
X554316Y214896D01*
X554392Y214962D01*
X554408Y214974D01*
X554416Y214984D01*
X554437Y215002D01*
X572398Y232963D01*
X572458Y233041D01*
X572526Y233113D01*
X572555Y233166D01*
X572592Y233214D01*
X572632Y233305D01*
X572680Y233392D01*
X572695Y233450D01*
X572719Y233506D01*
X572734Y233604D01*
X572759Y233700D01*
X572765Y233800D01*
X572769Y233820D01*
X572767Y233833D01*
X572769Y233861D01*
X572769Y323977D01*
X572752Y324115D01*
X572739Y324254D01*
X572732Y324273D01*
X572729Y324293D01*
X572678Y324422D01*
X572631Y324553D01*
X572620Y324570D01*
X572612Y324589D01*
X572531Y324701D01*
X572453Y324816D01*
X572437Y324830D01*
X572426Y324846D01*
X572318Y324934D01*
X572214Y325027D01*
X572196Y325036D01*
X572181Y325049D01*
X572055Y325108D01*
X571931Y325171D01*
X571911Y325176D01*
X571893Y325184D01*
X571757Y325210D01*
X571621Y325241D01*
X571600Y325240D01*
X571581Y325244D01*
X571442Y325235D01*
X571303Y325231D01*
X571283Y325225D01*
X571263Y325224D01*
X571131Y325181D01*
X570997Y325143D01*
X570980Y325132D01*
X570961Y325126D01*
X570843Y325052D01*
X570723Y324981D01*
X570702Y324963D01*
X570692Y324956D01*
X570678Y324941D01*
X570603Y324875D01*
X563264Y317537D01*
X563204Y317458D01*
X563136Y317386D01*
X563107Y317333D01*
X563070Y317285D01*
X563030Y317194D01*
X562982Y317108D01*
X562967Y317049D01*
X562943Y316994D01*
X562928Y316896D01*
X562903Y316800D01*
X562897Y316700D01*
X562893Y316680D01*
X562895Y316667D01*
X562893Y316639D01*
X562893Y277385D01*
X559991Y274484D01*
X551765Y266258D01*
X551760Y266250D01*
X551752Y266245D01*
X551662Y266125D01*
X551570Y266006D01*
X551567Y265998D01*
X551561Y265990D01*
X551490Y265846D01*
X550599Y263694D01*
X549106Y262201D01*
X547156Y261393D01*
X545044Y261393D01*
X543094Y262201D01*
X541601Y263694D01*
X540793Y265644D01*
X540793Y267756D01*
X541601Y269706D01*
X543094Y271199D01*
X545246Y272090D01*
X545254Y272095D01*
X545263Y272097D01*
X545391Y272173D01*
X545522Y272248D01*
X545529Y272254D01*
X545537Y272259D01*
X545658Y272365D01*
X553884Y280591D01*
X553944Y280669D01*
X554012Y280742D01*
X554041Y280795D01*
X554078Y280842D01*
X554118Y280933D01*
X554166Y281020D01*
X554181Y281079D01*
X554205Y281134D01*
X554220Y281232D01*
X554245Y281328D01*
X554251Y281428D01*
X554255Y281448D01*
X554253Y281461D01*
X554255Y281489D01*
X554255Y320743D01*
X565568Y332055D01*
X565628Y332133D01*
X565696Y332205D01*
X565725Y332258D01*
X565762Y332306D01*
X565802Y332397D01*
X565850Y332484D01*
X565865Y332542D01*
X565889Y332598D01*
X565904Y332696D01*
X565929Y332792D01*
X565935Y332892D01*
X565939Y332912D01*
X565937Y332925D01*
X565939Y332953D01*
X565939Y528418D01*
X565927Y528516D01*
X565924Y528615D01*
X565907Y528674D01*
X565899Y528734D01*
X565863Y528826D01*
X565835Y528921D01*
X565805Y528973D01*
X565782Y529029D01*
X565724Y529109D01*
X565674Y529195D01*
X565608Y529270D01*
X565596Y529287D01*
X565586Y529294D01*
X565568Y529316D01*
X564489Y530394D01*
X563681Y532344D01*
X563681Y534456D01*
X564489Y536406D01*
X565982Y537899D01*
X567932Y538707D01*
X570044Y538707D01*
X571014Y538305D01*
X571062Y538291D01*
X571107Y538270D01*
X571215Y538250D01*
X571321Y538221D01*
X571371Y538220D01*
X571420Y538211D01*
X571529Y538217D01*
X571639Y538216D01*
X571687Y538227D01*
X571737Y538230D01*
X571841Y538264D01*
X571948Y538290D01*
X571992Y538313D01*
X572039Y538328D01*
X572132Y538387D01*
X572229Y538439D01*
X572266Y538472D01*
X572308Y538499D01*
X572383Y538579D01*
X572465Y538652D01*
X572492Y538694D01*
X572526Y538730D01*
X572579Y538826D01*
X572639Y538918D01*
X572656Y538965D01*
X572680Y539009D01*
X572707Y539115D01*
X572743Y539219D01*
X572747Y539269D01*
X572759Y539317D01*
X572769Y539477D01*
X572769Y845639D01*
X572757Y845738D01*
X572754Y845837D01*
X572737Y845895D01*
X572729Y845955D01*
X572693Y846047D01*
X572665Y846142D01*
X572635Y846194D01*
X572612Y846251D01*
X572554Y846331D01*
X572504Y846416D01*
X572438Y846492D01*
X572426Y846508D01*
X572416Y846516D01*
X572398Y846537D01*
X554437Y864498D01*
X554359Y864558D01*
X554287Y864626D01*
X554234Y864655D01*
X554186Y864692D01*
X554095Y864732D01*
X554008Y864780D01*
X553950Y864795D01*
X553894Y864819D01*
X553796Y864834D01*
X553700Y864859D01*
X553600Y864865D01*
X553580Y864869D01*
X553567Y864867D01*
X553539Y864869D01*
X454662Y864869D01*
X454524Y864852D01*
X454385Y864839D01*
X454366Y864832D01*
X454346Y864829D01*
X454217Y864778D01*
X454086Y864731D01*
X454069Y864720D01*
X454051Y864712D01*
X453938Y864631D01*
X453823Y864553D01*
X453810Y864537D01*
X453793Y864526D01*
X453705Y864418D01*
X453613Y864314D01*
X453603Y864296D01*
X453590Y864281D01*
X453531Y864155D01*
X453468Y864031D01*
X453464Y864011D01*
X453455Y863993D01*
X453429Y863857D01*
X453398Y863721D01*
X453399Y863700D01*
X453395Y863681D01*
X453404Y863542D01*
X453408Y863403D01*
X453414Y863383D01*
X453415Y863363D01*
X453458Y863231D01*
X453496Y863097D01*
X453507Y863080D01*
X453513Y863061D01*
X453587Y862943D01*
X453658Y862823D01*
X453676Y862802D01*
X453683Y862792D01*
X453698Y862778D01*
X453764Y862703D01*
X467526Y848941D01*
X467757Y848384D01*
X467761Y848375D01*
X467764Y848366D01*
X467840Y848238D01*
X467914Y848107D01*
X467921Y848101D01*
X467926Y848093D01*
X468032Y847972D01*
X472887Y843116D01*
X474638Y841366D01*
X475489Y839312D01*
X475489Y802386D01*
X475495Y802337D01*
X475493Y802287D01*
X475515Y802180D01*
X475529Y802071D01*
X475547Y802025D01*
X475557Y801976D01*
X475605Y801877D01*
X475646Y801775D01*
X475675Y801735D01*
X475697Y801690D01*
X475768Y801607D01*
X475832Y801518D01*
X475871Y801486D01*
X475903Y801448D01*
X475993Y801385D01*
X476077Y801315D01*
X476122Y801294D01*
X476163Y801265D01*
X476266Y801226D01*
X476365Y801179D01*
X476414Y801170D01*
X476460Y801152D01*
X476570Y801140D01*
X476677Y801120D01*
X476727Y801123D01*
X476776Y801117D01*
X476885Y801133D01*
X476995Y801139D01*
X477042Y801155D01*
X477091Y801162D01*
X477244Y801214D01*
X478168Y801597D01*
X480280Y801597D01*
X482230Y800789D01*
X483723Y799296D01*
X484614Y797144D01*
X484619Y797136D01*
X484621Y797127D01*
X484697Y796999D01*
X484772Y796868D01*
X484778Y796861D01*
X484783Y796853D01*
X484889Y796732D01*
X486919Y794703D01*
X486919Y740293D01*
X486920Y740284D01*
X486919Y740275D01*
X486940Y740126D01*
X486959Y739978D01*
X486962Y739969D01*
X486963Y739960D01*
X487015Y739808D01*
X487907Y737656D01*
X487907Y735544D01*
X487099Y733594D01*
X485606Y732101D01*
X483656Y731293D01*
X481544Y731293D01*
X479594Y732101D01*
X478101Y733594D01*
X477931Y734006D01*
X477896Y734066D01*
X477870Y734131D01*
X477818Y734204D01*
X477773Y734282D01*
X477725Y734332D01*
X477684Y734389D01*
X477614Y734446D01*
X477552Y734510D01*
X477492Y734547D01*
X477439Y734591D01*
X477357Y734630D01*
X477281Y734677D01*
X477214Y734697D01*
X477151Y734727D01*
X477063Y734744D01*
X476977Y734770D01*
X476907Y734774D01*
X476838Y734787D01*
X476749Y734781D01*
X476659Y734785D01*
X476591Y734771D01*
X476521Y734767D01*
X476436Y734739D01*
X476348Y734721D01*
X476285Y734690D01*
X476219Y734669D01*
X476143Y734621D01*
X476062Y734581D01*
X476009Y734536D01*
X475950Y734499D01*
X475888Y734433D01*
X475820Y734375D01*
X475780Y734318D01*
X475732Y734267D01*
X475689Y734188D01*
X475637Y734115D01*
X475612Y734050D01*
X475578Y733989D01*
X475556Y733902D01*
X475524Y733818D01*
X475516Y733748D01*
X475499Y733681D01*
X475489Y733520D01*
X475489Y719388D01*
X474638Y717334D01*
X468416Y711112D01*
X466362Y710261D01*
X464138Y710261D01*
X462084Y711112D01*
X460512Y712684D01*
X459661Y714738D01*
X459661Y716962D01*
X460512Y719016D01*
X463940Y722443D01*
X464000Y722521D01*
X464068Y722593D01*
X464097Y722646D01*
X464134Y722694D01*
X464174Y722785D01*
X464222Y722872D01*
X464237Y722930D01*
X464261Y722986D01*
X464276Y723084D01*
X464301Y723180D01*
X464307Y723280D01*
X464311Y723300D01*
X464309Y723313D01*
X464311Y723341D01*
X464311Y835359D01*
X464299Y835458D01*
X464296Y835557D01*
X464279Y835615D01*
X464271Y835675D01*
X464235Y835767D01*
X464207Y835862D01*
X464177Y835914D01*
X464154Y835971D01*
X464096Y836051D01*
X464046Y836136D01*
X463980Y836211D01*
X463968Y836228D01*
X463958Y836236D01*
X463940Y836257D01*
X462415Y837781D01*
X462306Y837866D01*
X462199Y837955D01*
X462180Y837963D01*
X462164Y837976D01*
X462037Y838031D01*
X461911Y838090D01*
X461891Y838094D01*
X461872Y838102D01*
X461734Y838124D01*
X461598Y838150D01*
X461578Y838149D01*
X461558Y838152D01*
X461419Y838139D01*
X461281Y838130D01*
X461262Y838124D01*
X461242Y838122D01*
X461110Y838075D01*
X460979Y838032D01*
X460961Y838021D01*
X460942Y838015D01*
X460827Y837937D01*
X460710Y837862D01*
X460696Y837847D01*
X460679Y837836D01*
X460587Y837732D01*
X460492Y837631D01*
X460482Y837613D01*
X460469Y837598D01*
X460405Y837473D01*
X460338Y837352D01*
X460333Y837332D01*
X460324Y837314D01*
X460294Y837179D01*
X460259Y837044D01*
X460257Y837016D01*
X460254Y837004D01*
X460255Y836984D01*
X460249Y836883D01*
X460249Y835067D01*
X457851Y829279D01*
X453421Y824849D01*
X449602Y823267D01*
X449577Y823252D01*
X449549Y823243D01*
X449439Y823174D01*
X449326Y823110D01*
X449305Y823089D01*
X449280Y823073D01*
X449191Y822979D01*
X449098Y822888D01*
X449082Y822863D01*
X449062Y822842D01*
X448999Y822728D01*
X448931Y822617D01*
X448923Y822589D01*
X448908Y822563D01*
X448876Y822437D01*
X448838Y822313D01*
X448836Y822284D01*
X448829Y822255D01*
X448819Y822094D01*
X448819Y765693D01*
X448820Y765684D01*
X448819Y765675D01*
X448840Y765525D01*
X448859Y765378D01*
X448862Y765369D01*
X448863Y765360D01*
X448915Y765208D01*
X449807Y763056D01*
X449807Y760944D01*
X448915Y758792D01*
X448913Y758783D01*
X448908Y758775D01*
X448871Y758630D01*
X448831Y758486D01*
X448831Y758476D01*
X448829Y758467D01*
X448819Y758307D01*
X448819Y734811D01*
X445917Y731910D01*
X399365Y685358D01*
X399360Y685350D01*
X399352Y685345D01*
X399262Y685225D01*
X399170Y685106D01*
X399167Y685098D01*
X399161Y685090D01*
X399090Y684946D01*
X398199Y682794D01*
X396706Y681301D01*
X394756Y680493D01*
X392644Y680493D01*
X390694Y681301D01*
X389201Y682794D01*
X388393Y684744D01*
X388393Y686856D01*
X389201Y688806D01*
X390694Y690299D01*
X392846Y691190D01*
X392854Y691195D01*
X392863Y691197D01*
X392992Y691274D01*
X393122Y691348D01*
X393129Y691354D01*
X393137Y691359D01*
X393258Y691465D01*
X439810Y738017D01*
X439870Y738095D01*
X439938Y738168D01*
X439967Y738221D01*
X440004Y738268D01*
X440044Y738359D01*
X440092Y738446D01*
X440107Y738505D01*
X440131Y738560D01*
X440146Y738658D01*
X440171Y738754D01*
X440177Y738854D01*
X440181Y738874D01*
X440179Y738887D01*
X440181Y738915D01*
X440181Y758307D01*
X440180Y758316D01*
X440181Y758325D01*
X440160Y758474D01*
X440141Y758622D01*
X440138Y758631D01*
X440137Y758640D01*
X440085Y758792D01*
X439193Y760944D01*
X439193Y763056D01*
X440085Y765208D01*
X440087Y765217D01*
X440092Y765225D01*
X440129Y765370D01*
X440169Y765514D01*
X440169Y765524D01*
X440171Y765533D01*
X440181Y765693D01*
X440181Y822094D01*
X440178Y822124D01*
X440180Y822153D01*
X440158Y822281D01*
X440141Y822410D01*
X440131Y822437D01*
X440126Y822467D01*
X440072Y822585D01*
X440024Y822706D01*
X440007Y822730D01*
X439995Y822757D01*
X439914Y822858D01*
X439838Y822963D01*
X439815Y822982D01*
X439796Y823005D01*
X439693Y823083D01*
X439593Y823166D01*
X439566Y823178D01*
X439542Y823196D01*
X439398Y823267D01*
X435579Y824849D01*
X431149Y829279D01*
X428751Y835067D01*
X428751Y841333D01*
X431149Y847121D01*
X435579Y851551D01*
X441367Y853949D01*
X443647Y853949D01*
X443784Y853966D01*
X443923Y853979D01*
X443942Y853986D01*
X443962Y853989D01*
X444091Y854040D01*
X444222Y854087D01*
X444239Y854098D01*
X444258Y854106D01*
X444370Y854187D01*
X444485Y854265D01*
X444499Y854281D01*
X444515Y854292D01*
X444604Y854400D01*
X444696Y854504D01*
X444705Y854522D01*
X444718Y854537D01*
X444777Y854663D01*
X444840Y854787D01*
X444845Y854807D01*
X444853Y854825D01*
X444880Y854962D01*
X444910Y855097D01*
X444909Y855118D01*
X444913Y855137D01*
X444905Y855276D01*
X444900Y855415D01*
X444895Y855435D01*
X444894Y855455D01*
X444851Y855587D01*
X444812Y855721D01*
X444802Y855738D01*
X444795Y855757D01*
X444721Y855875D01*
X444650Y855995D01*
X444632Y856016D01*
X444625Y856026D01*
X444610Y856040D01*
X444544Y856116D01*
X444290Y856370D01*
X444212Y856430D01*
X444140Y856498D01*
X444087Y856527D01*
X444039Y856564D01*
X443948Y856604D01*
X443861Y856652D01*
X443803Y856667D01*
X443747Y856691D01*
X443649Y856706D01*
X443553Y856731D01*
X443453Y856737D01*
X443433Y856741D01*
X443420Y856739D01*
X443393Y856741D01*
X287321Y856741D01*
X287222Y856729D01*
X287123Y856726D01*
X287065Y856709D01*
X287005Y856701D01*
X286913Y856665D01*
X286818Y856637D01*
X286766Y856607D01*
X286709Y856584D01*
X286629Y856526D01*
X286544Y856476D01*
X286469Y856410D01*
X286452Y856398D01*
X286444Y856388D01*
X286423Y856370D01*
X238116Y808062D01*
X236062Y807211D01*
X193341Y807211D01*
X193242Y807199D01*
X193143Y807196D01*
X193085Y807179D01*
X193025Y807171D01*
X192933Y807135D01*
X192838Y807107D01*
X192786Y807077D01*
X192729Y807054D01*
X192649Y806996D01*
X192564Y806946D01*
X192489Y806880D01*
X192472Y806868D01*
X192464Y806858D01*
X192443Y806840D01*
X176472Y790868D01*
X176454Y790845D01*
X176431Y790826D01*
X176356Y790720D01*
X176277Y790617D01*
X176265Y790590D01*
X176248Y790565D01*
X176202Y790444D01*
X176150Y790325D01*
X176146Y790296D01*
X176135Y790268D01*
X176121Y790139D01*
X176101Y790011D01*
X176103Y789981D01*
X176100Y789952D01*
X176118Y789824D01*
X176130Y789694D01*
X176140Y789666D01*
X176145Y789637D01*
X176150Y789622D01*
X176150Y785202D01*
X174468Y781141D01*
X171359Y778032D01*
X167298Y776350D01*
X162846Y776350D01*
X162834Y776353D01*
X162708Y776387D01*
X162679Y776388D01*
X162650Y776394D01*
X162520Y776390D01*
X162391Y776392D01*
X162362Y776386D01*
X162332Y776385D01*
X162208Y776349D01*
X162081Y776318D01*
X162055Y776304D01*
X162027Y776296D01*
X161915Y776230D01*
X161800Y776170D01*
X161778Y776150D01*
X161753Y776135D01*
X161632Y776028D01*
X82160Y696557D01*
X82100Y696479D01*
X82032Y696406D01*
X82007Y696360D01*
X82004Y696357D01*
X82001Y696351D01*
X81966Y696306D01*
X81926Y696215D01*
X81878Y696128D01*
X81863Y696069D01*
X81839Y696014D01*
X81824Y695916D01*
X81799Y695820D01*
X81793Y695720D01*
X81789Y695700D01*
X81791Y695687D01*
X81789Y695659D01*
X81789Y657058D01*
X81801Y656960D01*
X81804Y656861D01*
X81821Y656803D01*
X81829Y656743D01*
X81865Y656651D01*
X81893Y656556D01*
X81923Y656504D01*
X81946Y656447D01*
X82004Y656367D01*
X82054Y656282D01*
X82120Y656206D01*
X82132Y656190D01*
X82142Y656182D01*
X82160Y656161D01*
X94527Y643794D01*
X95378Y641740D01*
X95378Y597140D01*
X94527Y595086D01*
X88856Y589415D01*
X88771Y589306D01*
X88682Y589199D01*
X88673Y589180D01*
X88661Y589164D01*
X88606Y589036D01*
X88547Y588911D01*
X88543Y588891D01*
X88535Y588872D01*
X88513Y588734D01*
X88487Y588598D01*
X88488Y588578D01*
X88485Y588558D01*
X88498Y588419D01*
X88506Y588281D01*
X88513Y588262D01*
X88515Y588242D01*
X88562Y588110D01*
X88605Y587979D01*
X88615Y587961D01*
X88622Y587942D01*
X88700Y587827D01*
X88775Y587710D01*
X88789Y587696D01*
X88801Y587679D01*
X88905Y587587D01*
X89006Y587492D01*
X89024Y587482D01*
X89039Y587469D01*
X89163Y587405D01*
X89285Y587338D01*
X89304Y587333D01*
X89322Y587324D01*
X89458Y587294D01*
X89593Y587259D01*
X89621Y587257D01*
X89633Y587254D01*
X89653Y587255D01*
X89753Y587249D01*
X92033Y587249D01*
X97821Y584851D01*
X102251Y580421D01*
X104649Y574633D01*
X104649Y568367D01*
X102251Y562579D01*
X97821Y558149D01*
X92033Y555751D01*
X85767Y555751D01*
X79979Y558149D01*
X75549Y562579D01*
X73151Y568367D01*
X73151Y570183D01*
X73134Y570321D01*
X73121Y570460D01*
X73114Y570479D01*
X73111Y570499D01*
X73060Y570628D01*
X73013Y570759D01*
X73002Y570776D01*
X72994Y570795D01*
X72913Y570907D01*
X72835Y571022D01*
X72819Y571036D01*
X72808Y571052D01*
X72700Y571141D01*
X72596Y571233D01*
X72578Y571242D01*
X72563Y571255D01*
X72437Y571314D01*
X72313Y571377D01*
X72293Y571382D01*
X72275Y571390D01*
X72139Y571416D01*
X72003Y571447D01*
X71982Y571446D01*
X71963Y571450D01*
X71824Y571441D01*
X71685Y571437D01*
X71665Y571432D01*
X71645Y571430D01*
X71513Y571388D01*
X71379Y571349D01*
X71362Y571339D01*
X71343Y571332D01*
X71225Y571258D01*
X71105Y571187D01*
X71084Y571169D01*
X71074Y571162D01*
X71060Y571147D01*
X70985Y571081D01*
X61632Y561728D01*
X61626Y561721D01*
X61619Y561715D01*
X61529Y561596D01*
X61437Y561477D01*
X61433Y561468D01*
X61428Y561461D01*
X61357Y561317D01*
X61126Y560759D01*
X48841Y548474D01*
X48283Y548243D01*
X48275Y548239D01*
X48266Y548236D01*
X48137Y548160D01*
X48007Y548086D01*
X48001Y548079D01*
X47993Y548074D01*
X47872Y547968D01*
X31360Y531457D01*
X31300Y531379D01*
X31232Y531306D01*
X31203Y531253D01*
X31166Y531206D01*
X31126Y531115D01*
X31078Y531028D01*
X31063Y530969D01*
X31039Y530914D01*
X31024Y530816D01*
X30999Y530720D01*
X30993Y530620D01*
X30989Y530600D01*
X30991Y530587D01*
X30989Y530559D01*
X30989Y523780D01*
X30997Y523711D01*
X30996Y523641D01*
X31017Y523554D01*
X31029Y523464D01*
X31054Y523400D01*
X31071Y523332D01*
X31113Y523252D01*
X31146Y523169D01*
X31187Y523112D01*
X31219Y523051D01*
X31280Y522984D01*
X31332Y522911D01*
X31386Y522867D01*
X31433Y522815D01*
X31508Y522766D01*
X31577Y522709D01*
X31641Y522679D01*
X31699Y522641D01*
X31784Y522611D01*
X31865Y522573D01*
X31934Y522560D01*
X32000Y522537D01*
X32089Y522530D01*
X32177Y522513D01*
X32247Y522518D01*
X32317Y522512D01*
X32405Y522527D01*
X32495Y522533D01*
X32561Y522555D01*
X32630Y522567D01*
X32712Y522603D01*
X32797Y522631D01*
X32856Y522668D01*
X32920Y522697D01*
X32990Y522753D01*
X33066Y522801D01*
X33114Y522852D01*
X33168Y522896D01*
X33223Y522967D01*
X33284Y523033D01*
X33318Y523094D01*
X33360Y523150D01*
X33431Y523294D01*
X33601Y523706D01*
X35094Y525199D01*
X37044Y526007D01*
X39156Y526007D01*
X41106Y525199D01*
X42599Y523706D01*
X43407Y521756D01*
X43407Y519644D01*
X42515Y517492D01*
X42513Y517483D01*
X42508Y517475D01*
X42471Y517330D01*
X42431Y517186D01*
X42431Y517176D01*
X42429Y517167D01*
X42419Y517007D01*
X42419Y357915D01*
X42431Y357816D01*
X42434Y357717D01*
X42451Y357659D01*
X42459Y357599D01*
X42495Y357507D01*
X42523Y357412D01*
X42553Y357360D01*
X42576Y357303D01*
X42634Y357223D01*
X42684Y357138D01*
X42750Y357063D01*
X42762Y357046D01*
X42772Y357038D01*
X42790Y357017D01*
X52217Y347590D01*
X52295Y347530D01*
X52367Y347462D01*
X52420Y347433D01*
X52468Y347396D01*
X52559Y347356D01*
X52646Y347308D01*
X52705Y347293D01*
X52760Y347269D01*
X52858Y347254D01*
X52954Y347229D01*
X53054Y347223D01*
X53074Y347219D01*
X53087Y347221D01*
X53115Y347219D01*
X200885Y347219D01*
X200984Y347231D01*
X201083Y347234D01*
X201141Y347251D01*
X201201Y347259D01*
X201293Y347295D01*
X201388Y347323D01*
X201440Y347353D01*
X201497Y347376D01*
X201577Y347434D01*
X201662Y347484D01*
X201737Y347550D01*
X201754Y347562D01*
X201762Y347572D01*
X201783Y347590D01*
X210235Y356042D01*
X210240Y356050D01*
X210248Y356055D01*
X210338Y356175D01*
X210430Y356294D01*
X210433Y356302D01*
X210439Y356310D01*
X210510Y356454D01*
X211401Y358606D01*
X212894Y360099D01*
X214844Y360907D01*
X216956Y360907D01*
X218906Y360099D01*
X220399Y358606D01*
X221207Y356656D01*
X221207Y354544D01*
X220399Y352594D01*
X218906Y351101D01*
X216754Y350210D01*
X216746Y350205D01*
X216737Y350203D01*
X216609Y350127D01*
X216478Y350052D01*
X216471Y350046D01*
X216463Y350041D01*
X216342Y349935D01*
X204989Y338581D01*
X49011Y338581D01*
X46110Y341483D01*
X36683Y350910D01*
X33781Y353811D01*
X33781Y517007D01*
X33780Y517016D01*
X33781Y517025D01*
X33760Y517174D01*
X33741Y517322D01*
X33738Y517331D01*
X33737Y517340D01*
X33685Y517492D01*
X33431Y518106D01*
X33396Y518166D01*
X33370Y518231D01*
X33318Y518304D01*
X33273Y518382D01*
X33225Y518432D01*
X33184Y518489D01*
X33114Y518546D01*
X33052Y518610D01*
X32992Y518647D01*
X32939Y518691D01*
X32857Y518730D01*
X32781Y518777D01*
X32714Y518797D01*
X32651Y518827D01*
X32563Y518844D01*
X32477Y518870D01*
X32407Y518874D01*
X32338Y518887D01*
X32249Y518881D01*
X32159Y518885D01*
X32091Y518871D01*
X32021Y518867D01*
X31936Y518839D01*
X31848Y518821D01*
X31785Y518790D01*
X31719Y518769D01*
X31643Y518721D01*
X31562Y518681D01*
X31509Y518636D01*
X31450Y518599D01*
X31388Y518533D01*
X31320Y518475D01*
X31280Y518418D01*
X31232Y518367D01*
X31189Y518288D01*
X31137Y518215D01*
X31112Y518150D01*
X31078Y518089D01*
X31056Y518002D01*
X31024Y517918D01*
X31016Y517848D01*
X30999Y517781D01*
X30989Y517620D01*
X30989Y345741D01*
X31001Y345642D01*
X31004Y345543D01*
X31021Y345485D01*
X31029Y345425D01*
X31065Y345333D01*
X31093Y345238D01*
X31123Y345186D01*
X31146Y345129D01*
X31204Y345049D01*
X31254Y344964D01*
X31320Y344889D01*
X31332Y344872D01*
X31342Y344864D01*
X31360Y344843D01*
X41087Y335116D01*
X42838Y333366D01*
X43689Y331312D01*
X43689Y256841D01*
X43701Y256742D01*
X43704Y256643D01*
X43721Y256585D01*
X43729Y256525D01*
X43765Y256433D01*
X43793Y256338D01*
X43823Y256286D01*
X43846Y256229D01*
X43904Y256149D01*
X43954Y256064D01*
X44020Y255989D01*
X44032Y255972D01*
X44042Y255964D01*
X44060Y255943D01*
X52743Y247260D01*
X52821Y247200D01*
X52894Y247132D01*
X52947Y247103D01*
X52994Y247066D01*
X53085Y247026D01*
X53172Y246978D01*
X53231Y246963D01*
X53286Y246939D01*
X53384Y246924D01*
X53480Y246899D01*
X53580Y246893D01*
X53600Y246889D01*
X53613Y246891D01*
X53641Y246889D01*
X164490Y246889D01*
X164588Y246901D01*
X164687Y246904D01*
X164746Y246921D01*
X164806Y246929D01*
X164898Y246965D01*
X164993Y246993D01*
X165045Y247023D01*
X165101Y247046D01*
X165182Y247104D01*
X165267Y247154D01*
X165342Y247220D01*
X165359Y247232D01*
X165367Y247242D01*
X165388Y247260D01*
X180548Y262421D01*
X182602Y263272D01*
X264129Y263272D01*
X266183Y262421D01*
X274993Y253610D01*
X275071Y253550D01*
X275144Y253482D01*
X275197Y253453D01*
X275244Y253416D01*
X275335Y253376D01*
X275422Y253328D01*
X275481Y253313D01*
X275536Y253289D01*
X275634Y253274D01*
X275730Y253249D01*
X275830Y253243D01*
X275850Y253239D01*
X275863Y253241D01*
X275891Y253239D01*
X278892Y253239D01*
X279010Y253254D01*
X279129Y253261D01*
X279167Y253274D01*
X279208Y253279D01*
X279318Y253322D01*
X279431Y253359D01*
X279466Y253381D01*
X279503Y253396D01*
X279599Y253465D01*
X279700Y253529D01*
X279728Y253559D01*
X279761Y253582D01*
X279837Y253674D01*
X279918Y253761D01*
X279938Y253796D01*
X279963Y253827D01*
X280014Y253935D01*
X280072Y254039D01*
X280082Y254079D01*
X280099Y254115D01*
X280121Y254232D01*
X280151Y254347D01*
X280155Y254407D01*
X280159Y254427D01*
X280157Y254448D01*
X280161Y254508D01*
X280161Y346552D01*
X281012Y348606D01*
X282584Y350178D01*
X284638Y351029D01*
X286862Y351029D01*
X288916Y350178D01*
X290488Y348606D01*
X291339Y346552D01*
X291339Y246380D01*
X291347Y246311D01*
X291346Y246241D01*
X291367Y246154D01*
X291379Y246064D01*
X291404Y246000D01*
X291421Y245932D01*
X291463Y245852D01*
X291496Y245769D01*
X291537Y245712D01*
X291569Y245651D01*
X291630Y245584D01*
X291682Y245511D01*
X291736Y245467D01*
X291783Y245415D01*
X291858Y245366D01*
X291927Y245309D01*
X291991Y245279D01*
X292049Y245241D01*
X292134Y245211D01*
X292215Y245173D01*
X292284Y245160D01*
X292350Y245137D01*
X292439Y245130D01*
X292527Y245113D01*
X292597Y245118D01*
X292667Y245112D01*
X292755Y245127D01*
X292845Y245133D01*
X292911Y245155D01*
X292980Y245166D01*
X293062Y245203D01*
X293147Y245231D01*
X293206Y245268D01*
X293270Y245297D01*
X293340Y245353D01*
X293416Y245401D01*
X293464Y245452D01*
X293518Y245496D01*
X293573Y245567D01*
X293634Y245633D01*
X293668Y245694D01*
X293710Y245750D01*
X293781Y245894D01*
X294679Y248063D01*
X298037Y251421D01*
X302425Y253239D01*
X307175Y253239D01*
X311563Y251421D01*
X314921Y248063D01*
X315126Y247568D01*
X315151Y247525D01*
X315168Y247478D01*
X315229Y247387D01*
X315284Y247291D01*
X315318Y247256D01*
X315346Y247215D01*
X315429Y247142D01*
X315505Y247063D01*
X315547Y247037D01*
X315585Y247004D01*
X315682Y246954D01*
X315776Y246897D01*
X315824Y246882D01*
X315868Y246860D01*
X315975Y246836D01*
X316080Y246803D01*
X316130Y246801D01*
X316178Y246790D01*
X316288Y246793D01*
X316398Y246788D01*
X316446Y246798D01*
X316496Y246800D01*
X316602Y246830D01*
X316709Y246852D01*
X316754Y246874D01*
X316802Y246888D01*
X316896Y246944D01*
X316995Y246992D01*
X317033Y247024D01*
X317076Y247050D01*
X317196Y247156D01*
X324676Y254636D01*
X327661Y254636D01*
X327661Y242570D01*
X327676Y242452D01*
X327683Y242333D01*
X327696Y242295D01*
X327701Y242255D01*
X327744Y242144D01*
X327781Y242031D01*
X327803Y241997D01*
X327818Y241959D01*
X327888Y241863D01*
X327951Y241762D01*
X327981Y241734D01*
X328004Y241702D01*
X328096Y241626D01*
X328183Y241544D01*
X328218Y241525D01*
X328249Y241499D01*
X328357Y241448D01*
X328461Y241391D01*
X328501Y241380D01*
X328537Y241363D01*
X328654Y241341D01*
X328769Y241311D01*
X328830Y241307D01*
X328850Y241303D01*
X328870Y241305D01*
X328930Y241301D01*
X330201Y241301D01*
X330201Y241299D01*
X328930Y241299D01*
X328812Y241284D01*
X328693Y241277D01*
X328655Y241264D01*
X328614Y241259D01*
X328504Y241215D01*
X328391Y241179D01*
X328356Y241157D01*
X328319Y241142D01*
X328223Y241072D01*
X328122Y241009D01*
X328094Y240979D01*
X328061Y240955D01*
X327986Y240864D01*
X327904Y240777D01*
X327884Y240742D01*
X327859Y240710D01*
X327808Y240603D01*
X327750Y240498D01*
X327740Y240459D01*
X327723Y240423D01*
X327701Y240306D01*
X327671Y240191D01*
X327667Y240130D01*
X327663Y240110D01*
X327664Y240100D01*
X327663Y240096D01*
X327664Y240083D01*
X327661Y240030D01*
X327661Y227964D01*
X324676Y227964D01*
X317196Y235444D01*
X317157Y235475D01*
X317124Y235511D01*
X317032Y235572D01*
X316945Y235639D01*
X316899Y235659D01*
X316858Y235686D01*
X316754Y235722D01*
X316653Y235765D01*
X316604Y235773D01*
X316557Y235789D01*
X316448Y235798D01*
X316339Y235815D01*
X316290Y235811D01*
X316240Y235814D01*
X316132Y235796D01*
X316023Y235785D01*
X315976Y235769D01*
X315927Y235760D01*
X315827Y235715D01*
X315723Y235678D01*
X315682Y235650D01*
X315637Y235629D01*
X315551Y235561D01*
X315460Y235499D01*
X315427Y235462D01*
X315388Y235431D01*
X315322Y235343D01*
X315250Y235261D01*
X315227Y235216D01*
X315197Y235177D01*
X315126Y235032D01*
X314921Y234537D01*
X311563Y231179D01*
X307175Y229361D01*
X302425Y229361D01*
X298037Y231179D01*
X294679Y234537D01*
X293781Y236706D01*
X293768Y236727D01*
X293762Y236747D01*
X293740Y236782D01*
X293720Y236831D01*
X293668Y236904D01*
X293623Y236982D01*
X293595Y237011D01*
X293592Y237016D01*
X293574Y237033D01*
X293534Y237089D01*
X293464Y237146D01*
X293402Y237210D01*
X293342Y237247D01*
X293289Y237291D01*
X293207Y237330D01*
X293131Y237377D01*
X293064Y237397D01*
X293001Y237427D01*
X292913Y237444D01*
X292827Y237470D01*
X292757Y237474D01*
X292688Y237487D01*
X292599Y237481D01*
X292509Y237485D01*
X292441Y237471D01*
X292371Y237467D01*
X292286Y237439D01*
X292198Y237421D01*
X292135Y237390D01*
X292069Y237369D01*
X291993Y237321D01*
X291912Y237281D01*
X291859Y237236D01*
X291800Y237199D01*
X291738Y237133D01*
X291670Y237075D01*
X291630Y237018D01*
X291582Y236967D01*
X291543Y236896D01*
X291537Y236889D01*
X291533Y236880D01*
X291487Y236815D01*
X291462Y236750D01*
X291428Y236689D01*
X291411Y236623D01*
X291401Y236601D01*
X291396Y236576D01*
X291374Y236518D01*
X291366Y236448D01*
X291349Y236381D01*
X291344Y236303D01*
X291341Y236288D01*
X291342Y236274D01*
X291339Y236220D01*
X291339Y231147D01*
X289553Y229361D01*
X269247Y229361D01*
X267461Y231147D01*
X267461Y232119D01*
X267444Y232257D01*
X267431Y232395D01*
X267424Y232415D01*
X267421Y232435D01*
X267370Y232564D01*
X267323Y232695D01*
X267312Y232712D01*
X267304Y232730D01*
X267223Y232843D01*
X267145Y232958D01*
X267129Y232971D01*
X267118Y232988D01*
X267010Y233076D01*
X266906Y233168D01*
X266888Y233178D01*
X266873Y233190D01*
X266747Y233250D01*
X266623Y233313D01*
X266603Y233317D01*
X266585Y233326D01*
X266449Y233352D01*
X266313Y233383D01*
X266292Y233382D01*
X266273Y233386D01*
X266134Y233377D01*
X265995Y233373D01*
X265975Y233367D01*
X265955Y233366D01*
X265823Y233323D01*
X265689Y233285D01*
X265672Y233274D01*
X265653Y233268D01*
X265535Y233193D01*
X265415Y233123D01*
X265394Y233104D01*
X265384Y233098D01*
X265370Y233083D01*
X265295Y233017D01*
X259734Y227456D01*
X248266Y227456D01*
X240156Y235566D01*
X240156Y247034D01*
X243050Y249928D01*
X243135Y250037D01*
X243223Y250144D01*
X243232Y250163D01*
X243245Y250179D01*
X243300Y250307D01*
X243359Y250432D01*
X243363Y250452D01*
X243371Y250471D01*
X243393Y250609D01*
X243419Y250745D01*
X243418Y250765D01*
X243421Y250785D01*
X243408Y250924D01*
X243399Y251062D01*
X243393Y251081D01*
X243391Y251101D01*
X243344Y251233D01*
X243301Y251364D01*
X243290Y251382D01*
X243283Y251401D01*
X243205Y251516D01*
X243131Y251633D01*
X243116Y251647D01*
X243105Y251664D01*
X243000Y251756D01*
X242899Y251851D01*
X242882Y251861D01*
X242866Y251874D01*
X242742Y251938D01*
X242621Y252005D01*
X242601Y252010D01*
X242583Y252019D01*
X242447Y252049D01*
X242313Y252084D01*
X242285Y252086D01*
X242273Y252089D01*
X242252Y252088D01*
X242152Y252094D01*
X227748Y252094D01*
X227610Y252077D01*
X227472Y252064D01*
X227452Y252057D01*
X227432Y252054D01*
X227303Y252003D01*
X227172Y251956D01*
X227155Y251945D01*
X227137Y251937D01*
X227024Y251856D01*
X226909Y251778D01*
X226896Y251762D01*
X226879Y251751D01*
X226791Y251643D01*
X226699Y251539D01*
X226689Y251521D01*
X226677Y251506D01*
X226617Y251380D01*
X226554Y251256D01*
X226550Y251236D01*
X226541Y251218D01*
X226515Y251082D01*
X226484Y250946D01*
X226485Y250925D01*
X226481Y250906D01*
X226490Y250767D01*
X226494Y250628D01*
X226500Y250608D01*
X226501Y250588D01*
X226544Y250456D01*
X226582Y250322D01*
X226593Y250305D01*
X226599Y250286D01*
X226674Y250168D01*
X226744Y250048D01*
X226763Y250027D01*
X226769Y250017D01*
X226784Y250003D01*
X226850Y249928D01*
X229744Y247034D01*
X229744Y235566D01*
X221634Y227456D01*
X210166Y227456D01*
X204098Y233525D01*
X204003Y233598D01*
X203914Y233676D01*
X203878Y233695D01*
X203846Y233719D01*
X203737Y233767D01*
X203631Y233821D01*
X203592Y233830D01*
X203554Y233846D01*
X203437Y233865D01*
X203321Y233891D01*
X203280Y233889D01*
X203240Y233896D01*
X203122Y233885D01*
X203003Y233881D01*
X202964Y233870D01*
X202924Y233866D01*
X202811Y233826D01*
X202697Y233792D01*
X202663Y233772D01*
X202624Y233758D01*
X202526Y233691D01*
X202423Y233631D01*
X202378Y233591D01*
X202361Y233580D01*
X202348Y233564D01*
X202303Y233525D01*
X196234Y227456D01*
X184766Y227456D01*
X176656Y235566D01*
X176656Y239657D01*
X176639Y239795D01*
X176626Y239934D01*
X176619Y239953D01*
X176616Y239973D01*
X176565Y240102D01*
X176518Y240233D01*
X176507Y240250D01*
X176499Y240269D01*
X176418Y240381D01*
X176340Y240496D01*
X176324Y240510D01*
X176313Y240526D01*
X176205Y240615D01*
X176101Y240707D01*
X176083Y240716D01*
X176068Y240729D01*
X175942Y240788D01*
X175818Y240851D01*
X175798Y240856D01*
X175780Y240864D01*
X175644Y240890D01*
X175508Y240921D01*
X175487Y240920D01*
X175468Y240924D01*
X175329Y240916D01*
X175190Y240911D01*
X175170Y240906D01*
X175150Y240904D01*
X175018Y240862D01*
X174884Y240823D01*
X174867Y240813D01*
X174848Y240806D01*
X174730Y240732D01*
X174610Y240661D01*
X174589Y240643D01*
X174579Y240636D01*
X174565Y240621D01*
X174490Y240555D01*
X172247Y238313D01*
X170497Y236562D01*
X168443Y235711D01*
X49688Y235711D01*
X47634Y236562D01*
X45884Y238313D01*
X33362Y250834D01*
X32511Y252888D01*
X32511Y313683D01*
X32502Y313753D01*
X32504Y313822D01*
X32483Y313910D01*
X32471Y313999D01*
X32446Y314064D01*
X32429Y314132D01*
X32387Y314211D01*
X32354Y314294D01*
X32313Y314351D01*
X32281Y314413D01*
X32220Y314479D01*
X32168Y314552D01*
X32114Y314596D01*
X32067Y314648D01*
X31992Y314697D01*
X31923Y314755D01*
X31859Y314784D01*
X31801Y314823D01*
X31716Y314852D01*
X31635Y314890D01*
X31566Y314903D01*
X31500Y314926D01*
X31411Y314933D01*
X31323Y314950D01*
X31253Y314945D01*
X31183Y314951D01*
X31095Y314936D01*
X31005Y314930D01*
X30939Y314909D01*
X30870Y314897D01*
X30788Y314860D01*
X30703Y314832D01*
X30644Y314795D01*
X30580Y314766D01*
X30510Y314710D01*
X30434Y314662D01*
X30386Y314611D01*
X30331Y314567D01*
X30277Y314496D01*
X30216Y314430D01*
X30194Y314390D01*
X28566Y312762D01*
X26512Y311911D01*
X24288Y311911D01*
X22234Y312762D01*
X13597Y321399D01*
X13488Y321484D01*
X13381Y321573D01*
X13362Y321581D01*
X13346Y321594D01*
X13218Y321649D01*
X13093Y321708D01*
X13073Y321712D01*
X13054Y321720D01*
X12916Y321742D01*
X12780Y321768D01*
X12760Y321767D01*
X12740Y321770D01*
X12601Y321757D01*
X12463Y321748D01*
X12444Y321742D01*
X12424Y321740D01*
X12292Y321693D01*
X12161Y321650D01*
X12143Y321639D01*
X12124Y321633D01*
X12009Y321555D01*
X11892Y321480D01*
X11878Y321465D01*
X11861Y321454D01*
X11769Y321350D01*
X11674Y321249D01*
X11664Y321231D01*
X11651Y321216D01*
X11587Y321091D01*
X11520Y320970D01*
X11515Y320950D01*
X11506Y320932D01*
X11476Y320797D01*
X11441Y320662D01*
X11439Y320634D01*
X11436Y320622D01*
X11437Y320602D01*
X11431Y320501D01*
X11431Y233861D01*
X11443Y233762D01*
X11446Y233663D01*
X11463Y233605D01*
X11471Y233545D01*
X11507Y233453D01*
X11535Y233358D01*
X11565Y233306D01*
X11588Y233249D01*
X11646Y233169D01*
X11696Y233084D01*
X11762Y233008D01*
X11774Y232992D01*
X11784Y232984D01*
X11802Y232963D01*
X29763Y215002D01*
X29841Y214942D01*
X29913Y214874D01*
X29966Y214845D01*
X30014Y214808D01*
X30105Y214768D01*
X30192Y214720D01*
X30250Y214705D01*
X30306Y214681D01*
X30404Y214666D01*
X30500Y214641D01*
X30600Y214635D01*
X30620Y214631D01*
X30633Y214633D01*
X30661Y214631D01*
X95523Y214631D01*
X95572Y214637D01*
G37*
G36*
X12758Y580404D02*
X12758Y580404D01*
X12897Y580408D01*
X12917Y580414D01*
X12937Y580415D01*
X13069Y580458D01*
X13203Y580496D01*
X13220Y580507D01*
X13239Y580513D01*
X13357Y580587D01*
X13477Y580658D01*
X13498Y580676D01*
X13508Y580683D01*
X13522Y580698D01*
X13597Y580764D01*
X27359Y594526D01*
X27916Y594757D01*
X27925Y594761D01*
X27933Y594764D01*
X28062Y594840D01*
X28193Y594914D01*
X28199Y594921D01*
X28207Y594926D01*
X28328Y595032D01*
X55588Y622292D01*
X55673Y622401D01*
X55762Y622508D01*
X55770Y622527D01*
X55783Y622543D01*
X55838Y622671D01*
X55897Y622796D01*
X55901Y622816D01*
X55909Y622835D01*
X55931Y622973D01*
X55957Y623109D01*
X55956Y623129D01*
X55959Y623149D01*
X55946Y623288D01*
X55937Y623426D01*
X55931Y623445D01*
X55929Y623465D01*
X55882Y623597D01*
X55839Y623728D01*
X55828Y623746D01*
X55822Y623765D01*
X55744Y623880D01*
X55669Y623997D01*
X55654Y624011D01*
X55643Y624028D01*
X55539Y624120D01*
X55438Y624215D01*
X55420Y624225D01*
X55405Y624238D01*
X55281Y624301D01*
X55159Y624369D01*
X55139Y624374D01*
X55121Y624383D01*
X54986Y624413D01*
X54851Y624448D01*
X54823Y624450D01*
X54811Y624453D01*
X54791Y624452D01*
X54690Y624458D01*
X52831Y624458D01*
X52831Y632969D01*
X61342Y632969D01*
X61342Y631110D01*
X61359Y630972D01*
X61372Y630833D01*
X61379Y630814D01*
X61382Y630794D01*
X61433Y630665D01*
X61480Y630534D01*
X61491Y630517D01*
X61499Y630498D01*
X61580Y630386D01*
X61658Y630271D01*
X61674Y630257D01*
X61685Y630241D01*
X61793Y630152D01*
X61897Y630060D01*
X61915Y630051D01*
X61930Y630038D01*
X62056Y629979D01*
X62180Y629916D01*
X62200Y629911D01*
X62218Y629903D01*
X62354Y629877D01*
X62490Y629846D01*
X62511Y629847D01*
X62530Y629843D01*
X62669Y629852D01*
X62808Y629856D01*
X62828Y629861D01*
X62848Y629863D01*
X62980Y629905D01*
X63114Y629944D01*
X63131Y629954D01*
X63150Y629961D01*
X63268Y630035D01*
X63388Y630106D01*
X63409Y630124D01*
X63419Y630131D01*
X63433Y630146D01*
X63508Y630212D01*
X64828Y631532D01*
X64846Y631555D01*
X64869Y631574D01*
X64944Y631680D01*
X65023Y631783D01*
X65035Y631810D01*
X65052Y631835D01*
X65098Y631956D01*
X65150Y632075D01*
X65154Y632104D01*
X65165Y632132D01*
X65179Y632261D01*
X65199Y632389D01*
X65197Y632419D01*
X65200Y632448D01*
X65182Y632576D01*
X65170Y632706D01*
X65160Y632734D01*
X65155Y632763D01*
X65150Y632778D01*
X65150Y637198D01*
X66832Y641259D01*
X69941Y644368D01*
X73988Y646044D01*
X74031Y646069D01*
X74078Y646085D01*
X74169Y646147D01*
X74264Y646202D01*
X74300Y646236D01*
X74341Y646264D01*
X74414Y646346D01*
X74493Y646423D01*
X74519Y646465D01*
X74552Y646502D01*
X74602Y646600D01*
X74659Y646694D01*
X74674Y646741D01*
X74696Y646786D01*
X74720Y646893D01*
X74753Y646998D01*
X74755Y647047D01*
X74766Y647096D01*
X74763Y647206D01*
X74768Y647316D01*
X74758Y647364D01*
X74756Y647414D01*
X74726Y647519D01*
X74704Y647627D01*
X74682Y647672D01*
X74668Y647719D01*
X74612Y647814D01*
X74564Y647913D01*
X74532Y647950D01*
X74506Y647993D01*
X74400Y648114D01*
X71462Y651052D01*
X70611Y653106D01*
X70611Y691642D01*
X70596Y691760D01*
X70589Y691879D01*
X70576Y691917D01*
X70571Y691958D01*
X70528Y692068D01*
X70491Y692181D01*
X70469Y692216D01*
X70454Y692253D01*
X70385Y692349D01*
X70321Y692450D01*
X70291Y692478D01*
X70268Y692511D01*
X70176Y692587D01*
X70089Y692668D01*
X70054Y692688D01*
X70023Y692713D01*
X69915Y692764D01*
X69811Y692822D01*
X69771Y692832D01*
X69735Y692849D01*
X69618Y692871D01*
X69503Y692901D01*
X69443Y692905D01*
X69423Y692909D01*
X69402Y692907D01*
X69342Y692911D01*
X62388Y692911D01*
X60334Y693762D01*
X58762Y695334D01*
X57911Y697388D01*
X57911Y699612D01*
X58762Y701666D01*
X60334Y703238D01*
X62388Y704089D01*
X73359Y704089D01*
X73458Y704101D01*
X73557Y704104D01*
X73615Y704121D01*
X73675Y704129D01*
X73767Y704165D01*
X73862Y704193D01*
X73914Y704223D01*
X73971Y704246D01*
X74051Y704304D01*
X74136Y704354D01*
X74211Y704420D01*
X74228Y704432D01*
X74236Y704442D01*
X74257Y704460D01*
X144488Y774692D01*
X144573Y774801D01*
X144662Y774908D01*
X144670Y774927D01*
X144683Y774943D01*
X144738Y775071D01*
X144797Y775196D01*
X144801Y775216D01*
X144809Y775235D01*
X144831Y775373D01*
X144857Y775509D01*
X144856Y775529D01*
X144859Y775549D01*
X144846Y775688D01*
X144837Y775826D01*
X144831Y775845D01*
X144829Y775865D01*
X144782Y775997D01*
X144739Y776128D01*
X144728Y776146D01*
X144722Y776165D01*
X144644Y776280D01*
X144569Y776397D01*
X144554Y776411D01*
X144543Y776428D01*
X144439Y776520D01*
X144338Y776615D01*
X144320Y776625D01*
X144305Y776638D01*
X144181Y776701D01*
X144059Y776769D01*
X144039Y776774D01*
X144021Y776783D01*
X143886Y776813D01*
X143751Y776848D01*
X143723Y776850D01*
X143711Y776853D01*
X143691Y776852D01*
X143590Y776858D01*
X141731Y776858D01*
X141731Y785369D01*
X150242Y785369D01*
X150242Y783510D01*
X150259Y783372D01*
X150272Y783233D01*
X150279Y783214D01*
X150282Y783194D01*
X150333Y783065D01*
X150380Y782934D01*
X150391Y782917D01*
X150399Y782898D01*
X150480Y782786D01*
X150558Y782671D01*
X150574Y782657D01*
X150585Y782641D01*
X150693Y782552D01*
X150797Y782460D01*
X150815Y782451D01*
X150830Y782438D01*
X150956Y782379D01*
X151080Y782316D01*
X151100Y782311D01*
X151118Y782303D01*
X151254Y782277D01*
X151390Y782246D01*
X151411Y782247D01*
X151430Y782243D01*
X151569Y782252D01*
X151708Y782256D01*
X151728Y782261D01*
X151748Y782263D01*
X151880Y782305D01*
X152014Y782344D01*
X152031Y782354D01*
X152050Y782361D01*
X152168Y782435D01*
X152288Y782506D01*
X152309Y782524D01*
X152319Y782531D01*
X152333Y782546D01*
X152408Y782612D01*
X153728Y783932D01*
X153746Y783955D01*
X153769Y783974D01*
X153844Y784080D01*
X153923Y784183D01*
X153935Y784210D01*
X153952Y784235D01*
X153998Y784356D01*
X154050Y784475D01*
X154054Y784504D01*
X154065Y784532D01*
X154079Y784661D01*
X154099Y784789D01*
X154097Y784819D01*
X154100Y784848D01*
X154082Y784976D01*
X154070Y785106D01*
X154060Y785134D01*
X154055Y785163D01*
X154050Y785178D01*
X154050Y789598D01*
X155732Y793659D01*
X158841Y796768D01*
X162902Y798450D01*
X167354Y798450D01*
X167366Y798447D01*
X167492Y798413D01*
X167521Y798412D01*
X167550Y798406D01*
X167680Y798410D01*
X167809Y798408D01*
X167838Y798414D01*
X167868Y798415D01*
X167992Y798451D01*
X168119Y798482D01*
X168145Y798496D01*
X168173Y798504D01*
X168285Y798570D01*
X168400Y798630D01*
X168422Y798650D01*
X168447Y798665D01*
X168568Y798772D01*
X187334Y817538D01*
X189388Y818389D01*
X232109Y818389D01*
X232208Y818401D01*
X232307Y818404D01*
X232365Y818421D01*
X232425Y818429D01*
X232517Y818465D01*
X232612Y818493D01*
X232664Y818523D01*
X232721Y818546D01*
X232801Y818604D01*
X232886Y818654D01*
X232961Y818720D01*
X232978Y818732D01*
X232986Y818742D01*
X233007Y818760D01*
X255434Y841187D01*
X276949Y862703D01*
X277034Y862812D01*
X277123Y862919D01*
X277131Y862938D01*
X277144Y862954D01*
X277199Y863082D01*
X277258Y863207D01*
X277262Y863227D01*
X277270Y863246D01*
X277292Y863384D01*
X277318Y863520D01*
X277317Y863540D01*
X277320Y863560D01*
X277307Y863699D01*
X277298Y863837D01*
X277292Y863856D01*
X277290Y863876D01*
X277243Y864008D01*
X277200Y864139D01*
X277189Y864157D01*
X277183Y864176D01*
X277105Y864291D01*
X277030Y864408D01*
X277015Y864422D01*
X277004Y864439D01*
X276900Y864531D01*
X276799Y864626D01*
X276781Y864636D01*
X276766Y864649D01*
X276642Y864712D01*
X276520Y864780D01*
X276500Y864785D01*
X276482Y864794D01*
X276347Y864824D01*
X276212Y864859D01*
X276184Y864861D01*
X276172Y864864D01*
X276152Y864863D01*
X276051Y864869D01*
X30661Y864869D01*
X30562Y864857D01*
X30463Y864854D01*
X30405Y864837D01*
X30345Y864829D01*
X30253Y864793D01*
X30158Y864765D01*
X30106Y864735D01*
X30049Y864712D01*
X29969Y864654D01*
X29884Y864604D01*
X29808Y864538D01*
X29792Y864526D01*
X29784Y864516D01*
X29763Y864498D01*
X11802Y846537D01*
X11742Y846459D01*
X11674Y846387D01*
X11645Y846334D01*
X11608Y846286D01*
X11568Y846195D01*
X11520Y846108D01*
X11505Y846050D01*
X11481Y845994D01*
X11466Y845896D01*
X11441Y845800D01*
X11435Y845700D01*
X11431Y845680D01*
X11433Y845667D01*
X11431Y845639D01*
X11431Y581662D01*
X11448Y581524D01*
X11461Y581385D01*
X11468Y581366D01*
X11471Y581346D01*
X11522Y581217D01*
X11569Y581086D01*
X11580Y581069D01*
X11588Y581051D01*
X11669Y580938D01*
X11747Y580823D01*
X11763Y580810D01*
X11774Y580793D01*
X11882Y580705D01*
X11986Y580613D01*
X12004Y580603D01*
X12019Y580590D01*
X12145Y580531D01*
X12269Y580468D01*
X12289Y580464D01*
X12307Y580455D01*
X12443Y580429D01*
X12579Y580398D01*
X12600Y580399D01*
X12619Y580395D01*
X12758Y580404D01*
G37*
%LPC*%
G36*
X367244Y451893D02*
X367244Y451893D01*
X365294Y452701D01*
X363801Y454194D01*
X362910Y456346D01*
X362905Y456354D01*
X362903Y456363D01*
X362826Y456492D01*
X362752Y456622D01*
X362746Y456629D01*
X362741Y456637D01*
X362635Y456758D01*
X341483Y477910D01*
X338581Y480811D01*
X338581Y580507D01*
X338580Y580516D01*
X338581Y580525D01*
X338560Y580674D01*
X338541Y580822D01*
X338538Y580831D01*
X338537Y580840D01*
X338485Y580992D01*
X337593Y583144D01*
X337593Y585256D01*
X338231Y586794D01*
X338233Y586803D01*
X338238Y586811D01*
X338275Y586957D01*
X338315Y587101D01*
X338315Y587110D01*
X338317Y587119D01*
X338327Y587280D01*
X338327Y632580D01*
X338315Y632678D01*
X338312Y632777D01*
X338295Y632836D01*
X338287Y632896D01*
X338251Y632988D01*
X338223Y633083D01*
X338193Y633135D01*
X338170Y633191D01*
X338112Y633271D01*
X338062Y633357D01*
X337996Y633432D01*
X337984Y633449D01*
X337974Y633457D01*
X337956Y633478D01*
X298133Y673300D01*
X298110Y673318D01*
X298090Y673341D01*
X297984Y673416D01*
X297882Y673495D01*
X297855Y673507D01*
X297830Y673524D01*
X297709Y673570D01*
X297590Y673622D01*
X297561Y673626D01*
X297533Y673637D01*
X297404Y673651D01*
X297276Y673671D01*
X297246Y673669D01*
X297217Y673672D01*
X297088Y673654D01*
X296959Y673642D01*
X296931Y673632D01*
X296902Y673627D01*
X296750Y673575D01*
X296064Y673291D01*
X288056Y673291D01*
X280658Y676356D01*
X277147Y679866D01*
X277038Y679951D01*
X276931Y680040D01*
X276912Y680049D01*
X276896Y680061D01*
X276768Y680117D01*
X276643Y680176D01*
X276623Y680179D01*
X276604Y680188D01*
X276466Y680209D01*
X276330Y680235D01*
X276310Y680234D01*
X276290Y680237D01*
X276151Y680224D01*
X276013Y680216D01*
X275994Y680209D01*
X275974Y680208D01*
X275842Y680160D01*
X275711Y680118D01*
X275693Y680107D01*
X275674Y680100D01*
X275559Y680022D01*
X275442Y679947D01*
X275428Y679933D01*
X275411Y679921D01*
X275319Y679817D01*
X275224Y679716D01*
X275214Y679698D01*
X275201Y679683D01*
X275137Y679559D01*
X275070Y679437D01*
X275065Y679418D01*
X275056Y679400D01*
X275026Y679264D01*
X274991Y679129D01*
X274989Y679101D01*
X274986Y679089D01*
X274987Y679069D01*
X274981Y678969D01*
X274981Y671812D01*
X274993Y671714D01*
X274996Y671615D01*
X275013Y671556D01*
X275021Y671496D01*
X275057Y671404D01*
X275085Y671309D01*
X275115Y671257D01*
X275138Y671201D01*
X275196Y671121D01*
X275246Y671035D01*
X275312Y670960D01*
X275324Y670943D01*
X275334Y670935D01*
X275352Y670914D01*
X286352Y659914D01*
X286376Y659896D01*
X286395Y659874D01*
X286501Y659799D01*
X286604Y659720D01*
X286631Y659708D01*
X286655Y659691D01*
X286776Y659645D01*
X286895Y659593D01*
X286925Y659589D01*
X286952Y659578D01*
X287081Y659564D01*
X287210Y659543D01*
X287239Y659546D01*
X287268Y659543D01*
X287397Y659561D01*
X287526Y659573D01*
X287554Y659583D01*
X287583Y659587D01*
X287736Y659639D01*
X289574Y660401D01*
X294626Y660401D01*
X299294Y658467D01*
X302867Y654894D01*
X304801Y650226D01*
X304801Y645174D01*
X304039Y643336D01*
X304032Y643307D01*
X304018Y643281D01*
X303990Y643154D01*
X303955Y643029D01*
X303955Y642999D01*
X303948Y642970D01*
X303952Y642841D01*
X303950Y642711D01*
X303957Y642682D01*
X303958Y642653D01*
X303994Y642528D01*
X304025Y642402D01*
X304038Y642375D01*
X304047Y642347D01*
X304112Y642235D01*
X304173Y642120D01*
X304193Y642099D01*
X304208Y642073D01*
X304314Y641952D01*
X311752Y634514D01*
X311776Y634496D01*
X311795Y634474D01*
X311901Y634399D01*
X312004Y634320D01*
X312031Y634308D01*
X312055Y634291D01*
X312176Y634245D01*
X312295Y634193D01*
X312325Y634189D01*
X312352Y634178D01*
X312481Y634164D01*
X312610Y634143D01*
X312639Y634146D01*
X312668Y634143D01*
X312797Y634161D01*
X312926Y634173D01*
X312954Y634183D01*
X312983Y634187D01*
X313136Y634239D01*
X314974Y635001D01*
X320026Y635001D01*
X324694Y633067D01*
X328267Y629494D01*
X330201Y624826D01*
X330201Y619774D01*
X328267Y615106D01*
X324694Y611533D01*
X320026Y609599D01*
X314974Y609599D01*
X310306Y611533D01*
X306733Y615106D01*
X304799Y619774D01*
X304799Y624826D01*
X305561Y626664D01*
X305568Y626693D01*
X305582Y626719D01*
X305586Y626736D01*
X305589Y626744D01*
X305601Y626805D01*
X305610Y626846D01*
X305645Y626971D01*
X305645Y627001D01*
X305652Y627030D01*
X305648Y627159D01*
X305650Y627289D01*
X305643Y627318D01*
X305642Y627347D01*
X305606Y627472D01*
X305575Y627598D01*
X305562Y627625D01*
X305553Y627653D01*
X305488Y627765D01*
X305427Y627880D01*
X305407Y627901D01*
X305392Y627927D01*
X305286Y628048D01*
X297848Y635486D01*
X297824Y635504D01*
X297805Y635526D01*
X297699Y635601D01*
X297596Y635680D01*
X297569Y635692D01*
X297545Y635709D01*
X297424Y635755D01*
X297305Y635807D01*
X297275Y635811D01*
X297248Y635822D01*
X297119Y635836D01*
X296990Y635857D01*
X296961Y635854D01*
X296932Y635857D01*
X296803Y635839D01*
X296674Y635827D01*
X296646Y635817D01*
X296617Y635813D01*
X296464Y635761D01*
X294626Y634999D01*
X289574Y634999D01*
X284906Y636933D01*
X281333Y640506D01*
X279399Y645174D01*
X279399Y650226D01*
X280161Y652064D01*
X280168Y652093D01*
X280182Y652119D01*
X280210Y652246D01*
X280245Y652371D01*
X280245Y652401D01*
X280252Y652430D01*
X280248Y652559D01*
X280250Y652689D01*
X280243Y652718D01*
X280242Y652747D01*
X280206Y652872D01*
X280175Y652998D01*
X280162Y653025D01*
X280153Y653053D01*
X280088Y653165D01*
X280027Y653280D01*
X280007Y653301D01*
X279992Y653327D01*
X279886Y653448D01*
X265835Y667498D01*
X265835Y673959D01*
X265818Y674097D01*
X265805Y674236D01*
X265798Y674255D01*
X265795Y674275D01*
X265744Y674404D01*
X265697Y674535D01*
X265686Y674552D01*
X265678Y674571D01*
X265597Y674683D01*
X265519Y674798D01*
X265503Y674812D01*
X265492Y674828D01*
X265384Y674917D01*
X265280Y675009D01*
X265262Y675018D01*
X265247Y675031D01*
X265121Y675090D01*
X264997Y675153D01*
X264977Y675158D01*
X264959Y675166D01*
X264822Y675192D01*
X264687Y675223D01*
X264666Y675222D01*
X264647Y675226D01*
X264508Y675218D01*
X264369Y675213D01*
X264349Y675208D01*
X264329Y675206D01*
X264197Y675164D01*
X264063Y675125D01*
X264046Y675115D01*
X264027Y675108D01*
X263909Y675034D01*
X263789Y674963D01*
X263768Y674945D01*
X263758Y674938D01*
X263744Y674923D01*
X263669Y674857D01*
X262103Y673291D01*
X225417Y673291D01*
X223631Y675077D01*
X223631Y711763D01*
X225417Y713549D01*
X262103Y713549D01*
X263889Y711763D01*
X263889Y707940D01*
X263906Y707803D01*
X263919Y707664D01*
X263926Y707645D01*
X263929Y707625D01*
X263980Y707496D01*
X264027Y707365D01*
X264038Y707348D01*
X264046Y707329D01*
X264127Y707217D01*
X264205Y707102D01*
X264221Y707088D01*
X264232Y707072D01*
X264340Y706983D01*
X264444Y706891D01*
X264462Y706882D01*
X264477Y706869D01*
X264603Y706810D01*
X264727Y706746D01*
X264747Y706742D01*
X264765Y706733D01*
X264901Y706707D01*
X265037Y706677D01*
X265058Y706677D01*
X265077Y706674D01*
X265216Y706682D01*
X265355Y706686D01*
X265375Y706692D01*
X265395Y706693D01*
X265527Y706736D01*
X265661Y706775D01*
X265678Y706785D01*
X265697Y706791D01*
X265815Y706866D01*
X265935Y706936D01*
X265956Y706955D01*
X265966Y706962D01*
X265980Y706977D01*
X266055Y707043D01*
X268886Y709873D01*
X281443Y722431D01*
X281474Y722470D01*
X281511Y722503D01*
X281571Y722595D01*
X281638Y722682D01*
X281658Y722728D01*
X281685Y722769D01*
X281721Y722873D01*
X281765Y722974D01*
X281773Y723023D01*
X281789Y723070D01*
X281797Y723179D01*
X281815Y723288D01*
X281810Y723338D01*
X281814Y723387D01*
X281795Y723495D01*
X281785Y723605D01*
X281768Y723651D01*
X281759Y723700D01*
X281714Y723801D01*
X281677Y723904D01*
X281649Y723945D01*
X281629Y723990D01*
X281560Y724076D01*
X281499Y724167D01*
X281461Y724200D01*
X281430Y724239D01*
X281342Y724305D01*
X281260Y724378D01*
X281216Y724400D01*
X281176Y724430D01*
X281032Y724501D01*
X280658Y724656D01*
X274996Y730318D01*
X271931Y737716D01*
X271931Y745724D01*
X274996Y753122D01*
X280658Y758784D01*
X288056Y761849D01*
X296064Y761849D01*
X303462Y758784D01*
X309124Y753122D01*
X312189Y745724D01*
X312189Y737716D01*
X309124Y730318D01*
X303462Y724656D01*
X296064Y721591D01*
X294063Y721591D01*
X293965Y721579D01*
X293866Y721576D01*
X293808Y721559D01*
X293748Y721551D01*
X293656Y721515D01*
X293561Y721487D01*
X293508Y721457D01*
X293452Y721434D01*
X293372Y721376D01*
X293287Y721326D01*
X293211Y721260D01*
X293195Y721248D01*
X293187Y721238D01*
X293166Y721220D01*
X287662Y715715D01*
X287576Y715606D01*
X287488Y715499D01*
X287479Y715480D01*
X287467Y715464D01*
X287411Y715336D01*
X287352Y715211D01*
X287349Y715191D01*
X287340Y715172D01*
X287319Y715034D01*
X287293Y714898D01*
X287294Y714878D01*
X287291Y714858D01*
X287304Y714719D01*
X287312Y714581D01*
X287318Y714562D01*
X287320Y714542D01*
X287368Y714410D01*
X287410Y714279D01*
X287421Y714261D01*
X287428Y714242D01*
X287506Y714127D01*
X287580Y714010D01*
X287595Y713996D01*
X287607Y713979D01*
X287711Y713887D01*
X287812Y713792D01*
X287830Y713782D01*
X287845Y713769D01*
X287969Y713705D01*
X288091Y713638D01*
X288110Y713633D01*
X288128Y713624D01*
X288264Y713594D01*
X288399Y713559D01*
X288427Y713557D01*
X288439Y713554D01*
X288459Y713555D01*
X288559Y713549D01*
X296064Y713549D01*
X303462Y710484D01*
X309124Y704822D01*
X312189Y697424D01*
X312189Y689416D01*
X309124Y682018D01*
X306634Y679528D01*
X306561Y679434D01*
X306482Y679344D01*
X306464Y679308D01*
X306439Y679276D01*
X306392Y679167D01*
X306338Y679061D01*
X306329Y679022D01*
X306313Y678985D01*
X306294Y678867D01*
X306268Y678751D01*
X306269Y678711D01*
X306263Y678671D01*
X306274Y678552D01*
X306278Y678433D01*
X306289Y678394D01*
X306293Y678354D01*
X306333Y678242D01*
X306366Y678128D01*
X306387Y678093D01*
X306400Y678055D01*
X306467Y677956D01*
X306528Y677854D01*
X306568Y677808D01*
X306579Y677792D01*
X306594Y677778D01*
X306634Y677733D01*
X347473Y636894D01*
X347473Y587280D01*
X347474Y587271D01*
X347473Y587262D01*
X347494Y587113D01*
X347513Y586965D01*
X347516Y586956D01*
X347517Y586947D01*
X347569Y586794D01*
X348207Y585256D01*
X348207Y583144D01*
X347315Y580992D01*
X347313Y580983D01*
X347308Y580975D01*
X347271Y580830D01*
X347231Y580686D01*
X347231Y580676D01*
X347229Y580667D01*
X347219Y580507D01*
X347219Y484915D01*
X347231Y484816D01*
X347234Y484717D01*
X347251Y484659D01*
X347259Y484599D01*
X347295Y484507D01*
X347323Y484412D01*
X347353Y484360D01*
X347376Y484303D01*
X347434Y484223D01*
X347484Y484138D01*
X347550Y484063D01*
X347562Y484046D01*
X347572Y484038D01*
X347590Y484017D01*
X368742Y462865D01*
X368750Y462860D01*
X368755Y462852D01*
X368875Y462762D01*
X368994Y462670D01*
X369002Y462667D01*
X369010Y462661D01*
X369154Y462590D01*
X371306Y461699D01*
X372799Y460206D01*
X373607Y458256D01*
X373607Y456144D01*
X372799Y454194D01*
X371306Y452701D01*
X369356Y451893D01*
X367244Y451893D01*
G37*
%LPD*%
%LPC*%
G36*
X367244Y324893D02*
X367244Y324893D01*
X365294Y325701D01*
X363801Y327194D01*
X362993Y329144D01*
X362993Y331256D01*
X363885Y333408D01*
X363887Y333417D01*
X363892Y333425D01*
X363929Y333570D01*
X363969Y333714D01*
X363969Y333724D01*
X363971Y333733D01*
X363981Y333893D01*
X363981Y402707D01*
X363980Y402716D01*
X363981Y402725D01*
X363960Y402873D01*
X363941Y403022D01*
X363938Y403031D01*
X363937Y403040D01*
X363885Y403192D01*
X362910Y405546D01*
X362905Y405554D01*
X362903Y405563D01*
X362826Y405692D01*
X362752Y405822D01*
X362746Y405829D01*
X362741Y405837D01*
X362635Y405958D01*
X316083Y452510D01*
X313181Y455411D01*
X313181Y518287D01*
X313166Y518405D01*
X313159Y518524D01*
X313146Y518562D01*
X313141Y518603D01*
X313098Y518713D01*
X313061Y518826D01*
X313039Y518861D01*
X313024Y518898D01*
X312955Y518994D01*
X312891Y519095D01*
X312861Y519123D01*
X312838Y519156D01*
X312746Y519232D01*
X312659Y519313D01*
X312624Y519333D01*
X312593Y519358D01*
X312485Y519409D01*
X312381Y519467D01*
X312341Y519477D01*
X312305Y519494D01*
X312188Y519516D01*
X312073Y519546D01*
X312013Y519550D01*
X311993Y519554D01*
X311972Y519552D01*
X311912Y519556D01*
X311766Y519556D01*
X305697Y525625D01*
X305603Y525698D01*
X305514Y525776D01*
X305478Y525795D01*
X305446Y525819D01*
X305337Y525867D01*
X305231Y525921D01*
X305192Y525930D01*
X305154Y525946D01*
X305037Y525965D01*
X304921Y525991D01*
X304880Y525989D01*
X304840Y525996D01*
X304722Y525985D01*
X304603Y525981D01*
X304564Y525970D01*
X304524Y525966D01*
X304411Y525926D01*
X304297Y525892D01*
X304262Y525872D01*
X304224Y525858D01*
X304126Y525791D01*
X304023Y525731D01*
X303978Y525691D01*
X303961Y525680D01*
X303948Y525664D01*
X303902Y525625D01*
X297834Y519556D01*
X286366Y519556D01*
X280298Y525625D01*
X280203Y525698D01*
X280114Y525776D01*
X280078Y525795D01*
X280046Y525819D01*
X279937Y525867D01*
X279831Y525921D01*
X279792Y525930D01*
X279754Y525946D01*
X279637Y525965D01*
X279521Y525991D01*
X279480Y525989D01*
X279440Y525996D01*
X279322Y525985D01*
X279203Y525981D01*
X279164Y525970D01*
X279124Y525966D01*
X279011Y525926D01*
X278897Y525892D01*
X278863Y525872D01*
X278824Y525858D01*
X278726Y525791D01*
X278623Y525731D01*
X278578Y525691D01*
X278561Y525680D01*
X278548Y525664D01*
X278503Y525625D01*
X272434Y519556D01*
X272288Y519556D01*
X272170Y519541D01*
X272051Y519534D01*
X272013Y519521D01*
X271972Y519516D01*
X271862Y519473D01*
X271749Y519436D01*
X271714Y519414D01*
X271677Y519399D01*
X271581Y519330D01*
X271480Y519266D01*
X271452Y519236D01*
X271419Y519213D01*
X271343Y519121D01*
X271262Y519034D01*
X271242Y518999D01*
X271217Y518968D01*
X271166Y518860D01*
X271108Y518756D01*
X271098Y518716D01*
X271081Y518680D01*
X271059Y518563D01*
X271029Y518448D01*
X271025Y518388D01*
X271021Y518368D01*
X271023Y518347D01*
X271019Y518287D01*
X271019Y455411D01*
X268117Y452510D01*
X221565Y405958D01*
X221560Y405950D01*
X221552Y405945D01*
X221462Y405825D01*
X221370Y405706D01*
X221367Y405698D01*
X221361Y405690D01*
X221290Y405546D01*
X220399Y403394D01*
X218906Y401901D01*
X216956Y401093D01*
X214844Y401093D01*
X212894Y401901D01*
X211401Y403394D01*
X210593Y405344D01*
X210593Y407456D01*
X211401Y409406D01*
X212894Y410899D01*
X215046Y411790D01*
X215054Y411795D01*
X215063Y411797D01*
X215192Y411874D01*
X215322Y411948D01*
X215329Y411954D01*
X215337Y411959D01*
X215458Y412065D01*
X240557Y437164D01*
X240587Y437204D01*
X240624Y437237D01*
X240684Y437329D01*
X240752Y437416D01*
X240771Y437461D01*
X240799Y437503D01*
X240834Y437607D01*
X240878Y437707D01*
X240886Y437757D01*
X240902Y437804D01*
X240911Y437913D01*
X240928Y438022D01*
X240923Y438071D01*
X240927Y438121D01*
X240908Y438229D01*
X240898Y438338D01*
X240881Y438385D01*
X240873Y438434D01*
X240828Y438534D01*
X240790Y438637D01*
X240763Y438679D01*
X240742Y438724D01*
X240674Y438810D01*
X240612Y438901D01*
X240575Y438933D01*
X240544Y438972D01*
X240456Y439038D01*
X240373Y439111D01*
X240329Y439134D01*
X240289Y439164D01*
X240145Y439234D01*
X238294Y440001D01*
X236801Y441494D01*
X235993Y443444D01*
X235993Y445556D01*
X236631Y447094D01*
X236633Y447103D01*
X236638Y447111D01*
X236675Y447257D01*
X236715Y447401D01*
X236715Y447410D01*
X236717Y447419D01*
X236727Y447580D01*
X236727Y474835D01*
X243186Y481293D01*
X243246Y481371D01*
X243314Y481444D01*
X243343Y481497D01*
X243380Y481544D01*
X243420Y481635D01*
X243468Y481722D01*
X243483Y481781D01*
X243507Y481836D01*
X243522Y481934D01*
X243547Y482030D01*
X243553Y482130D01*
X243557Y482150D01*
X243555Y482163D01*
X243557Y482191D01*
X243557Y483009D01*
X243545Y483108D01*
X243542Y483207D01*
X243525Y483265D01*
X243517Y483325D01*
X243481Y483417D01*
X243453Y483512D01*
X243423Y483564D01*
X243400Y483621D01*
X243342Y483701D01*
X243292Y483786D01*
X243226Y483861D01*
X243214Y483878D01*
X243204Y483886D01*
X243186Y483907D01*
X239778Y487315D01*
X236727Y490365D01*
X236727Y606520D01*
X236726Y606529D01*
X236727Y606538D01*
X236706Y606687D01*
X236687Y606835D01*
X236684Y606844D01*
X236683Y606853D01*
X236631Y607006D01*
X235993Y608544D01*
X235993Y610656D01*
X236801Y612606D01*
X238294Y614099D01*
X240244Y614907D01*
X242356Y614907D01*
X244306Y614099D01*
X245799Y612606D01*
X246607Y610656D01*
X246607Y608544D01*
X245969Y607006D01*
X245967Y606997D01*
X245962Y606989D01*
X245925Y606843D01*
X245885Y606699D01*
X245885Y606690D01*
X245883Y606681D01*
X245873Y606520D01*
X245873Y494679D01*
X245885Y494581D01*
X245888Y494482D01*
X245905Y494423D01*
X245913Y494363D01*
X245949Y494271D01*
X245977Y494176D01*
X246007Y494124D01*
X246030Y494068D01*
X246088Y493988D01*
X246138Y493902D01*
X246204Y493827D01*
X246216Y493810D01*
X246226Y493803D01*
X246244Y493781D01*
X249652Y490374D01*
X252703Y487323D01*
X252703Y477877D01*
X249653Y474827D01*
X249652Y474826D01*
X246244Y471419D01*
X246184Y471340D01*
X246116Y471268D01*
X246087Y471215D01*
X246050Y471167D01*
X246010Y471076D01*
X245962Y470990D01*
X245947Y470931D01*
X245923Y470875D01*
X245908Y470777D01*
X245883Y470682D01*
X245877Y470582D01*
X245873Y470561D01*
X245875Y470549D01*
X245873Y470521D01*
X245873Y447580D01*
X245874Y447571D01*
X245873Y447562D01*
X245894Y447413D01*
X245913Y447265D01*
X245916Y447256D01*
X245917Y447247D01*
X245969Y447094D01*
X246566Y445655D01*
X246590Y445612D01*
X246607Y445565D01*
X246669Y445474D01*
X246723Y445379D01*
X246758Y445343D01*
X246786Y445302D01*
X246868Y445229D01*
X246944Y445150D01*
X246987Y445124D01*
X247024Y445092D01*
X247122Y445042D01*
X247215Y444984D01*
X247263Y444970D01*
X247307Y444947D01*
X247414Y444923D01*
X247519Y444891D01*
X247569Y444888D01*
X247618Y444877D01*
X247728Y444881D01*
X247837Y444875D01*
X247886Y444885D01*
X247935Y444887D01*
X248041Y444917D01*
X248149Y444940D01*
X248193Y444962D01*
X248241Y444975D01*
X248335Y445031D01*
X248434Y445079D01*
X248472Y445112D01*
X248515Y445137D01*
X248636Y445243D01*
X262010Y458617D01*
X262070Y458695D01*
X262138Y458768D01*
X262167Y458821D01*
X262204Y458868D01*
X262244Y458959D01*
X262292Y459046D01*
X262307Y459105D01*
X262331Y459160D01*
X262346Y459258D01*
X262371Y459354D01*
X262377Y459454D01*
X262381Y459474D01*
X262379Y459487D01*
X262381Y459515D01*
X262381Y518287D01*
X262366Y518405D01*
X262359Y518524D01*
X262346Y518562D01*
X262341Y518603D01*
X262298Y518713D01*
X262261Y518826D01*
X262239Y518861D01*
X262224Y518898D01*
X262155Y518994D01*
X262091Y519095D01*
X262061Y519123D01*
X262038Y519156D01*
X261946Y519232D01*
X261859Y519313D01*
X261824Y519333D01*
X261793Y519358D01*
X261685Y519409D01*
X261581Y519467D01*
X261541Y519477D01*
X261505Y519494D01*
X261388Y519516D01*
X261273Y519546D01*
X261213Y519550D01*
X261193Y519554D01*
X261172Y519552D01*
X261112Y519556D01*
X260966Y519556D01*
X252856Y527666D01*
X252856Y539134D01*
X260966Y547244D01*
X272434Y547244D01*
X278503Y541175D01*
X278589Y541108D01*
X278629Y541071D01*
X278638Y541066D01*
X278686Y541024D01*
X278722Y541005D01*
X278754Y540981D01*
X278863Y540933D01*
X278969Y540879D01*
X279008Y540870D01*
X279046Y540854D01*
X279163Y540835D01*
X279279Y540809D01*
X279320Y540811D01*
X279360Y540804D01*
X279478Y540815D01*
X279597Y540819D01*
X279636Y540830D01*
X279676Y540834D01*
X279789Y540874D01*
X279903Y540908D01*
X279938Y540928D01*
X279976Y540942D01*
X280074Y541009D01*
X280177Y541069D01*
X280222Y541109D01*
X280239Y541120D01*
X280252Y541136D01*
X280298Y541175D01*
X286366Y547244D01*
X297834Y547244D01*
X303902Y541175D01*
X303990Y541108D01*
X304029Y541071D01*
X304038Y541066D01*
X304086Y541024D01*
X304122Y541005D01*
X304154Y540981D01*
X304263Y540933D01*
X304369Y540879D01*
X304408Y540870D01*
X304446Y540854D01*
X304563Y540835D01*
X304679Y540809D01*
X304720Y540811D01*
X304760Y540804D01*
X304878Y540815D01*
X304997Y540819D01*
X305036Y540830D01*
X305076Y540834D01*
X305189Y540874D01*
X305303Y540908D01*
X305337Y540928D01*
X305376Y540942D01*
X305474Y541009D01*
X305577Y541069D01*
X305622Y541109D01*
X305639Y541120D01*
X305652Y541136D01*
X305697Y541175D01*
X311766Y547244D01*
X323234Y547244D01*
X331344Y539134D01*
X331344Y527666D01*
X323234Y519556D01*
X323088Y519556D01*
X322970Y519541D01*
X322851Y519534D01*
X322813Y519521D01*
X322772Y519516D01*
X322662Y519473D01*
X322549Y519436D01*
X322514Y519414D01*
X322477Y519399D01*
X322381Y519330D01*
X322280Y519266D01*
X322252Y519236D01*
X322219Y519213D01*
X322143Y519121D01*
X322062Y519034D01*
X322042Y518999D01*
X322017Y518968D01*
X321966Y518860D01*
X321908Y518756D01*
X321898Y518716D01*
X321881Y518680D01*
X321859Y518563D01*
X321829Y518448D01*
X321825Y518388D01*
X321821Y518368D01*
X321823Y518347D01*
X321819Y518287D01*
X321819Y459515D01*
X321831Y459416D01*
X321834Y459317D01*
X321851Y459259D01*
X321859Y459199D01*
X321895Y459107D01*
X321923Y459012D01*
X321953Y458960D01*
X321976Y458903D01*
X322034Y458823D01*
X322084Y458738D01*
X322150Y458663D01*
X322162Y458646D01*
X322172Y458638D01*
X322190Y458617D01*
X368742Y412065D01*
X368750Y412060D01*
X368755Y412052D01*
X368875Y411962D01*
X368994Y411870D01*
X369002Y411867D01*
X369010Y411861D01*
X369154Y411790D01*
X371306Y410899D01*
X372799Y409406D01*
X373607Y407456D01*
X373607Y405344D01*
X372715Y403192D01*
X372713Y403183D01*
X372708Y403175D01*
X372671Y403030D01*
X372631Y402886D01*
X372631Y402876D01*
X372629Y402867D01*
X372619Y402707D01*
X372619Y333893D01*
X372620Y333884D01*
X372619Y333875D01*
X372639Y333729D01*
X372641Y333703D01*
X372644Y333695D01*
X372659Y333578D01*
X372662Y333569D01*
X372663Y333560D01*
X372715Y333408D01*
X373607Y331256D01*
X373607Y329144D01*
X372799Y327194D01*
X371306Y325701D01*
X369356Y324893D01*
X367244Y324893D01*
G37*
%LPD*%
%LPC*%
G36*
X362566Y227456D02*
X362566Y227456D01*
X354456Y235566D01*
X354456Y247034D01*
X362566Y255144D01*
X362712Y255144D01*
X362830Y255159D01*
X362949Y255166D01*
X362987Y255179D01*
X363028Y255184D01*
X363138Y255227D01*
X363251Y255264D01*
X363286Y255286D01*
X363323Y255301D01*
X363419Y255370D01*
X363520Y255434D01*
X363548Y255464D01*
X363581Y255487D01*
X363657Y255579D01*
X363738Y255666D01*
X363758Y255701D01*
X363783Y255732D01*
X363834Y255840D01*
X363892Y255944D01*
X363902Y255984D01*
X363919Y256020D01*
X363941Y256137D01*
X363971Y256252D01*
X363975Y256312D01*
X363979Y256332D01*
X363977Y256353D01*
X363981Y256413D01*
X363981Y289785D01*
X363969Y289884D01*
X363966Y289983D01*
X363949Y290041D01*
X363941Y290101D01*
X363905Y290193D01*
X363877Y290288D01*
X363847Y290340D01*
X363824Y290397D01*
X363766Y290477D01*
X363716Y290562D01*
X363650Y290637D01*
X363638Y290654D01*
X363628Y290662D01*
X363610Y290683D01*
X287781Y366511D01*
X287781Y391385D01*
X287769Y391484D01*
X287766Y391583D01*
X287749Y391641D01*
X287741Y391701D01*
X287705Y391793D01*
X287677Y391888D01*
X287647Y391940D01*
X287624Y391997D01*
X287566Y392077D01*
X287516Y392162D01*
X287450Y392237D01*
X287438Y392254D01*
X287428Y392262D01*
X287410Y392283D01*
X277983Y401710D01*
X277905Y401770D01*
X277832Y401838D01*
X277779Y401867D01*
X277732Y401904D01*
X277641Y401944D01*
X277554Y401992D01*
X277495Y402007D01*
X277440Y402031D01*
X277342Y402046D01*
X277246Y402071D01*
X277146Y402077D01*
X277126Y402081D01*
X277113Y402079D01*
X277085Y402081D01*
X244993Y402081D01*
X244984Y402080D01*
X244975Y402081D01*
X244826Y402060D01*
X244678Y402041D01*
X244669Y402038D01*
X244660Y402037D01*
X244508Y401985D01*
X242356Y401093D01*
X240244Y401093D01*
X238294Y401901D01*
X236801Y403394D01*
X235993Y405344D01*
X235993Y407456D01*
X236801Y409406D01*
X238294Y410899D01*
X240244Y411707D01*
X242356Y411707D01*
X244508Y410815D01*
X244517Y410813D01*
X244525Y410808D01*
X244670Y410771D01*
X244814Y410731D01*
X244824Y410731D01*
X244833Y410729D01*
X244993Y410719D01*
X281189Y410719D01*
X296419Y395489D01*
X296419Y370615D01*
X296431Y370516D01*
X296434Y370417D01*
X296451Y370359D01*
X296459Y370299D01*
X296495Y370207D01*
X296523Y370112D01*
X296553Y370060D01*
X296576Y370003D01*
X296634Y369923D01*
X296684Y369838D01*
X296750Y369763D01*
X296762Y369746D01*
X296772Y369738D01*
X296790Y369717D01*
X372619Y293889D01*
X372619Y256413D01*
X372634Y256295D01*
X372641Y256176D01*
X372654Y256138D01*
X372659Y256097D01*
X372702Y255987D01*
X372739Y255874D01*
X372761Y255839D01*
X372776Y255802D01*
X372845Y255706D01*
X372909Y255605D01*
X372939Y255577D01*
X372962Y255544D01*
X373054Y255468D01*
X373141Y255387D01*
X373176Y255367D01*
X373207Y255342D01*
X373315Y255291D01*
X373419Y255233D01*
X373459Y255223D01*
X373495Y255206D01*
X373612Y255184D01*
X373727Y255154D01*
X373787Y255150D01*
X373807Y255146D01*
X373828Y255148D01*
X373888Y255144D01*
X374034Y255144D01*
X380102Y249075D01*
X380197Y249002D01*
X380286Y248924D01*
X380322Y248905D01*
X380354Y248881D01*
X380463Y248833D01*
X380569Y248779D01*
X380608Y248770D01*
X380646Y248754D01*
X380763Y248735D01*
X380879Y248709D01*
X380920Y248711D01*
X380960Y248704D01*
X381078Y248715D01*
X381197Y248719D01*
X381236Y248730D01*
X381276Y248734D01*
X381389Y248774D01*
X381503Y248808D01*
X381537Y248828D01*
X381576Y248842D01*
X381674Y248909D01*
X381777Y248969D01*
X381822Y249009D01*
X381839Y249020D01*
X381852Y249036D01*
X381897Y249075D01*
X387966Y255144D01*
X388112Y255144D01*
X388230Y255159D01*
X388349Y255166D01*
X388387Y255179D01*
X388428Y255184D01*
X388538Y255227D01*
X388651Y255264D01*
X388686Y255286D01*
X388723Y255301D01*
X388819Y255370D01*
X388920Y255434D01*
X388948Y255464D01*
X388981Y255487D01*
X389057Y255579D01*
X389138Y255666D01*
X389158Y255701D01*
X389183Y255732D01*
X389234Y255840D01*
X389292Y255944D01*
X389302Y255984D01*
X389319Y256020D01*
X389341Y256137D01*
X389371Y256252D01*
X389375Y256312D01*
X389379Y256332D01*
X389377Y256353D01*
X389381Y256413D01*
X389381Y351907D01*
X389380Y351916D01*
X389381Y351925D01*
X389360Y352074D01*
X389341Y352222D01*
X389338Y352231D01*
X389337Y352240D01*
X389285Y352392D01*
X388393Y354544D01*
X388393Y356656D01*
X389201Y358606D01*
X390694Y360099D01*
X392644Y360907D01*
X394756Y360907D01*
X396706Y360099D01*
X398199Y358606D01*
X399007Y356656D01*
X399007Y354544D01*
X398115Y352392D01*
X398113Y352383D01*
X398108Y352375D01*
X398071Y352230D01*
X398031Y352086D01*
X398031Y352076D01*
X398029Y352067D01*
X398019Y351907D01*
X398019Y256413D01*
X398034Y256295D01*
X398041Y256176D01*
X398054Y256138D01*
X398059Y256097D01*
X398102Y255987D01*
X398139Y255874D01*
X398161Y255839D01*
X398176Y255802D01*
X398245Y255706D01*
X398309Y255605D01*
X398339Y255577D01*
X398362Y255544D01*
X398454Y255468D01*
X398541Y255387D01*
X398576Y255367D01*
X398607Y255342D01*
X398715Y255291D01*
X398819Y255233D01*
X398859Y255223D01*
X398895Y255206D01*
X399012Y255184D01*
X399127Y255154D01*
X399187Y255150D01*
X399207Y255146D01*
X399228Y255148D01*
X399288Y255144D01*
X399434Y255144D01*
X407544Y247034D01*
X407544Y235566D01*
X399434Y227456D01*
X387966Y227456D01*
X381897Y233525D01*
X381803Y233598D01*
X381714Y233676D01*
X381678Y233695D01*
X381646Y233719D01*
X381537Y233767D01*
X381431Y233821D01*
X381392Y233830D01*
X381354Y233846D01*
X381237Y233865D01*
X381121Y233891D01*
X381080Y233889D01*
X381040Y233896D01*
X380922Y233885D01*
X380803Y233881D01*
X380764Y233870D01*
X380724Y233866D01*
X380611Y233826D01*
X380497Y233792D01*
X380462Y233772D01*
X380424Y233758D01*
X380326Y233691D01*
X380223Y233631D01*
X380178Y233591D01*
X380161Y233580D01*
X380148Y233564D01*
X380102Y233525D01*
X374034Y227456D01*
X362566Y227456D01*
G37*
%LPD*%
%LPC*%
G36*
X125211Y351281D02*
X125211Y351281D01*
X109981Y366511D01*
X109981Y624089D01*
X112883Y626990D01*
X121335Y635442D01*
X121340Y635450D01*
X121348Y635455D01*
X121438Y635575D01*
X121530Y635694D01*
X121533Y635702D01*
X121539Y635710D01*
X121610Y635854D01*
X122501Y638006D01*
X123994Y639499D01*
X125944Y640307D01*
X128056Y640307D01*
X130006Y639499D01*
X131499Y638006D01*
X132307Y636056D01*
X132307Y633944D01*
X131499Y631994D01*
X130006Y630501D01*
X127854Y629610D01*
X127846Y629605D01*
X127837Y629603D01*
X127709Y629527D01*
X127578Y629452D01*
X127571Y629446D01*
X127563Y629441D01*
X127442Y629335D01*
X118990Y620883D01*
X118930Y620805D01*
X118862Y620732D01*
X118833Y620679D01*
X118796Y620632D01*
X118756Y620541D01*
X118708Y620454D01*
X118693Y620395D01*
X118669Y620340D01*
X118654Y620242D01*
X118629Y620146D01*
X118623Y620046D01*
X118619Y620026D01*
X118621Y620013D01*
X118619Y619985D01*
X118619Y370615D01*
X118631Y370516D01*
X118634Y370417D01*
X118651Y370359D01*
X118659Y370299D01*
X118695Y370207D01*
X118723Y370112D01*
X118753Y370060D01*
X118776Y370003D01*
X118834Y369923D01*
X118884Y369838D01*
X118950Y369763D01*
X118962Y369746D01*
X118972Y369738D01*
X118990Y369717D01*
X128417Y360290D01*
X128495Y360230D01*
X128568Y360162D01*
X128621Y360133D01*
X128668Y360096D01*
X128759Y360056D01*
X128846Y360008D01*
X128905Y359993D01*
X128960Y359969D01*
X129058Y359954D01*
X129154Y359929D01*
X129254Y359923D01*
X129274Y359919D01*
X129287Y359921D01*
X129315Y359919D01*
X188185Y359919D01*
X188284Y359931D01*
X188383Y359934D01*
X188441Y359951D01*
X188501Y359959D01*
X188593Y359995D01*
X188688Y360023D01*
X188740Y360053D01*
X188797Y360076D01*
X188877Y360134D01*
X188962Y360184D01*
X189037Y360250D01*
X189054Y360262D01*
X189062Y360272D01*
X189083Y360290D01*
X201411Y372619D01*
X275707Y372619D01*
X275716Y372620D01*
X275725Y372619D01*
X275874Y372640D01*
X276022Y372659D01*
X276031Y372662D01*
X276040Y372663D01*
X276192Y372715D01*
X278344Y373607D01*
X280456Y373607D01*
X282406Y372799D01*
X283899Y371306D01*
X284707Y369356D01*
X284707Y367244D01*
X283899Y365294D01*
X282406Y363801D01*
X280456Y362993D01*
X278344Y362993D01*
X276192Y363885D01*
X276183Y363887D01*
X276175Y363892D01*
X276030Y363929D01*
X275886Y363969D01*
X275876Y363969D01*
X275867Y363971D01*
X275707Y363981D01*
X205515Y363981D01*
X205416Y363969D01*
X205317Y363966D01*
X205259Y363949D01*
X205199Y363941D01*
X205107Y363905D01*
X205012Y363877D01*
X204960Y363847D01*
X204903Y363824D01*
X204823Y363766D01*
X204738Y363716D01*
X204663Y363650D01*
X204646Y363638D01*
X204638Y363628D01*
X204617Y363610D01*
X192289Y351281D01*
X125211Y351281D01*
G37*
%LPD*%
%LPC*%
G36*
X162902Y712850D02*
X162902Y712850D01*
X158841Y714532D01*
X155732Y717641D01*
X154050Y721702D01*
X154050Y726098D01*
X155732Y730159D01*
X158841Y733268D01*
X162902Y734950D01*
X167298Y734950D01*
X168455Y734471D01*
X168483Y734463D01*
X168510Y734449D01*
X168636Y734421D01*
X168762Y734387D01*
X168791Y734386D01*
X168820Y734380D01*
X168950Y734384D01*
X169080Y734382D01*
X169108Y734388D01*
X169138Y734389D01*
X169262Y734425D01*
X169389Y734456D01*
X169415Y734470D01*
X169443Y734478D01*
X169555Y734544D01*
X169670Y734604D01*
X169692Y734624D01*
X169717Y734639D01*
X169838Y734746D01*
X209031Y773939D01*
X382507Y773939D01*
X382511Y773939D01*
X382514Y773939D01*
X382667Y773959D01*
X382822Y773979D01*
X382826Y773980D01*
X382830Y773981D01*
X382972Y774038D01*
X383118Y774096D01*
X383121Y774098D01*
X383125Y774099D01*
X383249Y774191D01*
X383375Y774282D01*
X383378Y774285D01*
X383381Y774288D01*
X383479Y774408D01*
X383578Y774527D01*
X383580Y774531D01*
X383582Y774534D01*
X383659Y774675D01*
X388789Y785775D01*
X388800Y785809D01*
X388816Y785839D01*
X388847Y785960D01*
X388885Y786078D01*
X388887Y786113D01*
X388896Y786147D01*
X388906Y786308D01*
X388906Y788272D01*
X389714Y790223D01*
X391207Y791715D01*
X393157Y792523D01*
X395268Y792523D01*
X397219Y791715D01*
X398712Y790223D01*
X399520Y788272D01*
X399520Y786161D01*
X398712Y784211D01*
X397202Y782701D01*
X397140Y782676D01*
X397071Y782625D01*
X396996Y782582D01*
X396943Y782531D01*
X396884Y782487D01*
X396829Y782421D01*
X396767Y782361D01*
X396729Y782298D01*
X396682Y782241D01*
X396606Y782100D01*
X390516Y768924D01*
X390505Y768890D01*
X390488Y768860D01*
X390457Y768739D01*
X390420Y768620D01*
X390418Y768586D01*
X390409Y768552D01*
X390399Y768391D01*
X390399Y767831D01*
X389837Y767270D01*
X389750Y767156D01*
X389659Y767046D01*
X389649Y767027D01*
X389643Y767019D01*
X389635Y767001D01*
X389583Y766905D01*
X389250Y766184D01*
X388724Y765991D01*
X388693Y765975D01*
X388660Y765965D01*
X388552Y765902D01*
X388442Y765845D01*
X388416Y765821D01*
X388386Y765804D01*
X388265Y765697D01*
X387869Y765301D01*
X387075Y765301D01*
X386934Y765283D01*
X386791Y765269D01*
X386770Y765263D01*
X386760Y765261D01*
X386742Y765255D01*
X386637Y765223D01*
X385892Y764949D01*
X385384Y765184D01*
X385350Y765195D01*
X385320Y765212D01*
X385199Y765243D01*
X385080Y765280D01*
X385046Y765282D01*
X385012Y765291D01*
X384851Y765301D01*
X213135Y765301D01*
X213036Y765289D01*
X212937Y765286D01*
X212879Y765269D01*
X212819Y765261D01*
X212727Y765225D01*
X212632Y765197D01*
X212580Y765167D01*
X212523Y765144D01*
X212443Y765086D01*
X212358Y765036D01*
X212283Y764970D01*
X212266Y764958D01*
X212258Y764948D01*
X212237Y764930D01*
X175946Y728638D01*
X175928Y728615D01*
X175905Y728596D01*
X175830Y728489D01*
X175751Y728387D01*
X175739Y728360D01*
X175722Y728336D01*
X175676Y728214D01*
X175624Y728095D01*
X175620Y728066D01*
X175609Y728038D01*
X175595Y727909D01*
X175575Y727781D01*
X175577Y727751D01*
X175574Y727722D01*
X175592Y727594D01*
X175604Y727464D01*
X175614Y727436D01*
X175618Y727407D01*
X175671Y727255D01*
X176150Y726098D01*
X176150Y721702D01*
X174468Y717641D01*
X171359Y714532D01*
X167298Y712850D01*
X162902Y712850D01*
G37*
%LPD*%
%LPC*%
G36*
X456144Y362993D02*
X456144Y362993D01*
X454194Y363801D01*
X452701Y365294D01*
X451810Y367446D01*
X451805Y367454D01*
X451803Y367463D01*
X451796Y367474D01*
X451794Y367480D01*
X451770Y367519D01*
X451726Y367592D01*
X451652Y367722D01*
X451646Y367729D01*
X451641Y367737D01*
X451535Y367858D01*
X414781Y404611D01*
X414781Y517007D01*
X414780Y517016D01*
X414781Y517025D01*
X414760Y517174D01*
X414741Y517322D01*
X414738Y517331D01*
X414737Y517340D01*
X414685Y517492D01*
X413793Y519644D01*
X413793Y521756D01*
X414601Y523706D01*
X416094Y525199D01*
X418044Y526007D01*
X420156Y526007D01*
X422106Y525199D01*
X423599Y523706D01*
X424407Y521756D01*
X424407Y519644D01*
X423515Y517492D01*
X423513Y517483D01*
X423508Y517475D01*
X423471Y517330D01*
X423431Y517186D01*
X423431Y517176D01*
X423429Y517167D01*
X423419Y517007D01*
X423419Y408715D01*
X423431Y408616D01*
X423434Y408517D01*
X423451Y408459D01*
X423459Y408399D01*
X423495Y408307D01*
X423523Y408212D01*
X423553Y408160D01*
X423576Y408103D01*
X423634Y408023D01*
X423684Y407938D01*
X423750Y407863D01*
X423762Y407846D01*
X423772Y407838D01*
X423790Y407817D01*
X457642Y373965D01*
X457650Y373960D01*
X457655Y373952D01*
X457775Y373862D01*
X457894Y373770D01*
X457902Y373767D01*
X457910Y373761D01*
X458054Y373690D01*
X460206Y372799D01*
X461699Y371306D01*
X462377Y369668D01*
X462446Y369547D01*
X462511Y369424D01*
X462525Y369409D01*
X462535Y369392D01*
X462632Y369291D01*
X462725Y369189D01*
X462742Y369178D01*
X462756Y369163D01*
X462875Y369090D01*
X462991Y369014D01*
X463010Y369008D01*
X463027Y368997D01*
X463160Y368956D01*
X463292Y368911D01*
X463312Y368909D01*
X463331Y368903D01*
X463470Y368897D01*
X463609Y368886D01*
X463629Y368889D01*
X463649Y368888D01*
X463785Y368916D01*
X463922Y368940D01*
X463941Y368948D01*
X463960Y368953D01*
X464086Y369014D01*
X464212Y369071D01*
X464228Y369083D01*
X464246Y369092D01*
X464352Y369183D01*
X464460Y369269D01*
X464473Y369285D01*
X464488Y369299D01*
X464568Y369412D01*
X464652Y369523D01*
X464664Y369549D01*
X464671Y369559D01*
X464678Y369578D01*
X464723Y369668D01*
X465485Y371508D01*
X465487Y371517D01*
X465492Y371525D01*
X465516Y371618D01*
X465519Y371625D01*
X465523Y371647D01*
X465529Y371669D01*
X465569Y371814D01*
X465569Y371824D01*
X465571Y371833D01*
X465577Y371929D01*
X465579Y371937D01*
X465578Y371945D01*
X465581Y371993D01*
X465581Y466207D01*
X465580Y466216D01*
X465581Y466225D01*
X465560Y466374D01*
X465541Y466522D01*
X465538Y466531D01*
X465537Y466540D01*
X465485Y466692D01*
X464593Y468844D01*
X464593Y470956D01*
X465401Y472906D01*
X466894Y474399D01*
X468844Y475207D01*
X470956Y475207D01*
X472906Y474399D01*
X474399Y472906D01*
X475207Y470956D01*
X475207Y468844D01*
X474315Y466692D01*
X474313Y466683D01*
X474308Y466675D01*
X474271Y466530D01*
X474231Y466386D01*
X474231Y466376D01*
X474229Y466367D01*
X474219Y466207D01*
X474219Y371993D01*
X474220Y371984D01*
X474219Y371975D01*
X474237Y371847D01*
X474241Y371781D01*
X474248Y371758D01*
X474259Y371678D01*
X474262Y371669D01*
X474263Y371660D01*
X474315Y371508D01*
X475207Y369356D01*
X475207Y367244D01*
X474399Y365294D01*
X472906Y363801D01*
X470956Y362993D01*
X468844Y362993D01*
X466894Y363801D01*
X465401Y365294D01*
X464723Y366932D01*
X464654Y367053D01*
X464589Y367176D01*
X464575Y367191D01*
X464565Y367208D01*
X464468Y367308D01*
X464375Y367411D01*
X464358Y367422D01*
X464344Y367437D01*
X464226Y367509D01*
X464109Y367586D01*
X464090Y367592D01*
X464073Y367603D01*
X463940Y367644D01*
X463808Y367689D01*
X463788Y367691D01*
X463769Y367697D01*
X463630Y367703D01*
X463491Y367714D01*
X463471Y367711D01*
X463451Y367712D01*
X463315Y367684D01*
X463178Y367660D01*
X463159Y367652D01*
X463140Y367647D01*
X463015Y367586D01*
X462888Y367529D01*
X462872Y367517D01*
X462854Y367508D01*
X462748Y367418D01*
X462640Y367331D01*
X462627Y367315D01*
X462612Y367301D01*
X462532Y367188D01*
X462448Y367077D01*
X462436Y367051D01*
X462429Y367041D01*
X462422Y367022D01*
X462377Y366932D01*
X461699Y365294D01*
X460206Y363801D01*
X458256Y362993D01*
X456144Y362993D01*
G37*
%LPD*%
%LPC*%
G36*
X138870Y362993D02*
X138870Y362993D01*
X136920Y363801D01*
X135427Y365294D01*
X134619Y367244D01*
X134619Y369356D01*
X135511Y371508D01*
X135513Y371517D01*
X135518Y371525D01*
X135542Y371618D01*
X135545Y371625D01*
X135549Y371647D01*
X135555Y371670D01*
X135595Y371814D01*
X135595Y371824D01*
X135597Y371833D01*
X135603Y371929D01*
X135605Y371937D01*
X135604Y371945D01*
X135607Y371993D01*
X135607Y432545D01*
X138509Y435446D01*
X186105Y483042D01*
X186110Y483050D01*
X186118Y483055D01*
X186208Y483175D01*
X186300Y483294D01*
X186303Y483302D01*
X186309Y483310D01*
X186380Y483454D01*
X187271Y485606D01*
X188764Y487099D01*
X190714Y487907D01*
X192826Y487907D01*
X194776Y487099D01*
X196269Y485606D01*
X197077Y483656D01*
X197077Y481544D01*
X196269Y479594D01*
X194776Y478101D01*
X192624Y477210D01*
X192616Y477205D01*
X192607Y477203D01*
X192478Y477126D01*
X192348Y477052D01*
X192341Y477046D01*
X192333Y477041D01*
X192212Y476935D01*
X144616Y429339D01*
X144556Y429261D01*
X144488Y429188D01*
X144459Y429135D01*
X144422Y429088D01*
X144382Y428997D01*
X144334Y428910D01*
X144319Y428851D01*
X144295Y428796D01*
X144280Y428698D01*
X144255Y428602D01*
X144249Y428502D01*
X144245Y428482D01*
X144247Y428469D01*
X144245Y428441D01*
X144245Y371993D01*
X144246Y371984D01*
X144245Y371975D01*
X144263Y371847D01*
X144267Y371781D01*
X144274Y371758D01*
X144285Y371678D01*
X144288Y371669D01*
X144289Y371660D01*
X144341Y371508D01*
X144990Y369941D01*
X145059Y369820D01*
X145124Y369697D01*
X145138Y369682D01*
X145148Y369664D01*
X145245Y369564D01*
X145338Y369462D01*
X145355Y369451D01*
X145369Y369436D01*
X145488Y369363D01*
X145604Y369287D01*
X145623Y369280D01*
X145640Y369270D01*
X145773Y369229D01*
X145905Y369184D01*
X145925Y369182D01*
X145944Y369176D01*
X146084Y369169D01*
X146222Y369159D01*
X146242Y369162D01*
X146262Y369161D01*
X146398Y369189D01*
X146535Y369213D01*
X146554Y369221D01*
X146573Y369225D01*
X146698Y369286D01*
X146825Y369343D01*
X146841Y369356D01*
X146859Y369365D01*
X146965Y369455D01*
X147073Y369542D01*
X147086Y369558D01*
X147101Y369571D01*
X147181Y369685D01*
X147265Y369796D01*
X147277Y369821D01*
X147284Y369831D01*
X147291Y369851D01*
X147336Y369941D01*
X147901Y371306D01*
X149394Y372799D01*
X151546Y373690D01*
X151554Y373695D01*
X151563Y373697D01*
X151692Y373774D01*
X151822Y373848D01*
X151829Y373854D01*
X151837Y373859D01*
X151958Y373965D01*
X211210Y433217D01*
X211270Y433295D01*
X211338Y433368D01*
X211367Y433421D01*
X211404Y433468D01*
X211444Y433559D01*
X211492Y433646D01*
X211507Y433705D01*
X211531Y433760D01*
X211546Y433858D01*
X211571Y433954D01*
X211577Y434054D01*
X211581Y434074D01*
X211579Y434087D01*
X211581Y434115D01*
X211581Y453507D01*
X211580Y453516D01*
X211581Y453525D01*
X211560Y453674D01*
X211541Y453822D01*
X211538Y453831D01*
X211537Y453840D01*
X211485Y453992D01*
X210593Y456144D01*
X210593Y458256D01*
X211401Y460206D01*
X212894Y461699D01*
X214844Y462507D01*
X216956Y462507D01*
X218906Y461699D01*
X220399Y460206D01*
X221207Y458256D01*
X221207Y456144D01*
X220315Y453992D01*
X220313Y453983D01*
X220308Y453975D01*
X220271Y453830D01*
X220231Y453686D01*
X220231Y453676D01*
X220229Y453667D01*
X220219Y453507D01*
X220219Y430011D01*
X158065Y367858D01*
X158060Y367850D01*
X158052Y367845D01*
X157962Y367725D01*
X157870Y367606D01*
X157867Y367598D01*
X157861Y367590D01*
X157790Y367446D01*
X156899Y365294D01*
X155406Y363801D01*
X153456Y362993D01*
X151344Y362993D01*
X149394Y363801D01*
X147901Y365294D01*
X147336Y366659D01*
X147267Y366780D01*
X147202Y366903D01*
X147188Y366918D01*
X147178Y366936D01*
X147082Y367035D01*
X146988Y367138D01*
X146971Y367149D01*
X146957Y367164D01*
X146838Y367237D01*
X146722Y367313D01*
X146703Y367320D01*
X146686Y367330D01*
X146553Y367371D01*
X146421Y367416D01*
X146401Y367418D01*
X146382Y367424D01*
X146243Y367430D01*
X146104Y367442D01*
X146084Y367438D01*
X146064Y367439D01*
X145928Y367411D01*
X145791Y367387D01*
X145772Y367379D01*
X145753Y367375D01*
X145628Y367314D01*
X145501Y367257D01*
X145485Y367244D01*
X145467Y367235D01*
X145361Y367145D01*
X145253Y367058D01*
X145240Y367042D01*
X145225Y367029D01*
X145145Y366915D01*
X145061Y366804D01*
X145049Y366779D01*
X145042Y366769D01*
X145035Y366750D01*
X144990Y366659D01*
X144425Y365294D01*
X142932Y363801D01*
X140982Y362993D01*
X138870Y362993D01*
G37*
%LPD*%
%LPC*%
G36*
X519644Y362993D02*
X519644Y362993D01*
X517694Y363801D01*
X516201Y365294D01*
X515310Y367446D01*
X515305Y367454D01*
X515303Y367463D01*
X515296Y367474D01*
X515294Y367480D01*
X515270Y367519D01*
X515226Y367592D01*
X515152Y367722D01*
X515146Y367729D01*
X515141Y367737D01*
X515035Y367858D01*
X490981Y391911D01*
X490981Y466207D01*
X490980Y466216D01*
X490981Y466225D01*
X490960Y466374D01*
X490941Y466522D01*
X490938Y466531D01*
X490937Y466540D01*
X490885Y466692D01*
X489993Y468844D01*
X489993Y470956D01*
X490801Y472906D01*
X492294Y474399D01*
X494244Y475207D01*
X496356Y475207D01*
X498306Y474399D01*
X499799Y472906D01*
X500607Y470956D01*
X500607Y468844D01*
X499715Y466692D01*
X499713Y466683D01*
X499708Y466675D01*
X499671Y466530D01*
X499631Y466386D01*
X499631Y466376D01*
X499629Y466367D01*
X499619Y466207D01*
X499619Y396015D01*
X499631Y395916D01*
X499634Y395817D01*
X499651Y395759D01*
X499659Y395699D01*
X499695Y395607D01*
X499723Y395512D01*
X499753Y395460D01*
X499776Y395403D01*
X499834Y395323D01*
X499884Y395238D01*
X499950Y395163D01*
X499962Y395146D01*
X499972Y395138D01*
X499990Y395117D01*
X514215Y380893D01*
X514324Y380808D01*
X514431Y380719D01*
X514450Y380711D01*
X514466Y380698D01*
X514594Y380643D01*
X514719Y380584D01*
X514739Y380580D01*
X514758Y380572D01*
X514896Y380550D01*
X515032Y380524D01*
X515052Y380525D01*
X515072Y380522D01*
X515211Y380535D01*
X515349Y380544D01*
X515368Y380550D01*
X515388Y380552D01*
X515520Y380599D01*
X515651Y380642D01*
X515669Y380652D01*
X515688Y380659D01*
X515803Y380737D01*
X515920Y380812D01*
X515934Y380827D01*
X515951Y380838D01*
X516043Y380942D01*
X516138Y381043D01*
X516148Y381061D01*
X516161Y381076D01*
X516225Y381200D01*
X516292Y381322D01*
X516297Y381342D01*
X516306Y381360D01*
X516336Y381495D01*
X516371Y381630D01*
X516373Y381658D01*
X516376Y381670D01*
X516375Y381690D01*
X516381Y381791D01*
X516381Y466207D01*
X516380Y466216D01*
X516381Y466225D01*
X516360Y466374D01*
X516341Y466522D01*
X516338Y466531D01*
X516337Y466540D01*
X516285Y466692D01*
X515393Y468844D01*
X515393Y470956D01*
X516201Y472906D01*
X517694Y474399D01*
X519644Y475207D01*
X521756Y475207D01*
X523706Y474399D01*
X525199Y472906D01*
X526007Y470956D01*
X526007Y468844D01*
X525115Y466692D01*
X525113Y466683D01*
X525108Y466675D01*
X525071Y466530D01*
X525031Y466386D01*
X525031Y466376D01*
X525029Y466367D01*
X525019Y466207D01*
X525019Y383315D01*
X525031Y383216D01*
X525034Y383117D01*
X525051Y383059D01*
X525059Y382999D01*
X525095Y382907D01*
X525123Y382812D01*
X525153Y382760D01*
X525176Y382703D01*
X525234Y382623D01*
X525284Y382538D01*
X525350Y382463D01*
X525362Y382446D01*
X525372Y382438D01*
X525390Y382417D01*
X533842Y373965D01*
X533850Y373960D01*
X533855Y373952D01*
X533975Y373862D01*
X534094Y373770D01*
X534102Y373767D01*
X534110Y373761D01*
X534254Y373690D01*
X536406Y372799D01*
X537899Y371306D01*
X538707Y369356D01*
X538707Y367244D01*
X537899Y365294D01*
X536406Y363801D01*
X534456Y362993D01*
X532344Y362993D01*
X530394Y363801D01*
X528901Y365294D01*
X528223Y366932D01*
X528154Y367053D01*
X528089Y367176D01*
X528075Y367191D01*
X528065Y367208D01*
X527968Y367309D01*
X527875Y367411D01*
X527858Y367422D01*
X527844Y367437D01*
X527725Y367510D01*
X527609Y367586D01*
X527590Y367592D01*
X527573Y367603D01*
X527440Y367644D01*
X527308Y367689D01*
X527288Y367691D01*
X527269Y367697D01*
X527130Y367703D01*
X526991Y367714D01*
X526971Y367711D01*
X526951Y367712D01*
X526815Y367684D01*
X526678Y367660D01*
X526659Y367652D01*
X526640Y367647D01*
X526514Y367586D01*
X526388Y367529D01*
X526372Y367517D01*
X526354Y367508D01*
X526248Y367417D01*
X526140Y367331D01*
X526127Y367315D01*
X526112Y367301D01*
X526032Y367188D01*
X525948Y367077D01*
X525936Y367051D01*
X525929Y367041D01*
X525922Y367022D01*
X525877Y366932D01*
X525199Y365294D01*
X523706Y363801D01*
X521756Y362993D01*
X519644Y362993D01*
G37*
%LPD*%
%LPC*%
G36*
X265644Y274093D02*
X265644Y274093D01*
X265332Y274223D01*
X265323Y274225D01*
X265315Y274230D01*
X265170Y274267D01*
X265025Y274307D01*
X265016Y274307D01*
X265007Y274309D01*
X264846Y274319D01*
X138689Y274319D01*
X136822Y275093D01*
X109993Y301922D01*
X109219Y303789D01*
X109219Y315646D01*
X109218Y315656D01*
X109219Y315665D01*
X109198Y315814D01*
X109179Y315962D01*
X109176Y315971D01*
X109175Y315980D01*
X109123Y316132D01*
X108993Y316444D01*
X108993Y318556D01*
X109801Y320506D01*
X111294Y321999D01*
X113244Y322807D01*
X115356Y322807D01*
X117306Y321999D01*
X118799Y320506D01*
X119607Y318556D01*
X119607Y316444D01*
X119477Y316132D01*
X119475Y316123D01*
X119470Y316115D01*
X119433Y315970D01*
X119393Y315825D01*
X119393Y315816D01*
X119391Y315807D01*
X119381Y315646D01*
X119381Y307430D01*
X119393Y307332D01*
X119396Y307233D01*
X119413Y307175D01*
X119421Y307115D01*
X119457Y307023D01*
X119485Y306928D01*
X119515Y306875D01*
X119538Y306819D01*
X119596Y306739D01*
X119646Y306654D01*
X119712Y306578D01*
X119724Y306562D01*
X119734Y306554D01*
X119752Y306533D01*
X141433Y284852D01*
X141511Y284792D01*
X141583Y284724D01*
X141636Y284695D01*
X141684Y284658D01*
X141775Y284618D01*
X141862Y284570D01*
X141920Y284555D01*
X141976Y284531D01*
X142074Y284516D01*
X142170Y284491D01*
X142270Y284485D01*
X142290Y284481D01*
X142302Y284483D01*
X142330Y284481D01*
X264846Y284481D01*
X264856Y284482D01*
X264865Y284481D01*
X265014Y284502D01*
X265162Y284521D01*
X265171Y284524D01*
X265180Y284525D01*
X265332Y284577D01*
X265644Y284707D01*
X267756Y284707D01*
X269706Y283899D01*
X271199Y282406D01*
X272007Y280456D01*
X272007Y278344D01*
X271199Y276394D01*
X269706Y274901D01*
X267756Y274093D01*
X265644Y274093D01*
G37*
%LPD*%
%LPC*%
G36*
X541523Y606170D02*
X541523Y606170D01*
X535050Y612643D01*
X535050Y621797D01*
X541523Y628270D01*
X550516Y628270D01*
X550615Y628282D01*
X550714Y628285D01*
X550772Y628302D01*
X550832Y628310D01*
X550924Y628346D01*
X551019Y628374D01*
X551071Y628404D01*
X551128Y628427D01*
X551208Y628485D01*
X551293Y628535D01*
X551368Y628601D01*
X551385Y628613D01*
X551393Y628623D01*
X551414Y628641D01*
X554110Y631337D01*
X554170Y631415D01*
X554238Y631488D01*
X554267Y631541D01*
X554304Y631588D01*
X554344Y631679D01*
X554392Y631766D01*
X554407Y631825D01*
X554431Y631880D01*
X554446Y631978D01*
X554471Y632074D01*
X554477Y632174D01*
X554481Y632194D01*
X554479Y632207D01*
X554481Y632235D01*
X554481Y642470D01*
X554464Y642608D01*
X554451Y642747D01*
X554444Y642766D01*
X554441Y642786D01*
X554390Y642915D01*
X554343Y643046D01*
X554332Y643063D01*
X554324Y643082D01*
X554243Y643194D01*
X554165Y643309D01*
X554149Y643323D01*
X554138Y643339D01*
X554030Y643428D01*
X553926Y643520D01*
X553908Y643529D01*
X553893Y643542D01*
X553767Y643601D01*
X553643Y643664D01*
X553623Y643669D01*
X553605Y643677D01*
X553469Y643703D01*
X553333Y643734D01*
X553312Y643733D01*
X553293Y643737D01*
X553154Y643728D01*
X553015Y643724D01*
X552995Y643719D01*
X552975Y643717D01*
X552843Y643674D01*
X552709Y643636D01*
X552692Y643625D01*
X552673Y643619D01*
X552555Y643545D01*
X552435Y643474D01*
X552414Y643456D01*
X552404Y643449D01*
X552390Y643434D01*
X552371Y643417D01*
X548298Y641730D01*
X543902Y641730D01*
X539841Y643412D01*
X536732Y646521D01*
X535050Y650582D01*
X535050Y654978D01*
X536732Y659039D01*
X539841Y662148D01*
X543902Y663830D01*
X548298Y663830D01*
X552387Y662136D01*
X552424Y662107D01*
X552531Y662018D01*
X552550Y662010D01*
X552566Y661997D01*
X552694Y661942D01*
X552819Y661883D01*
X552839Y661879D01*
X552858Y661871D01*
X552995Y661849D01*
X553132Y661823D01*
X553152Y661824D01*
X553172Y661821D01*
X553310Y661834D01*
X553449Y661843D01*
X553468Y661849D01*
X553488Y661851D01*
X553620Y661898D01*
X553751Y661941D01*
X553768Y661952D01*
X553788Y661958D01*
X553903Y662037D01*
X554020Y662111D01*
X554034Y662126D01*
X554051Y662137D01*
X554143Y662241D01*
X554238Y662343D01*
X554248Y662360D01*
X554261Y662375D01*
X554324Y662499D01*
X554392Y662621D01*
X554397Y662640D01*
X554406Y662659D01*
X554436Y662795D01*
X554471Y662929D01*
X554473Y662957D01*
X554476Y662969D01*
X554475Y662989D01*
X554481Y663090D01*
X554481Y670785D01*
X554469Y670884D01*
X554466Y670983D01*
X554449Y671041D01*
X554441Y671101D01*
X554405Y671193D01*
X554377Y671288D01*
X554347Y671340D01*
X554324Y671397D01*
X554266Y671477D01*
X554216Y671562D01*
X554150Y671637D01*
X554138Y671654D01*
X554128Y671662D01*
X554110Y671683D01*
X541781Y684011D01*
X541781Y707507D01*
X541780Y707516D01*
X541781Y707525D01*
X541760Y707674D01*
X541741Y707822D01*
X541738Y707831D01*
X541737Y707840D01*
X541685Y707992D01*
X540793Y710144D01*
X540793Y712256D01*
X541601Y714206D01*
X543094Y715699D01*
X545044Y716507D01*
X547156Y716507D01*
X549106Y715699D01*
X550599Y714206D01*
X551407Y712256D01*
X551407Y710144D01*
X550515Y707992D01*
X550513Y707983D01*
X550508Y707975D01*
X550471Y707830D01*
X550431Y707686D01*
X550431Y707676D01*
X550429Y707667D01*
X550419Y707507D01*
X550419Y688115D01*
X550431Y688016D01*
X550434Y687917D01*
X550451Y687859D01*
X550459Y687799D01*
X550495Y687707D01*
X550523Y687612D01*
X550553Y687560D01*
X550576Y687503D01*
X550634Y687423D01*
X550684Y687338D01*
X550750Y687263D01*
X550762Y687246D01*
X550772Y687238D01*
X550790Y687217D01*
X563119Y674889D01*
X563119Y628131D01*
X557521Y622534D01*
X557461Y622456D01*
X557393Y622383D01*
X557364Y622330D01*
X557327Y622283D01*
X557287Y622192D01*
X557239Y622105D01*
X557224Y622046D01*
X557200Y621991D01*
X557185Y621893D01*
X557160Y621797D01*
X557154Y621697D01*
X557150Y621677D01*
X557152Y621664D01*
X557150Y621636D01*
X557150Y612643D01*
X550677Y606170D01*
X541523Y606170D01*
G37*
%LPD*%
%LPC*%
G36*
X336356Y673291D02*
X336356Y673291D01*
X328958Y676356D01*
X323296Y682018D01*
X320231Y689416D01*
X320231Y697424D01*
X323296Y704822D01*
X328958Y710484D01*
X336356Y713549D01*
X344364Y713549D01*
X351762Y710484D01*
X357424Y704822D01*
X360489Y697424D01*
X360489Y689416D01*
X357424Y682018D01*
X351762Y676356D01*
X344364Y673291D01*
X336356Y673291D01*
G37*
%LPD*%
%LPC*%
G36*
X239756Y721591D02*
X239756Y721591D01*
X232358Y724656D01*
X226696Y730318D01*
X223631Y737716D01*
X223631Y745724D01*
X226696Y753122D01*
X232358Y758784D01*
X239756Y761849D01*
X247764Y761849D01*
X255162Y758784D01*
X260824Y753122D01*
X263889Y745724D01*
X263889Y737716D01*
X260824Y730318D01*
X255162Y724656D01*
X247764Y721591D01*
X239756Y721591D01*
G37*
%LPD*%
%LPC*%
G36*
X336356Y721591D02*
X336356Y721591D01*
X328958Y724656D01*
X323296Y730318D01*
X320231Y737716D01*
X320231Y745724D01*
X323296Y753122D01*
X328958Y758784D01*
X336356Y761849D01*
X344364Y761849D01*
X351762Y758784D01*
X357424Y753122D01*
X360489Y745724D01*
X360489Y737716D01*
X357424Y730318D01*
X351762Y724656D01*
X344364Y721591D01*
X336356Y721591D01*
G37*
%LPD*%
%LPC*%
G36*
X443444Y515393D02*
X443444Y515393D01*
X441494Y516201D01*
X440001Y517694D01*
X439193Y519644D01*
X439193Y521756D01*
X440085Y523908D01*
X440087Y523917D01*
X440092Y523925D01*
X440129Y524070D01*
X440169Y524214D01*
X440169Y524224D01*
X440171Y524233D01*
X440181Y524393D01*
X440181Y555394D01*
X440178Y555424D01*
X440180Y555453D01*
X440158Y555581D01*
X440141Y555710D01*
X440131Y555737D01*
X440126Y555767D01*
X440072Y555885D01*
X440024Y556006D01*
X440007Y556030D01*
X439995Y556057D01*
X439914Y556158D01*
X439838Y556263D01*
X439815Y556282D01*
X439796Y556305D01*
X439693Y556383D01*
X439593Y556466D01*
X439566Y556478D01*
X439542Y556496D01*
X439398Y556567D01*
X435579Y558149D01*
X431149Y562579D01*
X428751Y568367D01*
X428751Y574633D01*
X431149Y580421D01*
X435579Y584851D01*
X441367Y587249D01*
X447633Y587249D01*
X453421Y584851D01*
X457851Y580421D01*
X460249Y574633D01*
X460249Y568367D01*
X457851Y562579D01*
X453421Y558149D01*
X449602Y556567D01*
X449577Y556552D01*
X449549Y556543D01*
X449439Y556474D01*
X449326Y556410D01*
X449305Y556389D01*
X449280Y556373D01*
X449191Y556279D01*
X449098Y556188D01*
X449082Y556163D01*
X449062Y556142D01*
X448999Y556028D01*
X448931Y555917D01*
X448923Y555889D01*
X448908Y555863D01*
X448876Y555737D01*
X448838Y555613D01*
X448836Y555584D01*
X448829Y555555D01*
X448819Y555394D01*
X448819Y524393D01*
X448820Y524384D01*
X448819Y524375D01*
X448840Y524226D01*
X448859Y524078D01*
X448862Y524069D01*
X448863Y524060D01*
X448915Y523908D01*
X449807Y521756D01*
X449807Y519644D01*
X448999Y517694D01*
X447506Y516201D01*
X445556Y515393D01*
X443444Y515393D01*
G37*
%LPD*%
%LPC*%
G36*
X81494Y362993D02*
X81494Y362993D01*
X79544Y363801D01*
X78051Y365294D01*
X77243Y367244D01*
X77243Y369356D01*
X78135Y371508D01*
X78137Y371517D01*
X78142Y371525D01*
X78166Y371618D01*
X78169Y371625D01*
X78173Y371647D01*
X78179Y371670D01*
X78219Y371814D01*
X78219Y371824D01*
X78221Y371833D01*
X78227Y371929D01*
X78229Y371937D01*
X78228Y371945D01*
X78231Y371993D01*
X78231Y465339D01*
X81133Y468240D01*
X83235Y470342D01*
X83240Y470350D01*
X83248Y470355D01*
X83338Y470475D01*
X83430Y470594D01*
X83433Y470602D01*
X83439Y470610D01*
X83510Y470754D01*
X84401Y472906D01*
X85894Y474399D01*
X87844Y475207D01*
X89956Y475207D01*
X91906Y474399D01*
X93399Y472906D01*
X94207Y470956D01*
X94207Y468844D01*
X93399Y466894D01*
X91906Y465401D01*
X89754Y464510D01*
X89746Y464505D01*
X89737Y464503D01*
X89609Y464427D01*
X89478Y464352D01*
X89471Y464346D01*
X89463Y464341D01*
X89342Y464235D01*
X87240Y462133D01*
X87180Y462055D01*
X87112Y461982D01*
X87083Y461929D01*
X87046Y461882D01*
X87006Y461791D01*
X86958Y461704D01*
X86943Y461645D01*
X86919Y461590D01*
X86904Y461492D01*
X86879Y461396D01*
X86873Y461296D01*
X86869Y461276D01*
X86871Y461263D01*
X86869Y461235D01*
X86869Y371993D01*
X86870Y371984D01*
X86869Y371975D01*
X86887Y371847D01*
X86891Y371781D01*
X86898Y371758D01*
X86909Y371678D01*
X86912Y371669D01*
X86913Y371660D01*
X86965Y371508D01*
X87857Y369356D01*
X87857Y367244D01*
X87049Y365294D01*
X85556Y363801D01*
X83606Y362993D01*
X81494Y362993D01*
G37*
%LPD*%
%LPC*%
G36*
X125737Y822451D02*
X125737Y822451D01*
X123951Y824237D01*
X123951Y852163D01*
X125737Y853949D01*
X153663Y853949D01*
X155449Y852163D01*
X155449Y824237D01*
X153663Y822451D01*
X125737Y822451D01*
G37*
%LPD*%
%LPC*%
G36*
X532137Y822451D02*
X532137Y822451D01*
X530351Y824237D01*
X530351Y852163D01*
X532137Y853949D01*
X560063Y853949D01*
X561849Y852163D01*
X561849Y824237D01*
X560063Y822451D01*
X532137Y822451D01*
G37*
%LPD*%
%LPC*%
G36*
X49744Y362993D02*
X49744Y362993D01*
X47794Y363801D01*
X46301Y365294D01*
X45493Y367244D01*
X45493Y369356D01*
X46385Y371508D01*
X46387Y371517D01*
X46392Y371525D01*
X46416Y371618D01*
X46419Y371625D01*
X46423Y371647D01*
X46429Y371670D01*
X46469Y371814D01*
X46469Y371824D01*
X46471Y371833D01*
X46477Y371929D01*
X46479Y371937D01*
X46478Y371945D01*
X46481Y371993D01*
X46481Y466207D01*
X46480Y466216D01*
X46481Y466225D01*
X46460Y466374D01*
X46441Y466522D01*
X46438Y466531D01*
X46437Y466540D01*
X46385Y466692D01*
X45493Y468844D01*
X45493Y470956D01*
X46301Y472906D01*
X47794Y474399D01*
X49744Y475207D01*
X51856Y475207D01*
X53806Y474399D01*
X55299Y472906D01*
X56107Y470956D01*
X56107Y468844D01*
X55215Y466692D01*
X55213Y466683D01*
X55208Y466675D01*
X55171Y466530D01*
X55131Y466386D01*
X55131Y466376D01*
X55129Y466367D01*
X55119Y466207D01*
X55119Y371993D01*
X55120Y371984D01*
X55119Y371975D01*
X55137Y371847D01*
X55141Y371781D01*
X55148Y371758D01*
X55159Y371678D01*
X55162Y371669D01*
X55163Y371660D01*
X55215Y371508D01*
X56107Y369356D01*
X56107Y367244D01*
X55299Y365294D01*
X53806Y363801D01*
X51856Y362993D01*
X49744Y362993D01*
G37*
%LPD*%
%LPC*%
G36*
X34967Y822451D02*
X34967Y822451D01*
X29179Y824849D01*
X24749Y829279D01*
X22351Y835067D01*
X22351Y841333D01*
X24749Y847121D01*
X29179Y851551D01*
X34967Y853949D01*
X41233Y853949D01*
X47021Y851551D01*
X51451Y847121D01*
X53849Y841333D01*
X53849Y835067D01*
X51451Y829279D01*
X47021Y824849D01*
X41233Y822451D01*
X34967Y822451D01*
G37*
%LPD*%
%LPC*%
G36*
X85767Y822451D02*
X85767Y822451D01*
X79979Y824849D01*
X75549Y829279D01*
X73151Y835067D01*
X73151Y841333D01*
X75549Y847121D01*
X79979Y851551D01*
X85767Y853949D01*
X92033Y853949D01*
X97821Y851551D01*
X102251Y847121D01*
X104649Y841333D01*
X104649Y835067D01*
X102251Y829279D01*
X97821Y824849D01*
X92033Y822451D01*
X85767Y822451D01*
G37*
%LPD*%
%LPC*%
G36*
X492167Y822451D02*
X492167Y822451D01*
X486379Y824849D01*
X481949Y829279D01*
X479551Y835067D01*
X479551Y841333D01*
X481949Y847121D01*
X486379Y851551D01*
X492167Y853949D01*
X498433Y853949D01*
X504221Y851551D01*
X508651Y847121D01*
X511049Y841333D01*
X511049Y835067D01*
X508651Y829279D01*
X504221Y824849D01*
X498433Y822451D01*
X492167Y822451D01*
G37*
%LPD*%
%LPC*%
G36*
X492167Y555751D02*
X492167Y555751D01*
X486379Y558149D01*
X481949Y562579D01*
X479551Y568367D01*
X479551Y574633D01*
X481949Y580421D01*
X486379Y584851D01*
X492167Y587249D01*
X498433Y587249D01*
X504221Y584851D01*
X508651Y580421D01*
X511049Y574633D01*
X511049Y568367D01*
X508651Y562579D01*
X504221Y558149D01*
X498433Y555751D01*
X492167Y555751D01*
G37*
%LPD*%
%LPC*%
G36*
X184766Y824356D02*
X184766Y824356D01*
X176656Y832466D01*
X176656Y843934D01*
X184766Y852044D01*
X196234Y852044D01*
X204344Y843934D01*
X204344Y832466D01*
X196234Y824356D01*
X184766Y824356D01*
G37*
%LPD*%
%LPC*%
G36*
X264174Y609599D02*
X264174Y609599D01*
X259506Y611533D01*
X255933Y615106D01*
X253999Y619774D01*
X253999Y624826D01*
X255933Y629494D01*
X259506Y633067D01*
X264174Y635001D01*
X269226Y635001D01*
X273894Y633067D01*
X277467Y629494D01*
X279401Y624826D01*
X279401Y619774D01*
X277467Y615106D01*
X273894Y611533D01*
X269226Y609599D01*
X264174Y609599D01*
G37*
%LPD*%
%LPC*%
G36*
X548639Y574039D02*
X548639Y574039D01*
X548639Y586741D01*
X559134Y586741D01*
X559781Y586568D01*
X560360Y586233D01*
X560833Y585760D01*
X561168Y585181D01*
X561341Y584534D01*
X561341Y574039D01*
X548639Y574039D01*
G37*
%LPD*%
%LPC*%
G36*
X142239Y574039D02*
X142239Y574039D01*
X142239Y586741D01*
X152734Y586741D01*
X153381Y586568D01*
X153960Y586233D01*
X154433Y585760D01*
X154768Y585181D01*
X154941Y584534D01*
X154941Y574039D01*
X142239Y574039D01*
G37*
%LPD*%
%LPC*%
G36*
X530859Y574039D02*
X530859Y574039D01*
X530859Y584534D01*
X531032Y585181D01*
X531367Y585760D01*
X531840Y586233D01*
X532419Y586568D01*
X533066Y586741D01*
X543561Y586741D01*
X543561Y574039D01*
X530859Y574039D01*
G37*
%LPD*%
%LPC*%
G36*
X124459Y574039D02*
X124459Y574039D01*
X124459Y584534D01*
X124632Y585181D01*
X124967Y585760D01*
X125440Y586233D01*
X126019Y586568D01*
X126666Y586741D01*
X137161Y586741D01*
X137161Y574039D01*
X124459Y574039D01*
G37*
%LPD*%
%LPC*%
G36*
X548639Y556259D02*
X548639Y556259D01*
X548639Y568961D01*
X561341Y568961D01*
X561341Y558466D01*
X561168Y557819D01*
X560833Y557240D01*
X560360Y556767D01*
X559781Y556432D01*
X559134Y556259D01*
X548639Y556259D01*
G37*
%LPD*%
%LPC*%
G36*
X142239Y556259D02*
X142239Y556259D01*
X142239Y568961D01*
X154941Y568961D01*
X154941Y558466D01*
X154768Y557819D01*
X154433Y557240D01*
X153960Y556767D01*
X153381Y556432D01*
X152734Y556259D01*
X142239Y556259D01*
G37*
%LPD*%
%LPC*%
G36*
X533066Y556259D02*
X533066Y556259D01*
X532419Y556432D01*
X531840Y556767D01*
X531367Y557240D01*
X531032Y557819D01*
X530859Y558466D01*
X530859Y568961D01*
X543561Y568961D01*
X543561Y556259D01*
X533066Y556259D01*
G37*
%LPD*%
%LPC*%
G36*
X126666Y556259D02*
X126666Y556259D01*
X126019Y556432D01*
X125440Y556767D01*
X124967Y557240D01*
X124632Y557819D01*
X124459Y558466D01*
X124459Y568961D01*
X137161Y568961D01*
X137161Y556259D01*
X126666Y556259D01*
G37*
%LPD*%
%LPC*%
G36*
X396239Y840739D02*
X396239Y840739D01*
X396239Y851536D01*
X399224Y851536D01*
X407036Y843724D01*
X407036Y840739D01*
X396239Y840739D01*
G37*
%LPD*%
%LPC*%
G36*
X231139Y840739D02*
X231139Y840739D01*
X231139Y851536D01*
X234124Y851536D01*
X241936Y843724D01*
X241936Y840739D01*
X231139Y840739D01*
G37*
%LPD*%
%LPC*%
G36*
X358139Y840739D02*
X358139Y840739D01*
X358139Y851536D01*
X361124Y851536D01*
X368936Y843724D01*
X368936Y840739D01*
X358139Y840739D01*
G37*
%LPD*%
%LPC*%
G36*
X332739Y243839D02*
X332739Y243839D01*
X332739Y254636D01*
X335724Y254636D01*
X343536Y246824D01*
X343536Y243839D01*
X332739Y243839D01*
G37*
%LPD*%
%LPC*%
G36*
X215264Y840739D02*
X215264Y840739D01*
X215264Y843724D01*
X223076Y851536D01*
X226061Y851536D01*
X226061Y840739D01*
X215264Y840739D01*
G37*
%LPD*%
%LPC*%
G36*
X342264Y840739D02*
X342264Y840739D01*
X342264Y843724D01*
X350076Y851536D01*
X353061Y851536D01*
X353061Y840739D01*
X342264Y840739D01*
G37*
%LPD*%
%LPC*%
G36*
X380364Y840739D02*
X380364Y840739D01*
X380364Y843724D01*
X388176Y851536D01*
X391161Y851536D01*
X391161Y840739D01*
X380364Y840739D01*
G37*
%LPD*%
%LPC*%
G36*
X396239Y824864D02*
X396239Y824864D01*
X396239Y835661D01*
X407036Y835661D01*
X407036Y832676D01*
X399224Y824864D01*
X396239Y824864D01*
G37*
%LPD*%
%LPC*%
G36*
X231139Y824864D02*
X231139Y824864D01*
X231139Y835661D01*
X241936Y835661D01*
X241936Y832676D01*
X234124Y824864D01*
X231139Y824864D01*
G37*
%LPD*%
%LPC*%
G36*
X332739Y227964D02*
X332739Y227964D01*
X332739Y238761D01*
X343536Y238761D01*
X343536Y235776D01*
X335724Y227964D01*
X332739Y227964D01*
G37*
%LPD*%
%LPC*%
G36*
X358139Y824864D02*
X358139Y824864D01*
X358139Y835661D01*
X368936Y835661D01*
X368936Y832676D01*
X361124Y824864D01*
X358139Y824864D01*
G37*
%LPD*%
%LPC*%
G36*
X350076Y824864D02*
X350076Y824864D01*
X342264Y832676D01*
X342264Y835661D01*
X353061Y835661D01*
X353061Y824864D01*
X350076Y824864D01*
G37*
%LPD*%
%LPC*%
G36*
X388176Y824864D02*
X388176Y824864D01*
X380364Y832676D01*
X380364Y835661D01*
X391161Y835661D01*
X391161Y824864D01*
X388176Y824864D01*
G37*
%LPD*%
%LPC*%
G36*
X223076Y824864D02*
X223076Y824864D01*
X215264Y832676D01*
X215264Y835661D01*
X226061Y835661D01*
X226061Y824864D01*
X223076Y824864D01*
G37*
%LPD*%
%LPC*%
G36*
X52831Y637031D02*
X52831Y637031D01*
X52831Y645542D01*
X55167Y645542D01*
X61342Y639367D01*
X61342Y637031D01*
X52831Y637031D01*
G37*
%LPD*%
%LPC*%
G36*
X141731Y725931D02*
X141731Y725931D01*
X141731Y734442D01*
X144067Y734442D01*
X150242Y728267D01*
X150242Y725931D01*
X141731Y725931D01*
G37*
%LPD*%
%LPC*%
G36*
X141731Y789431D02*
X141731Y789431D01*
X141731Y797942D01*
X144067Y797942D01*
X150242Y791767D01*
X150242Y789431D01*
X141731Y789431D01*
G37*
%LPD*%
%LPC*%
G36*
X141731Y713358D02*
X141731Y713358D01*
X141731Y721869D01*
X150242Y721869D01*
X150242Y719533D01*
X144067Y713358D01*
X141731Y713358D01*
G37*
%LPD*%
%LPC*%
G36*
X129158Y725931D02*
X129158Y725931D01*
X129158Y728267D01*
X135333Y734442D01*
X137669Y734442D01*
X137669Y725931D01*
X129158Y725931D01*
G37*
%LPD*%
%LPC*%
G36*
X40258Y637031D02*
X40258Y637031D01*
X40258Y639367D01*
X46433Y645542D01*
X48769Y645542D01*
X48769Y637031D01*
X40258Y637031D01*
G37*
%LPD*%
%LPC*%
G36*
X129158Y789431D02*
X129158Y789431D01*
X129158Y791767D01*
X135333Y797942D01*
X137669Y797942D01*
X137669Y789431D01*
X129158Y789431D01*
G37*
%LPD*%
%LPC*%
G36*
X135333Y713358D02*
X135333Y713358D01*
X129158Y719533D01*
X129158Y721869D01*
X137669Y721869D01*
X137669Y713358D01*
X135333Y713358D01*
G37*
%LPD*%
%LPC*%
G36*
X135333Y776858D02*
X135333Y776858D01*
X129158Y783033D01*
X129158Y785369D01*
X137669Y785369D01*
X137669Y776858D01*
X135333Y776858D01*
G37*
%LPD*%
%LPC*%
G36*
X46433Y624458D02*
X46433Y624458D01*
X40258Y630633D01*
X40258Y632969D01*
X48769Y632969D01*
X48769Y624458D01*
X46433Y624458D01*
G37*
%LPD*%
%LPC*%
G36*
X393699Y838199D02*
X393699Y838199D01*
X393699Y838201D01*
X393701Y838201D01*
X393701Y838199D01*
X393699Y838199D01*
G37*
%LPD*%
%LPC*%
G36*
X355599Y838199D02*
X355599Y838199D01*
X355599Y838201D01*
X355601Y838201D01*
X355601Y838199D01*
X355599Y838199D01*
G37*
%LPD*%
%LPC*%
G36*
X546099Y571499D02*
X546099Y571499D01*
X546099Y571501D01*
X546101Y571501D01*
X546101Y571499D01*
X546099Y571499D01*
G37*
%LPD*%
%LPC*%
G36*
X228599Y838199D02*
X228599Y838199D01*
X228599Y838201D01*
X228601Y838201D01*
X228601Y838199D01*
X228599Y838199D01*
G37*
%LPD*%
%LPC*%
G36*
X139699Y571499D02*
X139699Y571499D01*
X139699Y571501D01*
X139701Y571501D01*
X139701Y571499D01*
X139699Y571499D01*
G37*
%LPD*%
D10*
X190500Y838200D03*
D11*
X139700Y787400D03*
D12*
X165100Y787400D03*
D11*
X139700Y723900D03*
D12*
X165100Y723900D03*
D11*
X50800Y635000D03*
D12*
X76200Y635000D03*
D13*
X304800Y241300D03*
D14*
X279400Y241300D03*
D15*
X139700Y838200D03*
D16*
X88900Y838200D03*
X38100Y838200D03*
D10*
X393700Y838200D03*
X228600Y838200D03*
X355600Y838200D03*
X330200Y241300D03*
X190500Y241300D03*
D17*
X254000Y241300D03*
D10*
X368300Y241300D03*
X393700Y241300D03*
D15*
X546100Y838200D03*
D16*
X495300Y838200D03*
X444500Y838200D03*
D15*
X139700Y571500D03*
D16*
X88900Y571500D03*
X38100Y571500D03*
D15*
X546100Y571500D03*
D16*
X495300Y571500D03*
X444500Y571500D03*
D10*
X292100Y533400D03*
X266700Y533400D03*
X317500Y533400D03*
X215900Y241300D03*
D18*
X243760Y693420D03*
D19*
X292060Y693420D03*
X340360Y693420D03*
X243760Y741720D03*
X292060Y741720D03*
X340360Y741720D03*
D20*
X266700Y622300D03*
X292100Y647700D03*
X317500Y622300D03*
D21*
X546100Y617220D03*
D12*
X546100Y652780D03*
D22*
X190500Y812800D02*
X165100Y787400D01*
X76200Y698500D01*
X63500Y698500D01*
D23*
X63500Y698500D03*
D22*
X462788Y845312D02*
X462788Y845775D01*
X462788Y845312D02*
X469900Y838200D01*
X462788Y845775D02*
X446233Y862330D01*
X469900Y838200D02*
X469900Y720500D01*
X465250Y715850D01*
D23*
X465250Y715850D03*
X285750Y345440D03*
D22*
X70612Y578612D02*
X70612Y579075D01*
X76200Y654218D02*
X76200Y698500D01*
X76200Y654218D02*
X89789Y640629D01*
X89789Y598252D01*
X70612Y579075D01*
X25400Y533400D02*
X25400Y342900D01*
X56388Y563925D02*
X56388Y564388D01*
X56388Y563925D02*
X45675Y553212D01*
X45212Y553212D01*
X25400Y533400D01*
X56388Y564388D02*
X70612Y578612D01*
X25400Y342900D02*
X38100Y330200D01*
X38100Y254000D01*
X50800Y241300D01*
X167331Y241300D02*
X183714Y257683D01*
X263017Y257683D01*
X167331Y241300D02*
X50800Y241300D01*
X285750Y247650D02*
X285750Y345440D01*
X263017Y257683D02*
X279400Y241300D01*
X285750Y247650D01*
D23*
X260350Y838200D03*
D22*
X234950Y812800D01*
X190500Y812800D01*
X260350Y838200D02*
X284480Y862330D01*
X446233Y862330D01*
D24*
X210820Y769620D02*
X165100Y723900D01*
X210820Y769620D02*
X386080Y769620D01*
D23*
X479224Y796290D03*
D24*
X482600Y792914D01*
X482600Y736600D01*
D23*
X482600Y736600D03*
D24*
X127000Y635000D02*
X114300Y622300D01*
D23*
X127000Y635000D03*
D24*
X203200Y368300D02*
X190500Y355600D01*
X127000Y355600D01*
X114300Y368300D01*
X114300Y622300D01*
D23*
X279400Y368300D03*
D24*
X203200Y368300D01*
D23*
X394213Y787217D03*
D24*
X386080Y769620D01*
D23*
X177800Y317500D03*
X95250Y313690D03*
X565150Y316230D03*
X438150Y312420D03*
X179400Y519100D03*
X57150Y311150D03*
X482600Y711200D03*
X558800Y241300D03*
X431800Y241300D03*
X304800Y381000D03*
X241300Y482600D03*
X254000Y266700D03*
X495300Y520700D03*
X368300Y533400D03*
X368300Y584200D03*
X127000Y660400D03*
X75974Y266700D03*
X558800Y520700D03*
X444500Y660400D03*
D22*
X25400Y317500D02*
X13970Y328930D01*
D23*
X25400Y317500D03*
D22*
X30988Y589788D02*
X76200Y635000D01*
X30988Y589788D02*
X30525Y589788D01*
X13970Y573233D01*
X13970Y328930D01*
D23*
X266700Y279400D03*
D25*
X139700Y279400D01*
X114300Y304800D01*
X114300Y317500D01*
D23*
X114300Y317500D03*
X393700Y685800D03*
D24*
X444500Y736600D01*
X444500Y762000D01*
X444500Y838200D01*
D23*
X444500Y762000D03*
X568988Y533400D03*
D24*
X558574Y279174D02*
X546100Y266700D01*
D23*
X546100Y266700D03*
D24*
X570258Y532130D02*
X568988Y533400D01*
X570258Y532130D02*
X570258Y330638D01*
X558574Y318954D02*
X558574Y279174D01*
X558574Y318954D02*
X570258Y330638D01*
X546100Y520700D02*
X520700Y546100D01*
X526824Y260124D02*
X482600Y215900D01*
X526824Y295107D02*
X546100Y314383D01*
X526824Y295107D02*
X526824Y260124D01*
X546100Y314383D02*
X546100Y520700D01*
X482600Y215900D02*
X104112Y215900D01*
X101600Y218412D01*
D23*
X101600Y218412D03*
X520700Y673100D03*
D24*
X520700Y546100D01*
D23*
X50800Y469900D03*
X50800Y368300D03*
D24*
X50800Y469900D01*
D23*
X38100Y520700D03*
D24*
X215900Y355600D02*
X203200Y342900D01*
D23*
X215900Y355600D03*
D24*
X50800Y342900D02*
X38100Y355600D01*
X50800Y342900D02*
X203200Y342900D01*
X38100Y355600D02*
X38100Y520700D01*
D23*
X88900Y469900D03*
D24*
X82550Y463550D01*
X82550Y368300D01*
D23*
X82550Y368300D03*
X152400Y368300D03*
D24*
X215900Y431800D02*
X215900Y457200D01*
X215900Y431800D02*
X152400Y368300D01*
D23*
X215900Y457200D03*
X191770Y482600D03*
D24*
X139926Y430756D01*
X139926Y368300D01*
D23*
X139926Y368300D03*
X469900Y469900D03*
D24*
X469900Y368300D01*
D23*
X469900Y368300D03*
X419100Y520700D03*
D24*
X419100Y406400D01*
X457200Y368300D01*
D23*
X457200Y368300D03*
X444500Y520700D03*
D24*
X444500Y571500D01*
D23*
X495300Y469900D03*
D24*
X495300Y393700D01*
X520700Y368300D01*
D23*
X520700Y368300D03*
X520700Y469900D03*
D24*
X520700Y381000D01*
X533400Y368300D01*
D23*
X533400Y368300D03*
X241300Y609600D03*
X241300Y444500D03*
D26*
X248130Y479771D02*
X248130Y485429D01*
X241300Y492259D02*
X241300Y609600D01*
X241300Y472941D02*
X241300Y444500D01*
X248130Y485429D02*
X241300Y492259D01*
X248130Y479771D02*
X241300Y472941D01*
D23*
X241300Y406400D03*
D24*
X292100Y368300D02*
X368300Y292100D01*
X368300Y241300D01*
X292100Y368300D02*
X292100Y393700D01*
X279400Y406400D01*
X241300Y406400D01*
X393700Y355600D02*
X393700Y241300D01*
D23*
X393700Y355600D03*
X368300Y457200D03*
D24*
X342900Y482600D01*
X342900Y584200D01*
D23*
X342900Y584200D03*
D26*
X342900Y635000D01*
X292060Y685840D01*
X292060Y693420D01*
D23*
X215900Y406400D03*
D24*
X266700Y457200D01*
X266700Y533400D01*
D23*
X368300Y406400D03*
D24*
X368300Y330200D01*
D23*
X368300Y330200D03*
D24*
X368300Y406400D02*
X317500Y457200D01*
X317500Y533400D01*
D26*
X317500Y622300D02*
X292100Y647700D01*
X292060Y726581D02*
X292060Y741720D01*
X292060Y726581D02*
X270408Y704929D01*
X270408Y669392D01*
X292100Y647700D01*
D24*
X546100Y617220D02*
X558800Y629920D01*
X558800Y673100D01*
X546100Y685800D01*
X546100Y711200D01*
D23*
X546100Y711200D03*
M02*
