G04 EAGLE Gerber RS-274X export*
G75*
%MOMM*%
%FSLAX34Y34*%
%LPD*%
%INVias*%
%IPPOS*%
%AMOC8*
5,1,8,0,0,1.08239X$1,22.5*%
G01*
%ADD10C,0.756400*%


D10*
X63500Y698500D03*
X465250Y715850D03*
X285750Y345440D03*
X260350Y838200D03*
X479224Y796290D03*
X482600Y736600D03*
X127000Y635000D03*
X279400Y368300D03*
X394213Y787217D03*
X177800Y317500D03*
X95250Y313690D03*
X565150Y316230D03*
X438150Y312420D03*
X179400Y519100D03*
X57150Y311150D03*
X482600Y711200D03*
X558800Y241300D03*
X431800Y241300D03*
X304800Y381000D03*
X241300Y482600D03*
X254000Y266700D03*
X495300Y520700D03*
X368300Y533400D03*
X368300Y584200D03*
X127000Y660400D03*
X75974Y266700D03*
X558800Y520700D03*
X444500Y660400D03*
X25400Y317500D03*
X266700Y279400D03*
X114300Y317500D03*
X393700Y685800D03*
X444500Y762000D03*
X568988Y533400D03*
X546100Y266700D03*
X101600Y218412D03*
X520700Y673100D03*
X50800Y469900D03*
X50800Y368300D03*
X38100Y520700D03*
X215900Y355600D03*
X88900Y469900D03*
X82550Y368300D03*
X152400Y368300D03*
X215900Y457200D03*
X191770Y482600D03*
X139926Y368300D03*
X469900Y469900D03*
X469900Y368300D03*
X419100Y520700D03*
X457200Y368300D03*
X444500Y520700D03*
X495300Y469900D03*
X520700Y368300D03*
X520700Y469900D03*
X533400Y368300D03*
X241300Y609600D03*
X241300Y444500D03*
X241300Y406400D03*
X393700Y355600D03*
X368300Y457200D03*
X342900Y584200D03*
X215900Y406400D03*
X368300Y406400D03*
X368300Y330200D03*
X546100Y711200D03*
M02*
