G04 EAGLE Gerber RS-274X export*
G75*
%MOMM*%
%FSLAX34Y34*%
%LPD*%
%INSilkscreen Bottom*%
%IPPOS*%
%AMOC8*
5,1,8,0,0,1.08239X$1,22.5*%
G01*
%ADD10C,0.127000*%
%ADD11C,0.152400*%
%ADD12C,0.015238*%
%ADD13C,0.101600*%
%ADD14C,0.025400*%


D10*
X285750Y241300D02*
X298450Y241300D01*
X292100Y247650D02*
X292100Y234950D01*
D11*
X282448Y227584D02*
X282798Y227357D01*
X283154Y227138D01*
X283514Y226928D01*
X283880Y226727D01*
X284251Y226535D01*
X284626Y226352D01*
X285005Y226178D01*
X285388Y226013D01*
X285776Y225857D01*
X286167Y225711D01*
X286561Y225574D01*
X286959Y225447D01*
X287359Y225330D01*
X287762Y225222D01*
X288168Y225124D01*
X288576Y225036D01*
X288986Y224958D01*
X289398Y224889D01*
X289811Y224831D01*
X290226Y224782D01*
X290641Y224744D01*
X291058Y224716D01*
X291475Y224698D01*
X291892Y224689D01*
X292309Y224691D01*
X292727Y224703D01*
X293143Y224726D01*
X293559Y224758D01*
X293975Y224800D01*
X294389Y224852D01*
X294802Y224914D01*
X295213Y224987D01*
X295622Y225069D01*
X296029Y225161D01*
X296434Y225262D01*
X296836Y225374D01*
X297235Y225495D01*
X297632Y225626D01*
X298025Y225766D01*
X298414Y225916D01*
X298800Y226075D01*
X299182Y226244D01*
X299560Y226422D01*
X299933Y226608D01*
X300302Y226804D01*
X300666Y227009D01*
X301024Y227222D01*
X301378Y227444D01*
X301726Y227674D01*
X302068Y227913D01*
X302405Y228160D01*
X302735Y228415D01*
X303060Y228678D01*
X303377Y228948D01*
X303688Y229226D01*
X303993Y229512D01*
X304290Y229805D01*
X304580Y230105D01*
X304863Y230412D01*
X305138Y230726D01*
X305406Y231046D01*
X305666Y231373D01*
X305918Y231705D01*
X306161Y232044D01*
X306397Y232389D01*
X306161Y232044D01*
X305918Y231705D01*
X305666Y231373D01*
X305406Y231046D01*
X305138Y230726D01*
X304863Y230412D01*
X304580Y230105D01*
X304290Y229805D01*
X303993Y229512D01*
X303688Y229226D01*
X303377Y228948D01*
X303060Y228678D01*
X302735Y228415D01*
X302405Y228160D01*
X302068Y227913D01*
X301726Y227674D01*
X301378Y227444D01*
X301024Y227222D01*
X300666Y227009D01*
X300302Y226804D01*
X299933Y226608D01*
X299560Y226422D01*
X299182Y226244D01*
X298800Y226075D01*
X298414Y225916D01*
X298025Y225766D01*
X297632Y225626D01*
X297235Y225495D01*
X296836Y225374D01*
X296434Y225262D01*
X296029Y225161D01*
X295622Y225069D01*
X295213Y224987D01*
X294802Y224914D01*
X294389Y224852D01*
X293975Y224800D01*
X293559Y224758D01*
X293143Y224726D01*
X292727Y224703D01*
X292309Y224691D01*
X291892Y224689D01*
X291475Y224698D01*
X291058Y224716D01*
X290641Y224744D01*
X290226Y224782D01*
X289811Y224831D01*
X289398Y224889D01*
X288986Y224958D01*
X288576Y225036D01*
X288168Y225124D01*
X287762Y225222D01*
X287359Y225330D01*
X286959Y225447D01*
X286561Y225574D01*
X286167Y225711D01*
X285776Y225857D01*
X285388Y226013D01*
X285005Y226178D01*
X284626Y226352D01*
X284251Y226535D01*
X283880Y226727D01*
X283514Y226928D01*
X283154Y227138D01*
X282798Y227357D01*
X282448Y227584D01*
D12*
X306942Y250771D02*
X305772Y250055D01*
X305559Y250391D01*
X305338Y250721D01*
X305109Y251045D01*
X304872Y251364D01*
X304627Y251676D01*
X304374Y251983D01*
X304114Y252284D01*
X303847Y252578D01*
X303573Y252865D01*
X303291Y253145D01*
X303003Y253419D01*
X302709Y253685D01*
X302407Y253945D01*
X302100Y254196D01*
X301787Y254440D01*
X301467Y254676D01*
X301142Y254905D01*
X300812Y255125D01*
X300476Y255337D01*
X300135Y255541D01*
X299789Y255737D01*
X299438Y255924D01*
X299083Y256102D01*
X298724Y256272D01*
X298361Y256432D01*
X297994Y256584D01*
X297623Y256727D01*
X297249Y256860D01*
X296872Y256985D01*
X296491Y257100D01*
X296108Y257205D01*
X295723Y257302D01*
X295335Y257388D01*
X294946Y257466D01*
X294554Y257533D01*
X294161Y257592D01*
X293767Y257640D01*
X293372Y257679D01*
X292975Y257708D01*
X292579Y257727D01*
X292181Y257737D01*
X291784Y257737D01*
X291387Y257727D01*
X290990Y257707D01*
X290594Y257678D01*
X290199Y257639D01*
X289804Y257590D01*
X289411Y257532D01*
X289020Y257464D01*
X288630Y257387D01*
X288243Y257300D01*
X287857Y257203D01*
X287475Y257097D01*
X287094Y256982D01*
X286717Y256857D01*
X286343Y256724D01*
X285972Y256581D01*
X285605Y256429D01*
X285242Y256268D01*
X284883Y256098D01*
X284528Y255920D01*
X284178Y255733D01*
X283832Y255537D01*
X283491Y255333D01*
X283155Y255121D01*
X282825Y254900D01*
X282500Y254672D01*
X282181Y254435D01*
X281867Y254191D01*
X281560Y253939D01*
X281259Y253680D01*
X280964Y253413D01*
X280677Y253140D01*
X280395Y252859D01*
X280121Y252571D01*
X279854Y252277D01*
X279594Y251977D01*
X279342Y251670D01*
X279097Y251357D01*
X278860Y251038D01*
X278631Y250714D01*
X278410Y250384D01*
X278197Y250048D01*
X277993Y249708D01*
X277796Y249362D01*
X277609Y249012D01*
X277430Y248657D01*
X277259Y248299D01*
X277098Y247936D01*
X276945Y247569D01*
X276802Y247198D01*
X276667Y246825D01*
X276542Y246448D01*
X276426Y246068D01*
X276320Y245685D01*
X276223Y245300D01*
X276135Y244912D01*
X276057Y244523D01*
X275988Y244131D01*
X275929Y243738D01*
X275880Y243344D01*
X275840Y242949D01*
X275810Y242553D01*
X275790Y242156D01*
X275780Y241759D01*
X275779Y241362D01*
X275788Y240965D01*
X275807Y240568D01*
X275835Y240172D01*
X275873Y239776D01*
X275921Y239382D01*
X275978Y238989D01*
X276045Y238597D01*
X276122Y238207D01*
X276208Y237819D01*
X276304Y237434D01*
X276409Y237051D01*
X276523Y236670D01*
X276647Y236293D01*
X276780Y235918D01*
X276922Y235548D01*
X277073Y235180D01*
X277233Y234817D01*
X277402Y234457D01*
X277580Y234102D01*
X277766Y233751D01*
X277961Y233405D01*
X278164Y233063D01*
X278376Y232727D01*
X278596Y232396D01*
X278824Y232071D01*
X279059Y231751D01*
X279303Y231437D01*
X279554Y231129D01*
X279813Y230828D01*
X280079Y230533D01*
X280352Y230244D01*
X280632Y229962D01*
X280919Y229688D01*
X281212Y229420D01*
X281512Y229159D01*
X281818Y228906D01*
X282131Y228661D01*
X282449Y228423D01*
X282773Y228194D01*
X281999Y227062D01*
X281998Y227061D01*
X281647Y227310D01*
X281301Y227568D01*
X280962Y227834D01*
X280630Y228108D01*
X280304Y228391D01*
X279986Y228681D01*
X279675Y228979D01*
X279371Y229285D01*
X279074Y229598D01*
X278786Y229918D01*
X278505Y230245D01*
X278233Y230579D01*
X277968Y230919D01*
X277712Y231266D01*
X277465Y231619D01*
X277227Y231978D01*
X276997Y232343D01*
X276776Y232713D01*
X276565Y233088D01*
X276362Y233469D01*
X276170Y233854D01*
X275986Y234244D01*
X275812Y234639D01*
X275648Y235037D01*
X275494Y235440D01*
X275350Y235846D01*
X275216Y236255D01*
X275091Y236668D01*
X274977Y237084D01*
X274873Y237502D01*
X274780Y237923D01*
X274697Y238345D01*
X274624Y238770D01*
X274561Y239197D01*
X274509Y239624D01*
X274468Y240053D01*
X274437Y240483D01*
X274417Y240914D01*
X274407Y241345D01*
X274408Y241776D01*
X274419Y242206D01*
X274441Y242637D01*
X274473Y243067D01*
X274516Y243495D01*
X274570Y243923D01*
X274634Y244349D01*
X274708Y244774D01*
X274793Y245196D01*
X274888Y245617D01*
X274993Y246035D01*
X275109Y246450D01*
X275234Y246862D01*
X275370Y247271D01*
X275516Y247677D01*
X275672Y248079D01*
X275837Y248477D01*
X276012Y248870D01*
X276197Y249260D01*
X276391Y249644D01*
X276595Y250024D01*
X276808Y250399D01*
X277030Y250768D01*
X277261Y251132D01*
X277500Y251490D01*
X277749Y251842D01*
X278006Y252188D01*
X278271Y252528D01*
X278545Y252861D01*
X278827Y253187D01*
X279117Y253506D01*
X279414Y253818D01*
X279719Y254122D01*
X280032Y254419D01*
X280351Y254708D01*
X280678Y254990D01*
X281011Y255263D01*
X281351Y255528D01*
X281697Y255784D01*
X282050Y256032D01*
X282408Y256271D01*
X282773Y256502D01*
X283142Y256723D01*
X283517Y256935D01*
X283898Y257138D01*
X284283Y257332D01*
X284672Y257516D01*
X285066Y257691D01*
X285465Y257855D01*
X285867Y258010D01*
X286273Y258155D01*
X286682Y258290D01*
X287094Y258415D01*
X287510Y258530D01*
X287928Y258635D01*
X288348Y258729D01*
X288771Y258813D01*
X289196Y258887D01*
X289622Y258950D01*
X290050Y259003D01*
X290479Y259045D01*
X290908Y259077D01*
X291339Y259098D01*
X291770Y259109D01*
X292201Y259109D01*
X292632Y259098D01*
X293062Y259077D01*
X293492Y259045D01*
X293921Y259003D01*
X294348Y258951D01*
X294775Y258888D01*
X295199Y258814D01*
X295622Y258730D01*
X296043Y258636D01*
X296461Y258531D01*
X296876Y258416D01*
X297289Y258292D01*
X297698Y258157D01*
X298104Y258012D01*
X298506Y257857D01*
X298904Y257692D01*
X299298Y257518D01*
X299688Y257334D01*
X300073Y257140D01*
X300453Y256937D01*
X300829Y256725D01*
X301198Y256504D01*
X301563Y256273D01*
X301921Y256034D01*
X302274Y255786D01*
X302620Y255530D01*
X302960Y255265D01*
X303294Y254992D01*
X303620Y254711D01*
X303940Y254422D01*
X304252Y254125D01*
X304557Y253820D01*
X304855Y253509D01*
X305145Y253190D01*
X305426Y252864D01*
X305700Y252531D01*
X305966Y252191D01*
X306223Y251845D01*
X306472Y251493D01*
X306711Y251135D01*
X306942Y250772D01*
X306821Y250697D01*
X306591Y251058D01*
X306353Y251413D01*
X306107Y251762D01*
X305852Y252105D01*
X305588Y252442D01*
X305317Y252772D01*
X305037Y253095D01*
X304750Y253412D01*
X304455Y253721D01*
X304152Y254023D01*
X303842Y254317D01*
X303525Y254604D01*
X303201Y254883D01*
X302871Y255154D01*
X302533Y255416D01*
X302190Y255671D01*
X301840Y255917D01*
X301484Y256154D01*
X301123Y256382D01*
X300756Y256602D01*
X300384Y256812D01*
X300007Y257013D01*
X299625Y257205D01*
X299239Y257388D01*
X298848Y257561D01*
X298453Y257724D01*
X298054Y257878D01*
X297651Y258021D01*
X297245Y258155D01*
X296836Y258279D01*
X296424Y258393D01*
X296009Y258497D01*
X295592Y258590D01*
X295173Y258673D01*
X294752Y258746D01*
X294329Y258809D01*
X293905Y258861D01*
X293479Y258903D01*
X293053Y258934D01*
X292626Y258955D01*
X292199Y258966D01*
X291771Y258966D01*
X291344Y258955D01*
X290917Y258934D01*
X290491Y258903D01*
X290065Y258861D01*
X289641Y258808D01*
X289218Y258746D01*
X288797Y258673D01*
X288378Y258589D01*
X287961Y258496D01*
X287546Y258392D01*
X287134Y258278D01*
X286725Y258154D01*
X286319Y258020D01*
X285916Y257876D01*
X285518Y257723D01*
X285123Y257559D01*
X284732Y257386D01*
X284345Y257203D01*
X283963Y257011D01*
X283586Y256810D01*
X283214Y256600D01*
X282847Y256380D01*
X282486Y256151D01*
X282131Y255914D01*
X281781Y255668D01*
X281437Y255414D01*
X281100Y255151D01*
X280770Y254880D01*
X280446Y254601D01*
X280129Y254314D01*
X279819Y254020D01*
X279516Y253718D01*
X279221Y253409D01*
X278934Y253092D01*
X278655Y252769D01*
X278383Y252438D01*
X278120Y252102D01*
X277865Y251759D01*
X277618Y251409D01*
X277380Y251054D01*
X277151Y250693D01*
X276931Y250327D01*
X276720Y249955D01*
X276518Y249579D01*
X276325Y249197D01*
X276142Y248811D01*
X275968Y248420D01*
X275804Y248025D01*
X275650Y247627D01*
X275505Y247225D01*
X275371Y246819D01*
X275246Y246410D01*
X275131Y245998D01*
X275027Y245584D01*
X274933Y245167D01*
X274849Y244748D01*
X274775Y244327D01*
X274711Y243904D01*
X274658Y243480D01*
X274616Y243054D01*
X274584Y242628D01*
X274562Y242201D01*
X274551Y241774D01*
X274550Y241346D01*
X274560Y240919D01*
X274580Y240492D01*
X274611Y240066D01*
X274652Y239640D01*
X274703Y239216D01*
X274765Y238793D01*
X274837Y238372D01*
X274920Y237952D01*
X275013Y237535D01*
X275116Y237120D01*
X275229Y236708D01*
X275352Y236299D01*
X275485Y235892D01*
X275628Y235490D01*
X275781Y235090D01*
X275944Y234695D01*
X276116Y234304D01*
X276298Y233917D01*
X276489Y233535D01*
X276690Y233157D01*
X276900Y232785D01*
X277119Y232418D01*
X277346Y232056D01*
X277583Y231700D01*
X277828Y231350D01*
X278082Y231006D01*
X278344Y230668D01*
X278614Y230337D01*
X278893Y230013D01*
X279179Y229695D01*
X279473Y229385D01*
X279774Y229082D01*
X280083Y228786D01*
X280399Y228498D01*
X280722Y228218D01*
X281052Y227946D01*
X281388Y227682D01*
X281730Y227426D01*
X282079Y227179D01*
X282160Y227297D01*
X281814Y227542D01*
X281474Y227796D01*
X281141Y228058D01*
X280814Y228328D01*
X280494Y228605D01*
X280180Y228891D01*
X279874Y229184D01*
X279575Y229485D01*
X279284Y229793D01*
X279000Y230107D01*
X278724Y230429D01*
X278456Y230758D01*
X278196Y231093D01*
X277944Y231434D01*
X277701Y231781D01*
X277466Y232134D01*
X277240Y232493D01*
X277023Y232857D01*
X276815Y233226D01*
X276616Y233601D01*
X276427Y233980D01*
X276246Y234364D01*
X276075Y234752D01*
X275914Y235144D01*
X275762Y235539D01*
X275620Y235939D01*
X275488Y236342D01*
X275366Y236748D01*
X275254Y237157D01*
X275152Y237568D01*
X275060Y237982D01*
X274978Y238398D01*
X274906Y238816D01*
X274845Y239235D01*
X274794Y239656D01*
X274753Y240078D01*
X274723Y240501D01*
X274703Y240924D01*
X274693Y241348D01*
X274694Y241772D01*
X274705Y242196D01*
X274726Y242619D01*
X274758Y243042D01*
X274801Y243464D01*
X274853Y243885D01*
X274916Y244304D01*
X274989Y244721D01*
X275073Y245137D01*
X275166Y245551D01*
X275270Y245962D01*
X275383Y246370D01*
X275507Y246776D01*
X275641Y247178D01*
X275784Y247577D01*
X275937Y247972D01*
X276100Y248364D01*
X276272Y248751D01*
X276454Y249134D01*
X276645Y249513D01*
X276845Y249886D01*
X277055Y250255D01*
X277273Y250618D01*
X277500Y250976D01*
X277736Y251328D01*
X277981Y251675D01*
X278233Y252015D01*
X278495Y252349D01*
X278764Y252677D01*
X279041Y252997D01*
X279326Y253311D01*
X279619Y253618D01*
X279919Y253917D01*
X280226Y254210D01*
X280540Y254494D01*
X280862Y254771D01*
X281189Y255039D01*
X281524Y255300D01*
X281865Y255552D01*
X282211Y255796D01*
X282564Y256032D01*
X282922Y256258D01*
X283286Y256476D01*
X283655Y256685D01*
X284029Y256884D01*
X284408Y257075D01*
X284791Y257256D01*
X285179Y257428D01*
X285570Y257590D01*
X285966Y257742D01*
X286365Y257885D01*
X286768Y258018D01*
X287174Y258141D01*
X287582Y258254D01*
X287993Y258357D01*
X288407Y258449D01*
X288823Y258532D01*
X289241Y258605D01*
X289660Y258667D01*
X290081Y258719D01*
X290503Y258760D01*
X290925Y258791D01*
X291349Y258812D01*
X291773Y258823D01*
X292197Y258823D01*
X292620Y258812D01*
X293044Y258792D01*
X293467Y258761D01*
X293889Y258719D01*
X294309Y258667D01*
X294729Y258605D01*
X295147Y258533D01*
X295562Y258450D01*
X295976Y258358D01*
X296387Y258255D01*
X296796Y258142D01*
X297202Y258019D01*
X297604Y257886D01*
X298004Y257744D01*
X298399Y257591D01*
X298791Y257429D01*
X299179Y257258D01*
X299562Y257077D01*
X299941Y256886D01*
X300315Y256687D01*
X300684Y256478D01*
X301048Y256261D01*
X301406Y256034D01*
X301759Y255799D01*
X302106Y255555D01*
X302446Y255303D01*
X302781Y255042D01*
X303109Y254774D01*
X303430Y254497D01*
X303745Y254213D01*
X304052Y253921D01*
X304352Y253621D01*
X304645Y253315D01*
X304930Y253001D01*
X305207Y252680D01*
X305476Y252353D01*
X305738Y252019D01*
X305991Y251679D01*
X306235Y251332D01*
X306471Y250980D01*
X306699Y250622D01*
X306577Y250548D01*
X306351Y250902D01*
X306117Y251252D01*
X305875Y251595D01*
X305624Y251933D01*
X305365Y252264D01*
X305097Y252588D01*
X304822Y252906D01*
X304540Y253217D01*
X304249Y253522D01*
X303952Y253819D01*
X303647Y254108D01*
X303335Y254390D01*
X303017Y254664D01*
X302691Y254931D01*
X302360Y255189D01*
X302022Y255439D01*
X301678Y255681D01*
X301328Y255914D01*
X300972Y256139D01*
X300612Y256355D01*
X300246Y256562D01*
X299875Y256760D01*
X299499Y256948D01*
X299119Y257128D01*
X298734Y257298D01*
X298346Y257459D01*
X297953Y257610D01*
X297558Y257751D01*
X297158Y257883D01*
X296756Y258005D01*
X296351Y258117D01*
X295943Y258219D01*
X295532Y258311D01*
X295120Y258392D01*
X294706Y258464D01*
X294290Y258526D01*
X293873Y258577D01*
X293454Y258618D01*
X293035Y258649D01*
X292615Y258670D01*
X292195Y258680D01*
X291774Y258680D01*
X291354Y258669D01*
X290934Y258649D01*
X290515Y258618D01*
X290096Y258576D01*
X289679Y258525D01*
X289263Y258463D01*
X288849Y258391D01*
X288437Y258309D01*
X288026Y258217D01*
X287618Y258115D01*
X287213Y258003D01*
X286811Y257881D01*
X286412Y257750D01*
X286016Y257608D01*
X285623Y257457D01*
X285235Y257296D01*
X284850Y257126D01*
X284470Y256946D01*
X284095Y256757D01*
X283724Y256559D01*
X283358Y256352D01*
X282997Y256136D01*
X282642Y255912D01*
X282292Y255678D01*
X281948Y255436D01*
X281610Y255186D01*
X281279Y254928D01*
X280954Y254661D01*
X280635Y254387D01*
X280323Y254105D01*
X280019Y253815D01*
X279721Y253518D01*
X279431Y253214D01*
X279148Y252902D01*
X278873Y252584D01*
X278606Y252260D01*
X278347Y251928D01*
X278096Y251591D01*
X277854Y251248D01*
X277620Y250898D01*
X277395Y250543D01*
X277178Y250183D01*
X276970Y249817D01*
X276772Y249447D01*
X276582Y249071D01*
X276402Y248692D01*
X276231Y248307D01*
X276070Y247919D01*
X275918Y247527D01*
X275776Y247131D01*
X275643Y246732D01*
X275521Y246330D01*
X275408Y245925D01*
X275305Y245518D01*
X275212Y245108D01*
X275130Y244695D01*
X275057Y244281D01*
X274995Y243865D01*
X274943Y243448D01*
X274901Y243030D01*
X274869Y242611D01*
X274848Y242191D01*
X274837Y241770D01*
X274836Y241350D01*
X274845Y240930D01*
X274865Y240510D01*
X274895Y240090D01*
X274936Y239672D01*
X274986Y239254D01*
X275047Y238838D01*
X275118Y238424D01*
X275200Y238012D01*
X275291Y237601D01*
X275392Y237193D01*
X275503Y236788D01*
X275625Y236385D01*
X275756Y235986D01*
X275896Y235589D01*
X276047Y235197D01*
X276207Y234808D01*
X276376Y234423D01*
X276555Y234043D01*
X276743Y233667D01*
X276940Y233295D01*
X277147Y232929D01*
X277362Y232568D01*
X277586Y232212D01*
X277819Y231862D01*
X278060Y231518D01*
X278309Y231179D01*
X278567Y230847D01*
X278833Y230521D01*
X279107Y230202D01*
X279388Y229890D01*
X279677Y229585D01*
X279974Y229287D01*
X280278Y228996D01*
X280588Y228713D01*
X280906Y228437D01*
X281230Y228169D01*
X281561Y227910D01*
X281898Y227658D01*
X282241Y227415D01*
X282321Y227533D01*
X281981Y227774D01*
X281647Y228024D01*
X281319Y228281D01*
X280998Y228547D01*
X280683Y228820D01*
X280375Y229101D01*
X280074Y229389D01*
X279780Y229685D01*
X279493Y229987D01*
X279214Y230297D01*
X278942Y230614D01*
X278679Y230937D01*
X278423Y231266D01*
X278176Y231602D01*
X277937Y231943D01*
X277706Y232290D01*
X277484Y232643D01*
X277270Y233001D01*
X277066Y233364D01*
X276870Y233733D01*
X276683Y234106D01*
X276506Y234483D01*
X276338Y234864D01*
X276179Y235250D01*
X276030Y235639D01*
X275891Y236032D01*
X275761Y236428D01*
X275641Y236828D01*
X275530Y237230D01*
X275430Y237634D01*
X275339Y238041D01*
X275259Y238450D01*
X275189Y238861D01*
X275128Y239274D01*
X275078Y239688D01*
X275038Y240103D01*
X275008Y240519D01*
X274988Y240935D01*
X274979Y241352D01*
X274980Y241769D01*
X274991Y242185D01*
X275012Y242602D01*
X275043Y243018D01*
X275085Y243432D01*
X275137Y243846D01*
X275198Y244258D01*
X275270Y244669D01*
X275352Y245078D01*
X275444Y245485D01*
X275546Y245889D01*
X275658Y246290D01*
X275780Y246689D01*
X275911Y247085D01*
X276052Y247477D01*
X276203Y247866D01*
X276363Y248251D01*
X276532Y248632D01*
X276711Y249009D01*
X276899Y249381D01*
X277096Y249748D01*
X277302Y250111D01*
X277516Y250468D01*
X277740Y250820D01*
X277972Y251167D01*
X278212Y251507D01*
X278461Y251842D01*
X278718Y252170D01*
X278983Y252492D01*
X279255Y252808D01*
X279536Y253116D01*
X279823Y253418D01*
X280118Y253713D01*
X280420Y254000D01*
X280730Y254280D01*
X281046Y254552D01*
X281368Y254816D01*
X281697Y255072D01*
X282032Y255320D01*
X282373Y255560D01*
X282720Y255792D01*
X283072Y256015D01*
X283430Y256229D01*
X283793Y256434D01*
X284160Y256630D01*
X284533Y256818D01*
X284910Y256996D01*
X285291Y257165D01*
X285676Y257324D01*
X286065Y257474D01*
X286458Y257614D01*
X286854Y257745D01*
X287253Y257866D01*
X287655Y257977D01*
X288059Y258078D01*
X288466Y258170D01*
X288875Y258251D01*
X289286Y258322D01*
X289698Y258383D01*
X290112Y258434D01*
X290527Y258475D01*
X290943Y258506D01*
X291359Y258526D01*
X291776Y258537D01*
X292193Y258537D01*
X292609Y258527D01*
X293026Y258506D01*
X293442Y258476D01*
X293857Y258435D01*
X294270Y258384D01*
X294683Y258323D01*
X295094Y258252D01*
X295503Y258171D01*
X295909Y258080D01*
X296314Y257978D01*
X296716Y257867D01*
X297115Y257747D01*
X297511Y257616D01*
X297903Y257476D01*
X298292Y257326D01*
X298678Y257167D01*
X299059Y256998D01*
X299436Y256820D01*
X299809Y256633D01*
X300176Y256437D01*
X300539Y256231D01*
X300897Y256017D01*
X301250Y255795D01*
X301596Y255563D01*
X301938Y255324D01*
X302273Y255076D01*
X302602Y254819D01*
X302924Y254555D01*
X303240Y254283D01*
X303549Y254004D01*
X303852Y253717D01*
X304147Y253422D01*
X304435Y253120D01*
X304715Y252812D01*
X304988Y252497D01*
X305253Y252175D01*
X305510Y251846D01*
X305758Y251512D01*
X305999Y251171D01*
X306231Y250825D01*
X306455Y250473D01*
X306333Y250398D01*
X306111Y250747D01*
X305881Y251091D01*
X305642Y251428D01*
X305396Y251760D01*
X305141Y252086D01*
X304878Y252405D01*
X304608Y252717D01*
X304330Y253023D01*
X304044Y253322D01*
X303752Y253614D01*
X303452Y253899D01*
X303145Y254176D01*
X302832Y254446D01*
X302512Y254708D01*
X302186Y254962D01*
X301853Y255208D01*
X301515Y255446D01*
X301171Y255675D01*
X300822Y255896D01*
X300467Y256108D01*
X300107Y256312D01*
X299742Y256506D01*
X299373Y256692D01*
X298999Y256868D01*
X298621Y257035D01*
X298239Y257193D01*
X297853Y257342D01*
X297464Y257481D01*
X297071Y257610D01*
X296676Y257730D01*
X296277Y257840D01*
X295876Y257940D01*
X295473Y258031D01*
X295067Y258111D01*
X294660Y258182D01*
X294251Y258242D01*
X293841Y258293D01*
X293429Y258333D01*
X293017Y258364D01*
X292604Y258384D01*
X292191Y258394D01*
X291777Y258394D01*
X291364Y258383D01*
X290951Y258363D01*
X290539Y258333D01*
X290127Y258292D01*
X289717Y258242D01*
X289308Y258181D01*
X288901Y258110D01*
X288495Y258030D01*
X288092Y257939D01*
X287691Y257839D01*
X287292Y257728D01*
X286897Y257609D01*
X286504Y257479D01*
X286115Y257340D01*
X285729Y257191D01*
X285347Y257033D01*
X284969Y256866D01*
X284595Y256689D01*
X284226Y256503D01*
X283861Y256309D01*
X283502Y256105D01*
X283147Y255893D01*
X282798Y255672D01*
X282454Y255442D01*
X282116Y255204D01*
X281783Y254958D01*
X281457Y254704D01*
X281137Y254442D01*
X280824Y254172D01*
X280518Y253895D01*
X280218Y253610D01*
X279926Y253318D01*
X279640Y253019D01*
X279362Y252713D01*
X279092Y252400D01*
X278829Y252081D01*
X278575Y251755D01*
X278328Y251423D01*
X278090Y251086D01*
X277860Y250742D01*
X277638Y250393D01*
X277425Y250039D01*
X277221Y249679D01*
X277026Y249315D01*
X276839Y248946D01*
X276662Y248572D01*
X276494Y248195D01*
X276335Y247813D01*
X276186Y247427D01*
X276046Y247038D01*
X275916Y246646D01*
X275795Y246251D01*
X275685Y245852D01*
X275583Y245451D01*
X275492Y245048D01*
X275411Y244643D01*
X275340Y244236D01*
X275278Y243827D01*
X275227Y243417D01*
X275186Y243005D01*
X275155Y242593D01*
X275134Y242180D01*
X275123Y241767D01*
X275122Y241354D01*
X275131Y240940D01*
X275151Y240527D01*
X275180Y240115D01*
X275220Y239703D01*
X275270Y239293D01*
X275330Y238884D01*
X275400Y238477D01*
X275479Y238071D01*
X275569Y237667D01*
X275669Y237266D01*
X275778Y236867D01*
X275897Y236472D01*
X276026Y236079D01*
X276164Y235689D01*
X276312Y235303D01*
X276469Y234921D01*
X276636Y234542D01*
X276812Y234168D01*
X276997Y233799D01*
X277191Y233434D01*
X277394Y233073D01*
X277605Y232718D01*
X277826Y232368D01*
X278054Y232024D01*
X278292Y231685D01*
X278537Y231353D01*
X278790Y231026D01*
X279052Y230706D01*
X279321Y230392D01*
X279598Y230085D01*
X279882Y229785D01*
X280173Y229492D01*
X280472Y229206D01*
X280777Y228927D01*
X281090Y228656D01*
X281408Y228393D01*
X281734Y228138D01*
X282065Y227890D01*
X282402Y227651D01*
X282483Y227769D01*
X282149Y228006D01*
X281820Y228252D01*
X281498Y228505D01*
X281182Y228766D01*
X280872Y229034D01*
X280569Y229311D01*
X280273Y229594D01*
X279984Y229885D01*
X279702Y230182D01*
X279428Y230487D01*
X279161Y230798D01*
X278902Y231116D01*
X278651Y231439D01*
X278407Y231769D01*
X278172Y232105D01*
X277945Y232446D01*
X277727Y232793D01*
X277517Y233145D01*
X277316Y233503D01*
X277124Y233865D01*
X276940Y234231D01*
X276766Y234602D01*
X276601Y234977D01*
X276445Y235356D01*
X276298Y235739D01*
X276161Y236125D01*
X276033Y236515D01*
X275915Y236907D01*
X275807Y237303D01*
X275708Y237700D01*
X275619Y238101D01*
X275540Y238503D01*
X275471Y238907D01*
X275412Y239312D01*
X275362Y239719D01*
X275323Y240127D01*
X275294Y240536D01*
X275274Y240946D01*
X275265Y241355D01*
X275266Y241765D01*
X275276Y242175D01*
X275297Y242584D01*
X275328Y242993D01*
X275369Y243401D01*
X275420Y243808D01*
X275481Y244213D01*
X275552Y244617D01*
X275632Y245019D01*
X275723Y245418D01*
X275823Y245816D01*
X275933Y246211D01*
X276052Y246603D01*
X276181Y246992D01*
X276320Y247378D01*
X276468Y247760D01*
X276625Y248138D01*
X276792Y248513D01*
X276968Y248883D01*
X277153Y249249D01*
X277346Y249610D01*
X277549Y249967D01*
X277760Y250318D01*
X277980Y250664D01*
X278208Y251005D01*
X278444Y251339D01*
X278689Y251668D01*
X278941Y251991D01*
X279201Y252308D01*
X279469Y252618D01*
X279745Y252922D01*
X280028Y253218D01*
X280318Y253508D01*
X280615Y253790D01*
X280919Y254065D01*
X281229Y254333D01*
X281547Y254592D01*
X281870Y254844D01*
X282199Y255088D01*
X282534Y255324D01*
X282875Y255552D01*
X283222Y255771D01*
X283574Y255981D01*
X283930Y256183D01*
X284292Y256376D01*
X284658Y256560D01*
X285029Y256736D01*
X285403Y256902D01*
X285782Y257058D01*
X286165Y257206D01*
X286551Y257344D01*
X286940Y257472D01*
X287332Y257591D01*
X287727Y257700D01*
X288125Y257800D01*
X288525Y257890D01*
X288927Y257970D01*
X289331Y258040D01*
X289736Y258100D01*
X290143Y258150D01*
X290551Y258190D01*
X290960Y258220D01*
X291369Y258241D01*
X291779Y258251D01*
X292189Y258251D01*
X292598Y258241D01*
X293008Y258221D01*
X293417Y258191D01*
X293825Y258151D01*
X294231Y258101D01*
X294637Y258041D01*
X295041Y257971D01*
X295443Y257891D01*
X295843Y257801D01*
X296240Y257702D01*
X296636Y257593D01*
X297028Y257474D01*
X297417Y257346D01*
X297803Y257208D01*
X298186Y257061D01*
X298564Y256904D01*
X298939Y256738D01*
X299310Y256563D01*
X299676Y256379D01*
X300038Y256186D01*
X300395Y255985D01*
X300747Y255774D01*
X301093Y255555D01*
X301434Y255328D01*
X301769Y255092D01*
X302099Y254848D01*
X302422Y254597D01*
X302739Y254337D01*
X303050Y254070D01*
X303354Y253795D01*
X303651Y253512D01*
X303942Y253223D01*
X304225Y252926D01*
X304500Y252623D01*
X304768Y252313D01*
X305029Y251997D01*
X305281Y251674D01*
X305526Y251345D01*
X305763Y251010D01*
X305991Y250670D01*
X306211Y250324D01*
X306089Y250249D01*
X305871Y250592D01*
X305644Y250930D01*
X305410Y251261D01*
X305167Y251587D01*
X304917Y251907D01*
X304659Y252221D01*
X304393Y252529D01*
X304120Y252829D01*
X303839Y253123D01*
X303551Y253410D01*
X303257Y253690D01*
X302955Y253963D01*
X302647Y254228D01*
X302333Y254485D01*
X302012Y254735D01*
X301685Y254977D01*
X301353Y255210D01*
X301015Y255436D01*
X300671Y255653D01*
X300322Y255861D01*
X299969Y256061D01*
X299610Y256253D01*
X299247Y256435D01*
X298879Y256608D01*
X298508Y256773D01*
X298132Y256928D01*
X297753Y257074D01*
X297370Y257211D01*
X296984Y257338D01*
X296595Y257456D01*
X296204Y257564D01*
X295809Y257662D01*
X295413Y257751D01*
X295014Y257830D01*
X294614Y257900D01*
X294212Y257959D01*
X293809Y258009D01*
X293404Y258048D01*
X292999Y258078D01*
X292593Y258098D01*
X292187Y258108D01*
X291780Y258108D01*
X291374Y258098D01*
X290968Y258078D01*
X290563Y258048D01*
X290158Y258008D01*
X289755Y257958D01*
X289353Y257898D01*
X288953Y257829D01*
X288554Y257750D01*
X288158Y257661D01*
X287763Y257562D01*
X287372Y257454D01*
X286983Y257336D01*
X286597Y257208D01*
X286214Y257072D01*
X285835Y256925D01*
X285460Y256770D01*
X285088Y256605D01*
X284721Y256432D01*
X284358Y256249D01*
X283999Y256058D01*
X283645Y255858D01*
X283297Y255649D01*
X282953Y255432D01*
X282615Y255206D01*
X282283Y254972D01*
X281956Y254731D01*
X281636Y254481D01*
X281321Y254223D01*
X281014Y253958D01*
X280712Y253685D01*
X280418Y253405D01*
X280130Y253118D01*
X279850Y252824D01*
X279576Y252523D01*
X279311Y252216D01*
X279053Y251902D01*
X278802Y251582D01*
X278560Y251256D01*
X278325Y250924D01*
X278099Y250586D01*
X277882Y250243D01*
X277672Y249895D01*
X277471Y249541D01*
X277279Y249183D01*
X277096Y248820D01*
X276922Y248453D01*
X276757Y248082D01*
X276601Y247707D01*
X276454Y247328D01*
X276317Y246945D01*
X276189Y246560D01*
X276070Y246171D01*
X275961Y245779D01*
X275862Y245385D01*
X275772Y244989D01*
X275692Y244591D01*
X275622Y244190D01*
X275562Y243788D01*
X275511Y243385D01*
X275471Y242981D01*
X275440Y242576D01*
X275419Y242170D01*
X275409Y241764D01*
X275408Y241357D01*
X275417Y240951D01*
X275436Y240545D01*
X275465Y240140D01*
X275504Y239735D01*
X275553Y239332D01*
X275612Y238930D01*
X275681Y238529D01*
X275759Y238130D01*
X275847Y237734D01*
X275945Y237339D01*
X276053Y236947D01*
X276170Y236558D01*
X276296Y236172D01*
X276432Y235789D01*
X276578Y235410D01*
X276732Y235034D01*
X276896Y234662D01*
X277069Y234294D01*
X277251Y233931D01*
X277441Y233572D01*
X277641Y233218D01*
X277849Y232868D01*
X278065Y232525D01*
X278290Y232186D01*
X278523Y231853D01*
X278764Y231526D01*
X279013Y231205D01*
X279270Y230890D01*
X279535Y230582D01*
X279807Y230280D01*
X280086Y229985D01*
X280373Y229696D01*
X280666Y229415D01*
X280967Y229142D01*
X281274Y228875D01*
X281587Y228616D01*
X281906Y228365D01*
X282232Y228122D01*
X282564Y227887D01*
X282644Y228005D01*
X282316Y228238D01*
X281993Y228479D01*
X281676Y228728D01*
X281365Y228985D01*
X281061Y229249D01*
X280764Y229520D01*
X280473Y229799D01*
X280189Y230085D01*
X279912Y230377D01*
X279642Y230677D01*
X279380Y230982D01*
X279125Y231295D01*
X278878Y231613D01*
X278639Y231937D01*
X278408Y232267D01*
X278185Y232603D01*
X277970Y232944D01*
X277764Y233290D01*
X277567Y233641D01*
X277378Y233996D01*
X277197Y234357D01*
X277026Y234721D01*
X276864Y235090D01*
X276710Y235463D01*
X276566Y235839D01*
X276431Y236219D01*
X276306Y236601D01*
X276190Y236987D01*
X276083Y237376D01*
X275986Y237767D01*
X275899Y238160D01*
X275821Y238555D01*
X275753Y238952D01*
X275695Y239351D01*
X275646Y239751D01*
X275608Y240152D01*
X275579Y240554D01*
X275560Y240956D01*
X275551Y241359D01*
X275552Y241762D01*
X275562Y242165D01*
X275583Y242567D01*
X275613Y242969D01*
X275653Y243369D01*
X275703Y243769D01*
X275763Y244168D01*
X275833Y244564D01*
X275912Y244959D01*
X276001Y245352D01*
X276099Y245743D01*
X276207Y246131D01*
X276325Y246516D01*
X276452Y246899D01*
X276588Y247278D01*
X276734Y247654D01*
X276888Y248026D01*
X277052Y248394D01*
X277225Y248758D01*
X277406Y249117D01*
X277597Y249472D01*
X277796Y249823D01*
X278003Y250168D01*
X278219Y250508D01*
X278443Y250843D01*
X278676Y251172D01*
X278916Y251495D01*
X279164Y251812D01*
X279420Y252124D01*
X279683Y252428D01*
X279954Y252727D01*
X280232Y253018D01*
X280517Y253303D01*
X280809Y253580D01*
X281108Y253851D01*
X281413Y254114D01*
X281725Y254369D01*
X282043Y254617D01*
X282367Y254856D01*
X282696Y255088D01*
X283031Y255312D01*
X283372Y255527D01*
X283717Y255734D01*
X284068Y255933D01*
X284423Y256122D01*
X284783Y256303D01*
X285147Y256475D01*
X285516Y256639D01*
X285888Y256793D01*
X286264Y256937D01*
X286643Y257073D01*
X287026Y257199D01*
X287411Y257316D01*
X287800Y257424D01*
X288190Y257522D01*
X288584Y257610D01*
X288979Y257688D01*
X289376Y257757D01*
X289774Y257816D01*
X290174Y257866D01*
X290575Y257905D01*
X290977Y257935D01*
X291379Y257955D01*
X291782Y257965D01*
X292185Y257965D01*
X292587Y257955D01*
X292990Y257935D01*
X293392Y257906D01*
X293792Y257867D01*
X294192Y257817D01*
X294591Y257758D01*
X294988Y257690D01*
X295383Y257611D01*
X295776Y257523D01*
X296167Y257426D01*
X296555Y257318D01*
X296941Y257202D01*
X297323Y257076D01*
X297703Y256940D01*
X298079Y256795D01*
X298451Y256642D01*
X298820Y256479D01*
X299184Y256307D01*
X299544Y256126D01*
X299899Y255936D01*
X300250Y255738D01*
X300596Y255531D01*
X300936Y255316D01*
X301272Y255093D01*
X301601Y254861D01*
X301925Y254621D01*
X302243Y254374D01*
X302555Y254119D01*
X302860Y253856D01*
X303159Y253586D01*
X303451Y253308D01*
X303736Y253024D01*
X304014Y252732D01*
X304285Y252434D01*
X304549Y252129D01*
X304805Y251818D01*
X305053Y251501D01*
X305294Y251178D01*
X305526Y250849D01*
X305751Y250514D01*
X305967Y250174D01*
X305845Y250100D01*
X305631Y250437D01*
X305408Y250768D01*
X305178Y251095D01*
X304939Y251415D01*
X304693Y251729D01*
X304439Y252038D01*
X304178Y252340D01*
X303909Y252635D01*
X303634Y252924D01*
X303351Y253206D01*
X303061Y253481D01*
X302765Y253749D01*
X302462Y254009D01*
X302153Y254262D01*
X301838Y254508D01*
X301517Y254745D01*
X301190Y254975D01*
X300858Y255196D01*
X300521Y255410D01*
X300178Y255615D01*
X299830Y255811D01*
X299478Y255999D01*
X299121Y256178D01*
X298760Y256349D01*
X298395Y256510D01*
X298025Y256663D01*
X297653Y256806D01*
X297277Y256940D01*
X296897Y257065D01*
X296515Y257181D01*
X296130Y257287D01*
X295743Y257384D01*
X295353Y257472D01*
X294961Y257549D01*
X294568Y257617D01*
X294173Y257676D01*
X293776Y257724D01*
X293379Y257763D01*
X292981Y257793D01*
X292582Y257812D01*
X292183Y257822D01*
X291783Y257822D01*
X291384Y257812D01*
X290985Y257792D01*
X290587Y257763D01*
X290189Y257724D01*
X289793Y257675D01*
X289398Y257616D01*
X289005Y257548D01*
X288613Y257470D01*
X288223Y257382D01*
X287836Y257285D01*
X287451Y257179D01*
X287069Y257063D01*
X286690Y256938D01*
X286314Y256803D01*
X285941Y256660D01*
X285572Y256507D01*
X285207Y256345D01*
X284846Y256175D01*
X284489Y255995D01*
X284137Y255807D01*
X283789Y255611D01*
X283446Y255405D01*
X283109Y255192D01*
X282777Y254970D01*
X282450Y254740D01*
X282129Y254503D01*
X281814Y254257D01*
X281505Y254004D01*
X281203Y253744D01*
X280907Y253476D01*
X280617Y253200D01*
X280335Y252918D01*
X280059Y252629D01*
X279791Y252334D01*
X279529Y252032D01*
X279276Y251723D01*
X279030Y251408D01*
X278792Y251088D01*
X278561Y250762D01*
X278339Y250430D01*
X278125Y250093D01*
X277919Y249750D01*
X277722Y249403D01*
X277533Y249051D01*
X277353Y248695D01*
X277182Y248334D01*
X277020Y247969D01*
X276866Y247600D01*
X276722Y247228D01*
X276587Y246852D01*
X276461Y246473D01*
X276345Y246091D01*
X276238Y245707D01*
X276140Y245319D01*
X276052Y244930D01*
X275973Y244538D01*
X275904Y244145D01*
X275845Y243750D01*
X275795Y243354D01*
X275756Y242956D01*
X275726Y242558D01*
X275705Y242159D01*
X275695Y241760D01*
X275694Y241361D01*
X275703Y240961D01*
X275722Y240563D01*
X275750Y240164D01*
X275789Y239767D01*
X275837Y239370D01*
X275894Y238975D01*
X275962Y238581D01*
X276039Y238190D01*
X276125Y237800D01*
X276222Y237412D01*
X276327Y237027D01*
X276442Y236645D01*
X276567Y236265D01*
X276700Y235889D01*
X276843Y235516D01*
X276995Y235147D01*
X277156Y234781D01*
X277326Y234420D01*
X277504Y234062D01*
X277692Y233710D01*
X277888Y233362D01*
X278092Y233019D01*
X278305Y232681D01*
X278526Y232348D01*
X278755Y232021D01*
X278992Y231700D01*
X279237Y231384D01*
X279489Y231075D01*
X279749Y230771D01*
X280016Y230475D01*
X280291Y230185D01*
X280572Y229901D01*
X280861Y229625D01*
X281156Y229356D01*
X281457Y229094D01*
X281765Y228840D01*
X282079Y228593D01*
X282399Y228354D01*
X282725Y228123D01*
D11*
X306397Y232389D02*
X306397Y250349D01*
D13*
X278841Y241300D02*
X278845Y241625D01*
X278857Y241951D01*
X278877Y242275D01*
X278905Y242600D01*
X278941Y242923D01*
X278985Y243245D01*
X279036Y243567D01*
X279096Y243887D01*
X279163Y244205D01*
X279238Y244522D01*
X279321Y244836D01*
X279412Y245149D01*
X279510Y245459D01*
X279616Y245767D01*
X279729Y246072D01*
X279850Y246374D01*
X279978Y246673D01*
X280114Y246969D01*
X280257Y247261D01*
X280407Y247550D01*
X280564Y247835D01*
X280727Y248116D01*
X280898Y248394D01*
X281076Y248666D01*
X281260Y248935D01*
X281450Y249198D01*
X281647Y249457D01*
X281851Y249711D01*
X282060Y249960D01*
X282276Y250204D01*
X282497Y250443D01*
X282724Y250676D01*
X282957Y250903D01*
X283196Y251124D01*
X283440Y251340D01*
X283689Y251549D01*
X283943Y251753D01*
X284202Y251950D01*
X284465Y252140D01*
X284734Y252324D01*
X285006Y252502D01*
X285284Y252673D01*
X285565Y252836D01*
X285850Y252993D01*
X286139Y253143D01*
X286431Y253286D01*
X286727Y253422D01*
X287026Y253550D01*
X287328Y253671D01*
X287633Y253784D01*
X287941Y253890D01*
X288251Y253988D01*
X288564Y254079D01*
X288878Y254162D01*
X289195Y254237D01*
X289513Y254304D01*
X289833Y254364D01*
X290155Y254415D01*
X290477Y254459D01*
X290800Y254495D01*
X291125Y254523D01*
X291449Y254543D01*
X291775Y254555D01*
X292100Y254559D01*
X292425Y254555D01*
X292751Y254543D01*
X293075Y254523D01*
X293400Y254495D01*
X293723Y254459D01*
X294045Y254415D01*
X294367Y254364D01*
X294687Y254304D01*
X295005Y254237D01*
X295322Y254162D01*
X295636Y254079D01*
X295949Y253988D01*
X296259Y253890D01*
X296567Y253784D01*
X296872Y253671D01*
X297174Y253550D01*
X297473Y253422D01*
X297769Y253286D01*
X298061Y253143D01*
X298350Y252993D01*
X298635Y252836D01*
X298916Y252673D01*
X299194Y252502D01*
X299466Y252324D01*
X299735Y252140D01*
X299998Y251950D01*
X300257Y251753D01*
X300511Y251549D01*
X300760Y251340D01*
X301004Y251124D01*
X301243Y250903D01*
X301476Y250676D01*
X301703Y250443D01*
X301924Y250204D01*
X302140Y249960D01*
X302349Y249711D01*
X302553Y249457D01*
X302750Y249198D01*
X302940Y248935D01*
X303124Y248666D01*
X303302Y248394D01*
X303473Y248116D01*
X303636Y247835D01*
X303793Y247550D01*
X303943Y247261D01*
X304086Y246969D01*
X304222Y246673D01*
X304350Y246374D01*
X304471Y246072D01*
X304584Y245767D01*
X304690Y245459D01*
X304788Y245149D01*
X304879Y244836D01*
X304962Y244522D01*
X305037Y244205D01*
X305104Y243887D01*
X305164Y243567D01*
X305215Y243245D01*
X305259Y242923D01*
X305295Y242600D01*
X305323Y242275D01*
X305343Y241951D01*
X305355Y241625D01*
X305359Y241300D01*
X305355Y240975D01*
X305343Y240649D01*
X305323Y240325D01*
X305295Y240000D01*
X305259Y239677D01*
X305215Y239355D01*
X305164Y239033D01*
X305104Y238713D01*
X305037Y238395D01*
X304962Y238078D01*
X304879Y237764D01*
X304788Y237451D01*
X304690Y237141D01*
X304584Y236833D01*
X304471Y236528D01*
X304350Y236226D01*
X304222Y235927D01*
X304086Y235631D01*
X303943Y235339D01*
X303793Y235050D01*
X303636Y234765D01*
X303473Y234484D01*
X303302Y234206D01*
X303124Y233934D01*
X302940Y233665D01*
X302750Y233402D01*
X302553Y233143D01*
X302349Y232889D01*
X302140Y232640D01*
X301924Y232396D01*
X301703Y232157D01*
X301476Y231924D01*
X301243Y231697D01*
X301004Y231476D01*
X300760Y231260D01*
X300511Y231051D01*
X300257Y230847D01*
X299998Y230650D01*
X299735Y230460D01*
X299466Y230276D01*
X299194Y230098D01*
X298916Y229927D01*
X298635Y229764D01*
X298350Y229607D01*
X298061Y229457D01*
X297769Y229314D01*
X297473Y229178D01*
X297174Y229050D01*
X296872Y228929D01*
X296567Y228816D01*
X296259Y228710D01*
X295949Y228612D01*
X295636Y228521D01*
X295322Y228438D01*
X295005Y228363D01*
X294687Y228296D01*
X294367Y228236D01*
X294045Y228185D01*
X293723Y228141D01*
X293400Y228105D01*
X293075Y228077D01*
X292751Y228057D01*
X292425Y228045D01*
X292100Y228041D01*
X291775Y228045D01*
X291449Y228057D01*
X291125Y228077D01*
X290800Y228105D01*
X290477Y228141D01*
X290155Y228185D01*
X289833Y228236D01*
X289513Y228296D01*
X289195Y228363D01*
X288878Y228438D01*
X288564Y228521D01*
X288251Y228612D01*
X287941Y228710D01*
X287633Y228816D01*
X287328Y228929D01*
X287026Y229050D01*
X286727Y229178D01*
X286431Y229314D01*
X286139Y229457D01*
X285850Y229607D01*
X285565Y229764D01*
X285284Y229927D01*
X285006Y230098D01*
X284734Y230276D01*
X284465Y230460D01*
X284202Y230650D01*
X283943Y230847D01*
X283689Y231051D01*
X283440Y231260D01*
X283196Y231476D01*
X282957Y231697D01*
X282724Y231924D01*
X282497Y232157D01*
X282276Y232396D01*
X282060Y232640D01*
X281851Y232889D01*
X281647Y233143D01*
X281450Y233402D01*
X281260Y233665D01*
X281076Y233934D01*
X280898Y234206D01*
X280727Y234484D01*
X280564Y234765D01*
X280407Y235050D01*
X280257Y235339D01*
X280114Y235631D01*
X279978Y235927D01*
X279850Y236226D01*
X279729Y236528D01*
X279616Y236833D01*
X279510Y237141D01*
X279412Y237451D01*
X279321Y237764D01*
X279238Y238078D01*
X279163Y238395D01*
X279096Y238713D01*
X279036Y239033D01*
X278985Y239355D01*
X278941Y239677D01*
X278905Y240000D01*
X278877Y240325D01*
X278857Y240649D01*
X278845Y240975D01*
X278841Y241300D01*
D10*
X285750Y241300D02*
X285752Y241459D01*
X285758Y241618D01*
X285768Y241776D01*
X285782Y241935D01*
X285800Y242093D01*
X285821Y242250D01*
X285847Y242407D01*
X285877Y242563D01*
X285910Y242719D01*
X285948Y242873D01*
X285989Y243027D01*
X286034Y243179D01*
X286083Y243330D01*
X286136Y243480D01*
X286192Y243629D01*
X286253Y243776D01*
X286316Y243921D01*
X286384Y244065D01*
X286455Y244208D01*
X286529Y244348D01*
X286607Y244486D01*
X286689Y244623D01*
X286774Y244757D01*
X286862Y244890D01*
X286953Y245020D01*
X287048Y245147D01*
X287146Y245272D01*
X287247Y245395D01*
X287351Y245515D01*
X287458Y245633D01*
X287568Y245748D01*
X287681Y245860D01*
X287796Y245969D01*
X287914Y246075D01*
X288035Y246179D01*
X288159Y246279D01*
X288284Y246376D01*
X288413Y246470D01*
X288543Y246560D01*
X288676Y246648D01*
X288811Y246732D01*
X288948Y246812D01*
X289087Y246890D01*
X289228Y246963D01*
X289370Y247033D01*
X289515Y247100D01*
X289661Y247163D01*
X289808Y247222D01*
X289957Y247278D01*
X290108Y247329D01*
X290259Y247377D01*
X290412Y247421D01*
X290566Y247462D01*
X290720Y247498D01*
X290876Y247531D01*
X291032Y247560D01*
X291189Y247584D01*
X291347Y247605D01*
X291505Y247622D01*
X291663Y247635D01*
X291822Y247644D01*
X291981Y247649D01*
X292140Y247650D01*
X292299Y247647D01*
X292457Y247640D01*
X292616Y247629D01*
X292774Y247614D01*
X292932Y247595D01*
X293089Y247572D01*
X293246Y247546D01*
X293402Y247515D01*
X293557Y247481D01*
X293711Y247442D01*
X293865Y247400D01*
X294017Y247354D01*
X294168Y247304D01*
X294317Y247250D01*
X294466Y247193D01*
X294612Y247132D01*
X294758Y247067D01*
X294901Y246999D01*
X295043Y246927D01*
X295183Y246851D01*
X295321Y246773D01*
X295457Y246690D01*
X295591Y246605D01*
X295722Y246516D01*
X295852Y246423D01*
X295979Y246328D01*
X296103Y246229D01*
X296226Y246127D01*
X296345Y246023D01*
X296462Y245915D01*
X296576Y245804D01*
X296687Y245691D01*
X296796Y245575D01*
X296901Y245456D01*
X297004Y245334D01*
X297103Y245210D01*
X297200Y245084D01*
X297293Y244955D01*
X297383Y244824D01*
X297469Y244690D01*
X297552Y244555D01*
X297632Y244417D01*
X297708Y244278D01*
X297781Y244137D01*
X297850Y243994D01*
X297916Y243849D01*
X297978Y243702D01*
X298036Y243555D01*
X298091Y243405D01*
X298142Y243255D01*
X298189Y243103D01*
X298232Y242950D01*
X298271Y242796D01*
X298307Y242641D01*
X298338Y242485D01*
X298366Y242329D01*
X298390Y242172D01*
X298410Y242014D01*
X298426Y241856D01*
X298438Y241697D01*
X298446Y241538D01*
X298450Y241379D01*
X298450Y241221D01*
X298446Y241062D01*
X298438Y240903D01*
X298426Y240744D01*
X298410Y240586D01*
X298390Y240428D01*
X298366Y240271D01*
X298338Y240115D01*
X298307Y239959D01*
X298271Y239804D01*
X298232Y239650D01*
X298189Y239497D01*
X298142Y239345D01*
X298091Y239195D01*
X298036Y239045D01*
X297978Y238898D01*
X297916Y238751D01*
X297850Y238606D01*
X297781Y238463D01*
X297708Y238322D01*
X297632Y238183D01*
X297552Y238045D01*
X297469Y237910D01*
X297383Y237776D01*
X297293Y237645D01*
X297200Y237516D01*
X297103Y237390D01*
X297004Y237266D01*
X296901Y237144D01*
X296796Y237025D01*
X296687Y236909D01*
X296576Y236796D01*
X296462Y236685D01*
X296345Y236577D01*
X296226Y236473D01*
X296103Y236371D01*
X295979Y236272D01*
X295852Y236177D01*
X295722Y236084D01*
X295591Y235995D01*
X295457Y235910D01*
X295321Y235827D01*
X295183Y235749D01*
X295043Y235673D01*
X294901Y235601D01*
X294758Y235533D01*
X294612Y235468D01*
X294466Y235407D01*
X294317Y235350D01*
X294168Y235296D01*
X294017Y235246D01*
X293865Y235200D01*
X293711Y235158D01*
X293557Y235119D01*
X293402Y235085D01*
X293246Y235054D01*
X293089Y235028D01*
X292932Y235005D01*
X292774Y234986D01*
X292616Y234971D01*
X292457Y234960D01*
X292299Y234953D01*
X292140Y234950D01*
X291981Y234951D01*
X291822Y234956D01*
X291663Y234965D01*
X291505Y234978D01*
X291347Y234995D01*
X291189Y235016D01*
X291032Y235040D01*
X290876Y235069D01*
X290720Y235102D01*
X290566Y235138D01*
X290412Y235179D01*
X290259Y235223D01*
X290108Y235271D01*
X289957Y235322D01*
X289808Y235378D01*
X289661Y235437D01*
X289515Y235500D01*
X289370Y235567D01*
X289228Y235637D01*
X289087Y235710D01*
X288948Y235788D01*
X288811Y235868D01*
X288676Y235952D01*
X288543Y236040D01*
X288413Y236130D01*
X288284Y236224D01*
X288159Y236321D01*
X288035Y236421D01*
X287914Y236525D01*
X287796Y236631D01*
X287681Y236740D01*
X287568Y236852D01*
X287458Y236967D01*
X287351Y237085D01*
X287247Y237205D01*
X287146Y237328D01*
X287048Y237453D01*
X286953Y237580D01*
X286862Y237710D01*
X286774Y237843D01*
X286689Y237977D01*
X286607Y238114D01*
X286529Y238252D01*
X286455Y238392D01*
X286384Y238535D01*
X286316Y238679D01*
X286253Y238824D01*
X286192Y238971D01*
X286136Y239120D01*
X286083Y239270D01*
X286034Y239421D01*
X285989Y239573D01*
X285948Y239727D01*
X285910Y239881D01*
X285877Y240037D01*
X285847Y240193D01*
X285821Y240350D01*
X285800Y240507D01*
X285782Y240665D01*
X285768Y240824D01*
X285758Y240982D01*
X285752Y241141D01*
X285750Y241300D01*
X79920Y984250D02*
X79923Y984470D01*
X79931Y984691D01*
X79944Y984911D01*
X79963Y985130D01*
X79988Y985349D01*
X80017Y985568D01*
X80052Y985785D01*
X80093Y986002D01*
X80138Y986218D01*
X80189Y986432D01*
X80245Y986645D01*
X80307Y986857D01*
X80373Y987067D01*
X80445Y987275D01*
X80522Y987482D01*
X80604Y987686D01*
X80690Y987889D01*
X80782Y988089D01*
X80879Y988288D01*
X80980Y988483D01*
X81087Y988676D01*
X81198Y988867D01*
X81313Y989054D01*
X81433Y989239D01*
X81558Y989421D01*
X81687Y989599D01*
X81821Y989775D01*
X81958Y989947D01*
X82100Y990115D01*
X82246Y990281D01*
X82396Y990442D01*
X82550Y990600D01*
X82708Y990754D01*
X82869Y990904D01*
X83035Y991050D01*
X83203Y991192D01*
X83375Y991329D01*
X83551Y991463D01*
X83729Y991592D01*
X83911Y991717D01*
X84096Y991837D01*
X84283Y991952D01*
X84474Y992063D01*
X84667Y992170D01*
X84862Y992271D01*
X85061Y992368D01*
X85261Y992460D01*
X85464Y992546D01*
X85668Y992628D01*
X85875Y992705D01*
X86083Y992777D01*
X86293Y992843D01*
X86505Y992905D01*
X86718Y992961D01*
X86932Y993012D01*
X87148Y993057D01*
X87365Y993098D01*
X87582Y993133D01*
X87801Y993162D01*
X88020Y993187D01*
X88239Y993206D01*
X88459Y993219D01*
X88680Y993227D01*
X88900Y993230D01*
X89120Y993227D01*
X89341Y993219D01*
X89561Y993206D01*
X89780Y993187D01*
X89999Y993162D01*
X90218Y993133D01*
X90435Y993098D01*
X90652Y993057D01*
X90868Y993012D01*
X91082Y992961D01*
X91295Y992905D01*
X91507Y992843D01*
X91717Y992777D01*
X91925Y992705D01*
X92132Y992628D01*
X92336Y992546D01*
X92539Y992460D01*
X92739Y992368D01*
X92938Y992271D01*
X93133Y992170D01*
X93326Y992063D01*
X93517Y991952D01*
X93704Y991837D01*
X93889Y991717D01*
X94071Y991592D01*
X94249Y991463D01*
X94425Y991329D01*
X94597Y991192D01*
X94765Y991050D01*
X94931Y990904D01*
X95092Y990754D01*
X95250Y990600D01*
X95404Y990442D01*
X95554Y990281D01*
X95700Y990115D01*
X95842Y989947D01*
X95979Y989775D01*
X96113Y989599D01*
X96242Y989421D01*
X96367Y989239D01*
X96487Y989054D01*
X96602Y988867D01*
X96713Y988676D01*
X96820Y988483D01*
X96921Y988288D01*
X97018Y988089D01*
X97110Y987889D01*
X97196Y987686D01*
X97278Y987482D01*
X97355Y987275D01*
X97427Y987067D01*
X97493Y986857D01*
X97555Y986645D01*
X97611Y986432D01*
X97662Y986218D01*
X97707Y986002D01*
X97748Y985785D01*
X97783Y985568D01*
X97812Y985349D01*
X97837Y985130D01*
X97856Y984911D01*
X97869Y984691D01*
X97877Y984470D01*
X97880Y984250D01*
X97877Y984030D01*
X97869Y983809D01*
X97856Y983589D01*
X97837Y983370D01*
X97812Y983151D01*
X97783Y982932D01*
X97748Y982715D01*
X97707Y982498D01*
X97662Y982282D01*
X97611Y982068D01*
X97555Y981855D01*
X97493Y981643D01*
X97427Y981433D01*
X97355Y981225D01*
X97278Y981018D01*
X97196Y980814D01*
X97110Y980611D01*
X97018Y980411D01*
X96921Y980212D01*
X96820Y980017D01*
X96713Y979824D01*
X96602Y979633D01*
X96487Y979446D01*
X96367Y979261D01*
X96242Y979079D01*
X96113Y978901D01*
X95979Y978725D01*
X95842Y978553D01*
X95700Y978385D01*
X95554Y978219D01*
X95404Y978058D01*
X95250Y977900D01*
X95092Y977746D01*
X94931Y977596D01*
X94765Y977450D01*
X94597Y977308D01*
X94425Y977171D01*
X94249Y977037D01*
X94071Y976908D01*
X93889Y976783D01*
X93704Y976663D01*
X93517Y976548D01*
X93326Y976437D01*
X93133Y976330D01*
X92938Y976229D01*
X92739Y976132D01*
X92539Y976040D01*
X92336Y975954D01*
X92132Y975872D01*
X91925Y975795D01*
X91717Y975723D01*
X91507Y975657D01*
X91295Y975595D01*
X91082Y975539D01*
X90868Y975488D01*
X90652Y975443D01*
X90435Y975402D01*
X90218Y975367D01*
X89999Y975338D01*
X89780Y975313D01*
X89561Y975294D01*
X89341Y975281D01*
X89120Y975273D01*
X88900Y975270D01*
X88680Y975273D01*
X88459Y975281D01*
X88239Y975294D01*
X88020Y975313D01*
X87801Y975338D01*
X87582Y975367D01*
X87365Y975402D01*
X87148Y975443D01*
X86932Y975488D01*
X86718Y975539D01*
X86505Y975595D01*
X86293Y975657D01*
X86083Y975723D01*
X85875Y975795D01*
X85668Y975872D01*
X85464Y975954D01*
X85261Y976040D01*
X85061Y976132D01*
X84862Y976229D01*
X84667Y976330D01*
X84474Y976437D01*
X84283Y976548D01*
X84096Y976663D01*
X83911Y976783D01*
X83729Y976908D01*
X83551Y977037D01*
X83375Y977171D01*
X83203Y977308D01*
X83035Y977450D01*
X82869Y977596D01*
X82708Y977746D01*
X82550Y977900D01*
X82396Y978058D01*
X82246Y978219D01*
X82100Y978385D01*
X81958Y978553D01*
X81821Y978725D01*
X81687Y978901D01*
X81558Y979079D01*
X81433Y979261D01*
X81313Y979446D01*
X81198Y979633D01*
X81087Y979824D01*
X80980Y980017D01*
X80879Y980212D01*
X80782Y980411D01*
X80690Y980611D01*
X80604Y980814D01*
X80522Y981018D01*
X80445Y981225D01*
X80373Y981433D01*
X80307Y981643D01*
X80245Y981855D01*
X80189Y982068D01*
X80138Y982282D01*
X80093Y982498D01*
X80052Y982715D01*
X80017Y982932D01*
X79988Y983151D01*
X79963Y983370D01*
X79944Y983589D01*
X79931Y983809D01*
X79923Y984030D01*
X79920Y984250D01*
X0Y984250D02*
X20Y986146D01*
X81Y988041D01*
X182Y989935D01*
X323Y991826D01*
X505Y993713D01*
X727Y995597D01*
X2558Y1005422D02*
X3029Y1007259D01*
X3539Y1009086D01*
X4088Y1010901D01*
X4676Y1012703D01*
X5302Y1014493D01*
X5966Y1016270D01*
X10084Y1025376D02*
X10980Y1027048D01*
X11910Y1028700D01*
X12876Y1030332D01*
X13876Y1031943D01*
X14910Y1033533D01*
X15978Y1035100D01*
X22147Y1042964D02*
X23414Y1044374D01*
X24711Y1045757D01*
X26038Y1047112D01*
X27393Y1048439D01*
X28776Y1049736D01*
X30186Y1051003D01*
X38050Y1057172D02*
X39617Y1058240D01*
X41207Y1059274D01*
X42818Y1060274D01*
X44450Y1061240D01*
X46102Y1062170D01*
X47774Y1063066D01*
X56880Y1067184D02*
X58657Y1067848D01*
X60447Y1068474D01*
X62249Y1069062D01*
X64064Y1069611D01*
X65891Y1070121D01*
X67728Y1070592D01*
X77553Y1072423D02*
X79437Y1072645D01*
X81324Y1072827D01*
X83215Y1072968D01*
X85109Y1073069D01*
X87004Y1073130D01*
X88900Y1073150D01*
X90796Y1073130D01*
X92691Y1073069D01*
X94585Y1072968D01*
X96476Y1072827D01*
X98363Y1072645D01*
X100247Y1072423D01*
X110072Y1070592D02*
X111909Y1070121D01*
X113736Y1069611D01*
X115551Y1069062D01*
X117353Y1068474D01*
X119143Y1067848D01*
X120920Y1067184D01*
X130026Y1063066D02*
X131698Y1062170D01*
X133350Y1061240D01*
X134982Y1060274D01*
X136593Y1059274D01*
X138183Y1058240D01*
X139750Y1057172D01*
X147614Y1051003D02*
X149024Y1049736D01*
X150407Y1048439D01*
X151762Y1047112D01*
X153089Y1045757D01*
X154386Y1044374D01*
X155653Y1042964D01*
X161822Y1035100D02*
X162890Y1033533D01*
X163924Y1031943D01*
X164924Y1030332D01*
X165890Y1028700D01*
X166820Y1027048D01*
X167716Y1025376D01*
X171834Y1016270D02*
X172498Y1014493D01*
X173124Y1012703D01*
X173712Y1010901D01*
X174261Y1009086D01*
X174771Y1007259D01*
X175242Y1005422D01*
X177073Y995597D02*
X177295Y993713D01*
X177477Y991826D01*
X177618Y989935D01*
X177719Y988041D01*
X177780Y986146D01*
X177800Y984250D01*
X177780Y982354D01*
X177719Y980458D01*
X177618Y978565D01*
X177477Y976674D01*
X177295Y974786D01*
X177073Y972903D01*
X175242Y963078D02*
X174771Y961241D01*
X174260Y959415D01*
X173711Y957600D01*
X173124Y955797D01*
X172498Y954007D01*
X171834Y952231D01*
X167715Y943124D02*
X166820Y941452D01*
X165890Y939800D01*
X164924Y938168D01*
X163924Y936557D01*
X162890Y934968D01*
X161822Y933401D01*
X155653Y925537D02*
X154386Y924126D01*
X153088Y922743D01*
X151762Y921388D01*
X150407Y920062D01*
X149024Y918764D01*
X147613Y917497D01*
X139749Y911328D02*
X138182Y910260D01*
X136593Y909226D01*
X134982Y908226D01*
X133350Y907260D01*
X131698Y906330D01*
X130026Y905435D01*
X120919Y901316D02*
X119143Y900652D01*
X117353Y900026D01*
X115550Y899439D01*
X113735Y898890D01*
X111909Y898379D01*
X110072Y897908D01*
X100247Y896077D02*
X98364Y895855D01*
X96476Y895673D01*
X94585Y895532D01*
X92692Y895431D01*
X90796Y895370D01*
X88900Y895350D01*
X87004Y895370D01*
X85108Y895431D01*
X83215Y895532D01*
X81324Y895673D01*
X79436Y895855D01*
X77553Y896077D01*
X67728Y897908D02*
X65891Y898379D01*
X64065Y898890D01*
X62250Y899439D01*
X60447Y900026D01*
X58657Y900652D01*
X56881Y901316D01*
X47774Y905435D02*
X46102Y906330D01*
X44450Y907260D01*
X42818Y908226D01*
X41207Y909226D01*
X39618Y910260D01*
X38051Y911328D01*
X30187Y917497D02*
X28776Y918764D01*
X27393Y920062D01*
X26038Y921388D01*
X24712Y922743D01*
X23414Y924126D01*
X22147Y925537D01*
X15978Y933401D02*
X14910Y934968D01*
X13876Y936557D01*
X12876Y938168D01*
X11910Y939800D01*
X10980Y941452D01*
X10085Y943124D01*
X5966Y952231D02*
X5302Y954007D01*
X4676Y955797D01*
X4089Y957600D01*
X3540Y959415D01*
X3029Y961241D01*
X2558Y963078D01*
X727Y972903D02*
X505Y974786D01*
X323Y976674D01*
X182Y978565D01*
X81Y980458D01*
X20Y982354D01*
X0Y984250D01*
X12700Y939800D02*
X12700Y926028D01*
X12700Y916028D02*
X12700Y902255D01*
X12700Y892255D02*
X12700Y878483D01*
X12700Y868483D02*
X12700Y854710D01*
X165100Y854710D02*
X165100Y868483D01*
X165100Y878483D02*
X165100Y892255D01*
X165100Y902255D02*
X165100Y916028D01*
X165100Y926028D02*
X165100Y939800D01*
X88900Y906217D02*
X88900Y895350D01*
X88900Y916217D02*
X88900Y927083D01*
X88900Y937083D02*
X88900Y947950D01*
X88900Y957950D02*
X88900Y968817D01*
X88900Y978817D02*
X88900Y989683D01*
X88900Y999683D02*
X88900Y1010550D01*
X88900Y1020550D02*
X88900Y1031417D01*
X88900Y1041417D02*
X88900Y1052283D01*
X88900Y1062283D02*
X88900Y1073150D01*
X10867Y984250D02*
X0Y984250D01*
X20867Y984250D02*
X31733Y984250D01*
X41733Y984250D02*
X52600Y984250D01*
X62600Y984250D02*
X73467Y984250D01*
X83467Y984250D02*
X94333Y984250D01*
X104333Y984250D02*
X115200Y984250D01*
X125200Y984250D02*
X136067Y984250D01*
X146067Y984250D02*
X156933Y984250D01*
X166933Y984250D02*
X177800Y984250D01*
X23000Y854710D02*
X12700Y854710D01*
X33000Y854710D02*
X43300Y854710D01*
X53300Y854710D02*
X63600Y854710D01*
X73600Y854710D02*
X83900Y854710D01*
X93900Y854710D02*
X104200Y854710D01*
X114200Y854710D02*
X124500Y854710D01*
X134500Y854710D02*
X144800Y854710D01*
X154800Y854710D02*
X165100Y854710D01*
X53340Y853440D02*
X22860Y853440D01*
X73660Y853440D02*
X104140Y853440D01*
X124460Y853440D02*
X154940Y853440D01*
X22860Y853440D02*
X22860Y822960D01*
X53340Y822960D01*
X53340Y853440D01*
X73660Y853440D02*
X73660Y822960D01*
X104140Y822960D01*
X104140Y853440D01*
X124460Y853440D02*
X124460Y822960D01*
X154940Y822960D01*
X154940Y853440D01*
D11*
X113721Y817118D02*
X113721Y805942D01*
X113721Y817118D02*
X110617Y817118D01*
X110506Y817116D01*
X110396Y817110D01*
X110285Y817100D01*
X110175Y817086D01*
X110066Y817069D01*
X109957Y817047D01*
X109849Y817022D01*
X109743Y816992D01*
X109637Y816959D01*
X109532Y816922D01*
X109429Y816882D01*
X109328Y816837D01*
X109228Y816790D01*
X109129Y816738D01*
X109033Y816683D01*
X108939Y816625D01*
X108847Y816564D01*
X108757Y816499D01*
X108669Y816431D01*
X108584Y816360D01*
X108502Y816286D01*
X108422Y816209D01*
X108345Y816129D01*
X108271Y816047D01*
X108200Y815962D01*
X108132Y815874D01*
X108067Y815784D01*
X108006Y815692D01*
X107948Y815598D01*
X107893Y815502D01*
X107841Y815403D01*
X107794Y815303D01*
X107749Y815202D01*
X107709Y815099D01*
X107672Y814994D01*
X107639Y814888D01*
X107609Y814782D01*
X107584Y814674D01*
X107562Y814565D01*
X107545Y814456D01*
X107531Y814346D01*
X107521Y814235D01*
X107515Y814125D01*
X107513Y814014D01*
X107513Y809046D01*
X107515Y808935D01*
X107521Y808825D01*
X107531Y808714D01*
X107545Y808604D01*
X107562Y808495D01*
X107584Y808386D01*
X107609Y808278D01*
X107639Y808172D01*
X107672Y808066D01*
X107709Y807961D01*
X107749Y807858D01*
X107794Y807757D01*
X107841Y807657D01*
X107893Y807558D01*
X107948Y807462D01*
X108006Y807368D01*
X108067Y807276D01*
X108132Y807186D01*
X108200Y807098D01*
X108271Y807013D01*
X108345Y806931D01*
X108422Y806851D01*
X108502Y806774D01*
X108584Y806700D01*
X108669Y806629D01*
X108757Y806561D01*
X108847Y806496D01*
X108939Y806435D01*
X109033Y806377D01*
X109129Y806322D01*
X109228Y806270D01*
X109328Y806223D01*
X109429Y806178D01*
X109532Y806138D01*
X109637Y806101D01*
X109743Y806068D01*
X109849Y806038D01*
X109957Y806013D01*
X110066Y805991D01*
X110175Y805974D01*
X110285Y805960D01*
X110396Y805950D01*
X110506Y805944D01*
X110617Y805942D01*
X113721Y805942D01*
X101501Y805942D02*
X96534Y805942D01*
X101501Y805942D02*
X101501Y817118D01*
X96534Y817118D01*
X97776Y812151D02*
X101501Y812151D01*
X91412Y817118D02*
X91412Y805942D01*
X91412Y817118D02*
X88307Y817118D01*
X88196Y817116D01*
X88086Y817110D01*
X87975Y817100D01*
X87865Y817086D01*
X87756Y817069D01*
X87647Y817047D01*
X87539Y817022D01*
X87433Y816992D01*
X87327Y816959D01*
X87222Y816922D01*
X87119Y816882D01*
X87018Y816837D01*
X86918Y816790D01*
X86819Y816738D01*
X86723Y816683D01*
X86629Y816625D01*
X86537Y816564D01*
X86447Y816499D01*
X86359Y816431D01*
X86274Y816360D01*
X86192Y816286D01*
X86112Y816209D01*
X86035Y816129D01*
X85961Y816047D01*
X85890Y815962D01*
X85822Y815874D01*
X85757Y815784D01*
X85696Y815692D01*
X85638Y815598D01*
X85583Y815502D01*
X85531Y815403D01*
X85484Y815303D01*
X85439Y815202D01*
X85399Y815099D01*
X85362Y814994D01*
X85329Y814888D01*
X85299Y814782D01*
X85274Y814674D01*
X85252Y814565D01*
X85235Y814456D01*
X85221Y814346D01*
X85211Y814235D01*
X85205Y814125D01*
X85203Y814014D01*
X85205Y813903D01*
X85211Y813793D01*
X85221Y813682D01*
X85235Y813572D01*
X85252Y813463D01*
X85274Y813354D01*
X85299Y813246D01*
X85329Y813140D01*
X85362Y813034D01*
X85399Y812929D01*
X85439Y812826D01*
X85484Y812725D01*
X85531Y812625D01*
X85583Y812526D01*
X85638Y812430D01*
X85696Y812336D01*
X85757Y812244D01*
X85822Y812154D01*
X85890Y812066D01*
X85961Y811981D01*
X86035Y811899D01*
X86112Y811819D01*
X86192Y811742D01*
X86274Y811668D01*
X86359Y811597D01*
X86447Y811529D01*
X86537Y811464D01*
X86629Y811403D01*
X86723Y811345D01*
X86819Y811290D01*
X86918Y811238D01*
X87018Y811191D01*
X87119Y811146D01*
X87222Y811106D01*
X87327Y811069D01*
X87433Y811036D01*
X87539Y811006D01*
X87647Y810981D01*
X87756Y810959D01*
X87865Y810942D01*
X87975Y810928D01*
X88086Y810918D01*
X88196Y810912D01*
X88307Y810910D01*
X88307Y810909D02*
X91412Y810909D01*
X78232Y805942D02*
X78232Y817118D01*
X81336Y817118D02*
X75128Y817118D01*
X70287Y817118D02*
X70287Y805942D01*
X70287Y812151D02*
X64079Y812151D01*
X64079Y817118D02*
X64079Y805942D01*
X266700Y243840D02*
X266700Y238760D01*
X241300Y238760D02*
X241300Y243840D01*
X242570Y243840D01*
X242570Y238760D02*
X241300Y238760D01*
X265430Y238760D02*
X266700Y238760D01*
X266700Y243840D02*
X265430Y243840D01*
D10*
X486320Y984250D02*
X486323Y984470D01*
X486331Y984691D01*
X486344Y984911D01*
X486363Y985130D01*
X486388Y985349D01*
X486417Y985568D01*
X486452Y985785D01*
X486493Y986002D01*
X486538Y986218D01*
X486589Y986432D01*
X486645Y986645D01*
X486707Y986857D01*
X486773Y987067D01*
X486845Y987275D01*
X486922Y987482D01*
X487004Y987686D01*
X487090Y987889D01*
X487182Y988089D01*
X487279Y988288D01*
X487380Y988483D01*
X487487Y988676D01*
X487598Y988867D01*
X487713Y989054D01*
X487833Y989239D01*
X487958Y989421D01*
X488087Y989599D01*
X488221Y989775D01*
X488358Y989947D01*
X488500Y990115D01*
X488646Y990281D01*
X488796Y990442D01*
X488950Y990600D01*
X489108Y990754D01*
X489269Y990904D01*
X489435Y991050D01*
X489603Y991192D01*
X489775Y991329D01*
X489951Y991463D01*
X490129Y991592D01*
X490311Y991717D01*
X490496Y991837D01*
X490683Y991952D01*
X490874Y992063D01*
X491067Y992170D01*
X491262Y992271D01*
X491461Y992368D01*
X491661Y992460D01*
X491864Y992546D01*
X492068Y992628D01*
X492275Y992705D01*
X492483Y992777D01*
X492693Y992843D01*
X492905Y992905D01*
X493118Y992961D01*
X493332Y993012D01*
X493548Y993057D01*
X493765Y993098D01*
X493982Y993133D01*
X494201Y993162D01*
X494420Y993187D01*
X494639Y993206D01*
X494859Y993219D01*
X495080Y993227D01*
X495300Y993230D01*
X495520Y993227D01*
X495741Y993219D01*
X495961Y993206D01*
X496180Y993187D01*
X496399Y993162D01*
X496618Y993133D01*
X496835Y993098D01*
X497052Y993057D01*
X497268Y993012D01*
X497482Y992961D01*
X497695Y992905D01*
X497907Y992843D01*
X498117Y992777D01*
X498325Y992705D01*
X498532Y992628D01*
X498736Y992546D01*
X498939Y992460D01*
X499139Y992368D01*
X499338Y992271D01*
X499533Y992170D01*
X499726Y992063D01*
X499917Y991952D01*
X500104Y991837D01*
X500289Y991717D01*
X500471Y991592D01*
X500649Y991463D01*
X500825Y991329D01*
X500997Y991192D01*
X501165Y991050D01*
X501331Y990904D01*
X501492Y990754D01*
X501650Y990600D01*
X501804Y990442D01*
X501954Y990281D01*
X502100Y990115D01*
X502242Y989947D01*
X502379Y989775D01*
X502513Y989599D01*
X502642Y989421D01*
X502767Y989239D01*
X502887Y989054D01*
X503002Y988867D01*
X503113Y988676D01*
X503220Y988483D01*
X503321Y988288D01*
X503418Y988089D01*
X503510Y987889D01*
X503596Y987686D01*
X503678Y987482D01*
X503755Y987275D01*
X503827Y987067D01*
X503893Y986857D01*
X503955Y986645D01*
X504011Y986432D01*
X504062Y986218D01*
X504107Y986002D01*
X504148Y985785D01*
X504183Y985568D01*
X504212Y985349D01*
X504237Y985130D01*
X504256Y984911D01*
X504269Y984691D01*
X504277Y984470D01*
X504280Y984250D01*
X504277Y984030D01*
X504269Y983809D01*
X504256Y983589D01*
X504237Y983370D01*
X504212Y983151D01*
X504183Y982932D01*
X504148Y982715D01*
X504107Y982498D01*
X504062Y982282D01*
X504011Y982068D01*
X503955Y981855D01*
X503893Y981643D01*
X503827Y981433D01*
X503755Y981225D01*
X503678Y981018D01*
X503596Y980814D01*
X503510Y980611D01*
X503418Y980411D01*
X503321Y980212D01*
X503220Y980017D01*
X503113Y979824D01*
X503002Y979633D01*
X502887Y979446D01*
X502767Y979261D01*
X502642Y979079D01*
X502513Y978901D01*
X502379Y978725D01*
X502242Y978553D01*
X502100Y978385D01*
X501954Y978219D01*
X501804Y978058D01*
X501650Y977900D01*
X501492Y977746D01*
X501331Y977596D01*
X501165Y977450D01*
X500997Y977308D01*
X500825Y977171D01*
X500649Y977037D01*
X500471Y976908D01*
X500289Y976783D01*
X500104Y976663D01*
X499917Y976548D01*
X499726Y976437D01*
X499533Y976330D01*
X499338Y976229D01*
X499139Y976132D01*
X498939Y976040D01*
X498736Y975954D01*
X498532Y975872D01*
X498325Y975795D01*
X498117Y975723D01*
X497907Y975657D01*
X497695Y975595D01*
X497482Y975539D01*
X497268Y975488D01*
X497052Y975443D01*
X496835Y975402D01*
X496618Y975367D01*
X496399Y975338D01*
X496180Y975313D01*
X495961Y975294D01*
X495741Y975281D01*
X495520Y975273D01*
X495300Y975270D01*
X495080Y975273D01*
X494859Y975281D01*
X494639Y975294D01*
X494420Y975313D01*
X494201Y975338D01*
X493982Y975367D01*
X493765Y975402D01*
X493548Y975443D01*
X493332Y975488D01*
X493118Y975539D01*
X492905Y975595D01*
X492693Y975657D01*
X492483Y975723D01*
X492275Y975795D01*
X492068Y975872D01*
X491864Y975954D01*
X491661Y976040D01*
X491461Y976132D01*
X491262Y976229D01*
X491067Y976330D01*
X490874Y976437D01*
X490683Y976548D01*
X490496Y976663D01*
X490311Y976783D01*
X490129Y976908D01*
X489951Y977037D01*
X489775Y977171D01*
X489603Y977308D01*
X489435Y977450D01*
X489269Y977596D01*
X489108Y977746D01*
X488950Y977900D01*
X488796Y978058D01*
X488646Y978219D01*
X488500Y978385D01*
X488358Y978553D01*
X488221Y978725D01*
X488087Y978901D01*
X487958Y979079D01*
X487833Y979261D01*
X487713Y979446D01*
X487598Y979633D01*
X487487Y979824D01*
X487380Y980017D01*
X487279Y980212D01*
X487182Y980411D01*
X487090Y980611D01*
X487004Y980814D01*
X486922Y981018D01*
X486845Y981225D01*
X486773Y981433D01*
X486707Y981643D01*
X486645Y981855D01*
X486589Y982068D01*
X486538Y982282D01*
X486493Y982498D01*
X486452Y982715D01*
X486417Y982932D01*
X486388Y983151D01*
X486363Y983370D01*
X486344Y983589D01*
X486331Y983809D01*
X486323Y984030D01*
X486320Y984250D01*
X406400Y984250D02*
X406420Y986146D01*
X406481Y988041D01*
X406582Y989935D01*
X406723Y991826D01*
X406905Y993713D01*
X407127Y995597D01*
X408958Y1005422D02*
X409429Y1007259D01*
X409939Y1009086D01*
X410488Y1010901D01*
X411076Y1012703D01*
X411702Y1014493D01*
X412366Y1016270D01*
X416484Y1025376D02*
X417380Y1027048D01*
X418310Y1028700D01*
X419276Y1030332D01*
X420276Y1031943D01*
X421310Y1033533D01*
X422378Y1035100D01*
X428547Y1042964D02*
X429814Y1044374D01*
X431111Y1045757D01*
X432438Y1047112D01*
X433793Y1048439D01*
X435176Y1049736D01*
X436586Y1051003D01*
X444450Y1057172D02*
X446017Y1058240D01*
X447607Y1059274D01*
X449218Y1060274D01*
X450850Y1061240D01*
X452502Y1062170D01*
X454174Y1063066D01*
X463280Y1067184D02*
X465057Y1067848D01*
X466847Y1068474D01*
X468649Y1069062D01*
X470464Y1069611D01*
X472291Y1070121D01*
X474128Y1070592D01*
X483953Y1072423D02*
X485837Y1072645D01*
X487724Y1072827D01*
X489615Y1072968D01*
X491509Y1073069D01*
X493404Y1073130D01*
X495300Y1073150D01*
X497196Y1073130D01*
X499091Y1073069D01*
X500985Y1072968D01*
X502876Y1072827D01*
X504763Y1072645D01*
X506647Y1072423D01*
X516472Y1070592D02*
X518309Y1070121D01*
X520136Y1069611D01*
X521951Y1069062D01*
X523753Y1068474D01*
X525543Y1067848D01*
X527320Y1067184D01*
X536426Y1063066D02*
X538098Y1062170D01*
X539750Y1061240D01*
X541382Y1060274D01*
X542993Y1059274D01*
X544583Y1058240D01*
X546150Y1057172D01*
X554014Y1051003D02*
X555424Y1049736D01*
X556807Y1048439D01*
X558162Y1047112D01*
X559489Y1045757D01*
X560786Y1044374D01*
X562053Y1042964D01*
X568222Y1035100D02*
X569290Y1033533D01*
X570324Y1031943D01*
X571324Y1030332D01*
X572290Y1028700D01*
X573220Y1027048D01*
X574116Y1025376D01*
X578234Y1016270D02*
X578898Y1014493D01*
X579524Y1012703D01*
X580112Y1010901D01*
X580661Y1009086D01*
X581171Y1007259D01*
X581642Y1005422D01*
X583473Y995597D02*
X583695Y993713D01*
X583877Y991826D01*
X584018Y989935D01*
X584119Y988041D01*
X584180Y986146D01*
X584200Y984250D01*
X584180Y982354D01*
X584119Y980458D01*
X584018Y978565D01*
X583877Y976674D01*
X583695Y974786D01*
X583473Y972903D01*
X581642Y963078D02*
X581171Y961241D01*
X580660Y959415D01*
X580111Y957600D01*
X579524Y955797D01*
X578898Y954007D01*
X578234Y952231D01*
X574115Y943124D02*
X573220Y941452D01*
X572290Y939800D01*
X571324Y938168D01*
X570324Y936557D01*
X569290Y934968D01*
X568222Y933401D01*
X562053Y925537D02*
X560786Y924126D01*
X559488Y922743D01*
X558162Y921388D01*
X556807Y920062D01*
X555424Y918764D01*
X554013Y917497D01*
X546149Y911328D02*
X544582Y910260D01*
X542993Y909226D01*
X541382Y908226D01*
X539750Y907260D01*
X538098Y906330D01*
X536426Y905435D01*
X527319Y901316D02*
X525543Y900652D01*
X523753Y900026D01*
X521950Y899439D01*
X520135Y898890D01*
X518309Y898379D01*
X516472Y897908D01*
X506647Y896077D02*
X504764Y895855D01*
X502876Y895673D01*
X500985Y895532D01*
X499092Y895431D01*
X497196Y895370D01*
X495300Y895350D01*
X493404Y895370D01*
X491508Y895431D01*
X489615Y895532D01*
X487724Y895673D01*
X485836Y895855D01*
X483953Y896077D01*
X474128Y897908D02*
X472291Y898379D01*
X470465Y898890D01*
X468650Y899439D01*
X466847Y900026D01*
X465057Y900652D01*
X463281Y901316D01*
X454174Y905435D02*
X452502Y906330D01*
X450850Y907260D01*
X449218Y908226D01*
X447607Y909226D01*
X446018Y910260D01*
X444451Y911328D01*
X436587Y917497D02*
X435176Y918764D01*
X433793Y920062D01*
X432438Y921388D01*
X431112Y922743D01*
X429814Y924126D01*
X428547Y925537D01*
X422378Y933401D02*
X421310Y934968D01*
X420276Y936557D01*
X419276Y938168D01*
X418310Y939800D01*
X417380Y941452D01*
X416485Y943124D01*
X412366Y952231D02*
X411702Y954007D01*
X411076Y955797D01*
X410489Y957600D01*
X409940Y959415D01*
X409429Y961241D01*
X408958Y963078D01*
X407127Y972903D02*
X406905Y974786D01*
X406723Y976674D01*
X406582Y978565D01*
X406481Y980458D01*
X406420Y982354D01*
X406400Y984250D01*
X419100Y939800D02*
X419100Y926028D01*
X419100Y916028D02*
X419100Y902255D01*
X419100Y892255D02*
X419100Y878483D01*
X419100Y868483D02*
X419100Y854710D01*
X571500Y854710D02*
X571500Y868483D01*
X571500Y878483D02*
X571500Y892255D01*
X571500Y902255D02*
X571500Y916028D01*
X571500Y926028D02*
X571500Y939800D01*
X495300Y906217D02*
X495300Y895350D01*
X495300Y916217D02*
X495300Y927083D01*
X495300Y937083D02*
X495300Y947950D01*
X495300Y957950D02*
X495300Y968817D01*
X495300Y978817D02*
X495300Y989683D01*
X495300Y999683D02*
X495300Y1010550D01*
X495300Y1020550D02*
X495300Y1031417D01*
X495300Y1041417D02*
X495300Y1052283D01*
X495300Y1062283D02*
X495300Y1073150D01*
X417267Y984250D02*
X406400Y984250D01*
X427267Y984250D02*
X438133Y984250D01*
X448133Y984250D02*
X459000Y984250D01*
X469000Y984250D02*
X479867Y984250D01*
X489867Y984250D02*
X500733Y984250D01*
X510733Y984250D02*
X521600Y984250D01*
X531600Y984250D02*
X542467Y984250D01*
X552467Y984250D02*
X563333Y984250D01*
X573333Y984250D02*
X584200Y984250D01*
X429400Y854710D02*
X419100Y854710D01*
X439400Y854710D02*
X449700Y854710D01*
X459700Y854710D02*
X470000Y854710D01*
X480000Y854710D02*
X490300Y854710D01*
X500300Y854710D02*
X510600Y854710D01*
X520600Y854710D02*
X530900Y854710D01*
X540900Y854710D02*
X551200Y854710D01*
X561200Y854710D02*
X571500Y854710D01*
X459740Y853440D02*
X429260Y853440D01*
X480060Y853440D02*
X510540Y853440D01*
X530860Y853440D02*
X561340Y853440D01*
X429260Y853440D02*
X429260Y822960D01*
X459740Y822960D01*
X459740Y853440D01*
X480060Y853440D02*
X480060Y822960D01*
X510540Y822960D01*
X510540Y853440D01*
X530860Y853440D02*
X530860Y822960D01*
X561340Y822960D01*
X561340Y853440D01*
D11*
X516015Y805942D02*
X515917Y805944D01*
X515820Y805950D01*
X515723Y805959D01*
X515626Y805973D01*
X515530Y805990D01*
X515435Y806011D01*
X515341Y806035D01*
X515247Y806064D01*
X515155Y806096D01*
X515064Y806131D01*
X514975Y806170D01*
X514887Y806213D01*
X514801Y806259D01*
X514717Y806308D01*
X514635Y806361D01*
X514555Y806416D01*
X514477Y806475D01*
X514402Y806537D01*
X514329Y806602D01*
X514259Y806670D01*
X514191Y806740D01*
X514126Y806813D01*
X514064Y806888D01*
X514005Y806966D01*
X513950Y807046D01*
X513897Y807128D01*
X513848Y807212D01*
X513802Y807298D01*
X513759Y807386D01*
X513720Y807475D01*
X513685Y807566D01*
X513653Y807658D01*
X513624Y807752D01*
X513600Y807846D01*
X513579Y807941D01*
X513562Y808037D01*
X513548Y808134D01*
X513539Y808231D01*
X513533Y808328D01*
X513531Y808426D01*
X516015Y805942D02*
X516158Y805944D01*
X516301Y805950D01*
X516443Y805959D01*
X516585Y805973D01*
X516727Y805991D01*
X516868Y806012D01*
X517009Y806037D01*
X517149Y806066D01*
X517288Y806099D01*
X517426Y806135D01*
X517563Y806176D01*
X517699Y806220D01*
X517833Y806267D01*
X517967Y806319D01*
X518098Y806373D01*
X518229Y806432D01*
X518357Y806494D01*
X518484Y806559D01*
X518609Y806628D01*
X518733Y806701D01*
X518854Y806776D01*
X518973Y806855D01*
X519090Y806937D01*
X519204Y807023D01*
X519316Y807111D01*
X519426Y807202D01*
X519533Y807297D01*
X519638Y807394D01*
X519740Y807494D01*
X519430Y814634D02*
X519428Y814732D01*
X519422Y814829D01*
X519413Y814926D01*
X519399Y815023D01*
X519382Y815119D01*
X519361Y815214D01*
X519337Y815308D01*
X519308Y815402D01*
X519276Y815494D01*
X519241Y815585D01*
X519202Y815674D01*
X519159Y815762D01*
X519113Y815848D01*
X519064Y815932D01*
X519011Y816014D01*
X518956Y816094D01*
X518897Y816172D01*
X518835Y816247D01*
X518770Y816320D01*
X518702Y816390D01*
X518632Y816458D01*
X518559Y816523D01*
X518484Y816585D01*
X518406Y816644D01*
X518326Y816699D01*
X518244Y816752D01*
X518160Y816801D01*
X518074Y816847D01*
X517986Y816890D01*
X517897Y816929D01*
X517806Y816964D01*
X517714Y816996D01*
X517620Y817025D01*
X517526Y817049D01*
X517431Y817070D01*
X517335Y817087D01*
X517238Y817101D01*
X517141Y817110D01*
X517044Y817116D01*
X516946Y817118D01*
X516816Y817116D01*
X516686Y817111D01*
X516556Y817102D01*
X516426Y817089D01*
X516297Y817073D01*
X516168Y817053D01*
X516040Y817029D01*
X515912Y817002D01*
X515786Y816971D01*
X515660Y816937D01*
X515535Y816899D01*
X515412Y816858D01*
X515289Y816813D01*
X515168Y816765D01*
X515048Y816714D01*
X514930Y816659D01*
X514814Y816601D01*
X514699Y816540D01*
X514585Y816475D01*
X514474Y816408D01*
X514365Y816337D01*
X514257Y816263D01*
X514152Y816187D01*
X518188Y812461D02*
X518271Y812512D01*
X518352Y812566D01*
X518430Y812623D01*
X518506Y812683D01*
X518580Y812746D01*
X518651Y812812D01*
X518720Y812880D01*
X518786Y812951D01*
X518850Y813024D01*
X518910Y813100D01*
X518967Y813178D01*
X519022Y813259D01*
X519073Y813341D01*
X519121Y813425D01*
X519166Y813511D01*
X519208Y813599D01*
X519246Y813688D01*
X519280Y813778D01*
X519312Y813870D01*
X519339Y813963D01*
X519363Y814057D01*
X519384Y814152D01*
X519400Y814248D01*
X519413Y814344D01*
X519423Y814440D01*
X519428Y814537D01*
X519430Y814634D01*
X514774Y810599D02*
X514691Y810548D01*
X514610Y810494D01*
X514532Y810437D01*
X514456Y810377D01*
X514382Y810314D01*
X514311Y810248D01*
X514242Y810180D01*
X514176Y810109D01*
X514112Y810036D01*
X514052Y809960D01*
X513995Y809882D01*
X513940Y809801D01*
X513889Y809719D01*
X513841Y809635D01*
X513796Y809549D01*
X513754Y809461D01*
X513716Y809372D01*
X513682Y809282D01*
X513650Y809190D01*
X513623Y809097D01*
X513599Y809003D01*
X513578Y808908D01*
X513562Y808812D01*
X513549Y808716D01*
X513539Y808620D01*
X513534Y808523D01*
X513532Y808426D01*
X514773Y810599D02*
X518188Y812461D01*
X508099Y817118D02*
X508099Y805942D01*
X508099Y817118D02*
X504994Y817118D01*
X504883Y817116D01*
X504773Y817110D01*
X504662Y817100D01*
X504552Y817086D01*
X504443Y817069D01*
X504334Y817047D01*
X504226Y817022D01*
X504120Y816992D01*
X504014Y816959D01*
X503909Y816922D01*
X503806Y816882D01*
X503705Y816837D01*
X503605Y816790D01*
X503506Y816738D01*
X503410Y816683D01*
X503316Y816625D01*
X503224Y816564D01*
X503134Y816499D01*
X503046Y816431D01*
X502961Y816360D01*
X502879Y816286D01*
X502799Y816209D01*
X502722Y816129D01*
X502648Y816047D01*
X502577Y815962D01*
X502509Y815874D01*
X502444Y815784D01*
X502383Y815692D01*
X502325Y815598D01*
X502270Y815502D01*
X502218Y815403D01*
X502171Y815303D01*
X502126Y815202D01*
X502086Y815099D01*
X502049Y814994D01*
X502016Y814888D01*
X501986Y814782D01*
X501961Y814674D01*
X501939Y814565D01*
X501922Y814456D01*
X501908Y814346D01*
X501898Y814235D01*
X501892Y814125D01*
X501890Y814014D01*
X501892Y813903D01*
X501898Y813793D01*
X501908Y813682D01*
X501922Y813572D01*
X501939Y813463D01*
X501961Y813354D01*
X501986Y813246D01*
X502016Y813140D01*
X502049Y813034D01*
X502086Y812929D01*
X502126Y812826D01*
X502171Y812725D01*
X502218Y812625D01*
X502270Y812526D01*
X502325Y812430D01*
X502383Y812336D01*
X502444Y812244D01*
X502509Y812154D01*
X502577Y812066D01*
X502648Y811981D01*
X502722Y811899D01*
X502799Y811819D01*
X502879Y811742D01*
X502961Y811668D01*
X503046Y811597D01*
X503134Y811529D01*
X503224Y811464D01*
X503316Y811403D01*
X503410Y811345D01*
X503506Y811290D01*
X503605Y811238D01*
X503705Y811191D01*
X503806Y811146D01*
X503909Y811106D01*
X504014Y811069D01*
X504120Y811036D01*
X504226Y811006D01*
X504334Y810981D01*
X504443Y810959D01*
X504552Y810942D01*
X504662Y810928D01*
X504773Y810918D01*
X504883Y810912D01*
X504994Y810910D01*
X504994Y810909D02*
X508099Y810909D01*
X496852Y805942D02*
X491885Y805942D01*
X496852Y805942D02*
X496852Y817118D01*
X491885Y817118D01*
X493127Y812151D02*
X496852Y812151D01*
X486946Y805942D02*
X481979Y805942D01*
X486946Y805942D02*
X486946Y817118D01*
X481979Y817118D01*
X483221Y812151D02*
X486946Y812151D01*
X477068Y817118D02*
X477068Y805942D01*
X477068Y817118D02*
X473964Y817118D01*
X473853Y817116D01*
X473743Y817110D01*
X473632Y817100D01*
X473522Y817086D01*
X473413Y817069D01*
X473304Y817047D01*
X473196Y817022D01*
X473090Y816992D01*
X472984Y816959D01*
X472879Y816922D01*
X472776Y816882D01*
X472675Y816837D01*
X472575Y816790D01*
X472476Y816738D01*
X472380Y816683D01*
X472286Y816625D01*
X472194Y816564D01*
X472104Y816499D01*
X472016Y816431D01*
X471931Y816360D01*
X471849Y816286D01*
X471769Y816209D01*
X471692Y816129D01*
X471618Y816047D01*
X471547Y815962D01*
X471479Y815874D01*
X471414Y815784D01*
X471353Y815692D01*
X471295Y815598D01*
X471240Y815502D01*
X471188Y815403D01*
X471141Y815303D01*
X471096Y815202D01*
X471056Y815099D01*
X471019Y814994D01*
X470986Y814888D01*
X470956Y814782D01*
X470931Y814674D01*
X470909Y814565D01*
X470892Y814456D01*
X470878Y814346D01*
X470868Y814235D01*
X470862Y814125D01*
X470860Y814014D01*
X470860Y809046D01*
X470862Y808935D01*
X470868Y808825D01*
X470878Y808714D01*
X470892Y808604D01*
X470909Y808495D01*
X470931Y808386D01*
X470956Y808278D01*
X470986Y808172D01*
X471019Y808066D01*
X471056Y807961D01*
X471096Y807858D01*
X471141Y807757D01*
X471188Y807657D01*
X471240Y807558D01*
X471295Y807462D01*
X471353Y807368D01*
X471414Y807276D01*
X471479Y807186D01*
X471547Y807098D01*
X471618Y807013D01*
X471692Y806931D01*
X471769Y806851D01*
X471849Y806774D01*
X471931Y806700D01*
X472016Y806629D01*
X472104Y806561D01*
X472194Y806496D01*
X472286Y806435D01*
X472380Y806377D01*
X472476Y806322D01*
X472575Y806270D01*
X472675Y806223D01*
X472776Y806178D01*
X472879Y806138D01*
X472984Y806101D01*
X473090Y806068D01*
X473196Y806038D01*
X473304Y806013D01*
X473413Y805991D01*
X473522Y805974D01*
X473632Y805960D01*
X473743Y805950D01*
X473853Y805944D01*
X473964Y805942D01*
X477068Y805942D01*
D10*
X79920Y717550D02*
X79923Y717770D01*
X79931Y717991D01*
X79944Y718211D01*
X79963Y718430D01*
X79988Y718649D01*
X80017Y718868D01*
X80052Y719085D01*
X80093Y719302D01*
X80138Y719518D01*
X80189Y719732D01*
X80245Y719945D01*
X80307Y720157D01*
X80373Y720367D01*
X80445Y720575D01*
X80522Y720782D01*
X80604Y720986D01*
X80690Y721189D01*
X80782Y721389D01*
X80879Y721588D01*
X80980Y721783D01*
X81087Y721976D01*
X81198Y722167D01*
X81313Y722354D01*
X81433Y722539D01*
X81558Y722721D01*
X81687Y722899D01*
X81821Y723075D01*
X81958Y723247D01*
X82100Y723415D01*
X82246Y723581D01*
X82396Y723742D01*
X82550Y723900D01*
X82708Y724054D01*
X82869Y724204D01*
X83035Y724350D01*
X83203Y724492D01*
X83375Y724629D01*
X83551Y724763D01*
X83729Y724892D01*
X83911Y725017D01*
X84096Y725137D01*
X84283Y725252D01*
X84474Y725363D01*
X84667Y725470D01*
X84862Y725571D01*
X85061Y725668D01*
X85261Y725760D01*
X85464Y725846D01*
X85668Y725928D01*
X85875Y726005D01*
X86083Y726077D01*
X86293Y726143D01*
X86505Y726205D01*
X86718Y726261D01*
X86932Y726312D01*
X87148Y726357D01*
X87365Y726398D01*
X87582Y726433D01*
X87801Y726462D01*
X88020Y726487D01*
X88239Y726506D01*
X88459Y726519D01*
X88680Y726527D01*
X88900Y726530D01*
X89120Y726527D01*
X89341Y726519D01*
X89561Y726506D01*
X89780Y726487D01*
X89999Y726462D01*
X90218Y726433D01*
X90435Y726398D01*
X90652Y726357D01*
X90868Y726312D01*
X91082Y726261D01*
X91295Y726205D01*
X91507Y726143D01*
X91717Y726077D01*
X91925Y726005D01*
X92132Y725928D01*
X92336Y725846D01*
X92539Y725760D01*
X92739Y725668D01*
X92938Y725571D01*
X93133Y725470D01*
X93326Y725363D01*
X93517Y725252D01*
X93704Y725137D01*
X93889Y725017D01*
X94071Y724892D01*
X94249Y724763D01*
X94425Y724629D01*
X94597Y724492D01*
X94765Y724350D01*
X94931Y724204D01*
X95092Y724054D01*
X95250Y723900D01*
X95404Y723742D01*
X95554Y723581D01*
X95700Y723415D01*
X95842Y723247D01*
X95979Y723075D01*
X96113Y722899D01*
X96242Y722721D01*
X96367Y722539D01*
X96487Y722354D01*
X96602Y722167D01*
X96713Y721976D01*
X96820Y721783D01*
X96921Y721588D01*
X97018Y721389D01*
X97110Y721189D01*
X97196Y720986D01*
X97278Y720782D01*
X97355Y720575D01*
X97427Y720367D01*
X97493Y720157D01*
X97555Y719945D01*
X97611Y719732D01*
X97662Y719518D01*
X97707Y719302D01*
X97748Y719085D01*
X97783Y718868D01*
X97812Y718649D01*
X97837Y718430D01*
X97856Y718211D01*
X97869Y717991D01*
X97877Y717770D01*
X97880Y717550D01*
X97877Y717330D01*
X97869Y717109D01*
X97856Y716889D01*
X97837Y716670D01*
X97812Y716451D01*
X97783Y716232D01*
X97748Y716015D01*
X97707Y715798D01*
X97662Y715582D01*
X97611Y715368D01*
X97555Y715155D01*
X97493Y714943D01*
X97427Y714733D01*
X97355Y714525D01*
X97278Y714318D01*
X97196Y714114D01*
X97110Y713911D01*
X97018Y713711D01*
X96921Y713512D01*
X96820Y713317D01*
X96713Y713124D01*
X96602Y712933D01*
X96487Y712746D01*
X96367Y712561D01*
X96242Y712379D01*
X96113Y712201D01*
X95979Y712025D01*
X95842Y711853D01*
X95700Y711685D01*
X95554Y711519D01*
X95404Y711358D01*
X95250Y711200D01*
X95092Y711046D01*
X94931Y710896D01*
X94765Y710750D01*
X94597Y710608D01*
X94425Y710471D01*
X94249Y710337D01*
X94071Y710208D01*
X93889Y710083D01*
X93704Y709963D01*
X93517Y709848D01*
X93326Y709737D01*
X93133Y709630D01*
X92938Y709529D01*
X92739Y709432D01*
X92539Y709340D01*
X92336Y709254D01*
X92132Y709172D01*
X91925Y709095D01*
X91717Y709023D01*
X91507Y708957D01*
X91295Y708895D01*
X91082Y708839D01*
X90868Y708788D01*
X90652Y708743D01*
X90435Y708702D01*
X90218Y708667D01*
X89999Y708638D01*
X89780Y708613D01*
X89561Y708594D01*
X89341Y708581D01*
X89120Y708573D01*
X88900Y708570D01*
X88680Y708573D01*
X88459Y708581D01*
X88239Y708594D01*
X88020Y708613D01*
X87801Y708638D01*
X87582Y708667D01*
X87365Y708702D01*
X87148Y708743D01*
X86932Y708788D01*
X86718Y708839D01*
X86505Y708895D01*
X86293Y708957D01*
X86083Y709023D01*
X85875Y709095D01*
X85668Y709172D01*
X85464Y709254D01*
X85261Y709340D01*
X85061Y709432D01*
X84862Y709529D01*
X84667Y709630D01*
X84474Y709737D01*
X84283Y709848D01*
X84096Y709963D01*
X83911Y710083D01*
X83729Y710208D01*
X83551Y710337D01*
X83375Y710471D01*
X83203Y710608D01*
X83035Y710750D01*
X82869Y710896D01*
X82708Y711046D01*
X82550Y711200D01*
X82396Y711358D01*
X82246Y711519D01*
X82100Y711685D01*
X81958Y711853D01*
X81821Y712025D01*
X81687Y712201D01*
X81558Y712379D01*
X81433Y712561D01*
X81313Y712746D01*
X81198Y712933D01*
X81087Y713124D01*
X80980Y713317D01*
X80879Y713512D01*
X80782Y713711D01*
X80690Y713911D01*
X80604Y714114D01*
X80522Y714318D01*
X80445Y714525D01*
X80373Y714733D01*
X80307Y714943D01*
X80245Y715155D01*
X80189Y715368D01*
X80138Y715582D01*
X80093Y715798D01*
X80052Y716015D01*
X80017Y716232D01*
X79988Y716451D01*
X79963Y716670D01*
X79944Y716889D01*
X79931Y717109D01*
X79923Y717330D01*
X79920Y717550D01*
X0Y717550D02*
X20Y719446D01*
X81Y721341D01*
X182Y723235D01*
X323Y725126D01*
X505Y727013D01*
X727Y728897D01*
X2558Y738722D02*
X3029Y740559D01*
X3539Y742386D01*
X4088Y744201D01*
X4676Y746003D01*
X5302Y747793D01*
X5966Y749570D01*
X10084Y758676D02*
X10980Y760348D01*
X11910Y762000D01*
X12876Y763632D01*
X13876Y765243D01*
X14910Y766833D01*
X15978Y768400D01*
X22147Y776264D02*
X23414Y777674D01*
X24711Y779057D01*
X26038Y780412D01*
X27393Y781739D01*
X28776Y783036D01*
X30186Y784303D01*
X38050Y790472D02*
X39617Y791540D01*
X41207Y792574D01*
X42818Y793574D01*
X44450Y794540D01*
X46102Y795470D01*
X47774Y796366D01*
X56880Y800484D02*
X58657Y801148D01*
X60447Y801774D01*
X62249Y802362D01*
X64064Y802911D01*
X65891Y803421D01*
X67728Y803892D01*
X77553Y805723D02*
X79437Y805945D01*
X81324Y806127D01*
X83215Y806268D01*
X85109Y806369D01*
X87004Y806430D01*
X88900Y806450D01*
X90796Y806430D01*
X92691Y806369D01*
X94585Y806268D01*
X96476Y806127D01*
X98363Y805945D01*
X100247Y805723D01*
X110072Y803892D02*
X111909Y803421D01*
X113736Y802911D01*
X115551Y802362D01*
X117353Y801774D01*
X119143Y801148D01*
X120920Y800484D01*
X130026Y796366D02*
X131698Y795470D01*
X133350Y794540D01*
X134982Y793574D01*
X136593Y792574D01*
X138183Y791540D01*
X139750Y790472D01*
X147614Y784303D02*
X149024Y783036D01*
X150407Y781739D01*
X151762Y780412D01*
X153089Y779057D01*
X154386Y777674D01*
X155653Y776264D01*
X161822Y768400D02*
X162890Y766833D01*
X163924Y765243D01*
X164924Y763632D01*
X165890Y762000D01*
X166820Y760348D01*
X167716Y758676D01*
X171834Y749570D02*
X172498Y747793D01*
X173124Y746003D01*
X173712Y744201D01*
X174261Y742386D01*
X174771Y740559D01*
X175242Y738722D01*
X177073Y728897D02*
X177295Y727013D01*
X177477Y725126D01*
X177618Y723235D01*
X177719Y721341D01*
X177780Y719446D01*
X177800Y717550D01*
X177780Y715654D01*
X177719Y713758D01*
X177618Y711865D01*
X177477Y709974D01*
X177295Y708086D01*
X177073Y706203D01*
X175242Y696378D02*
X174771Y694541D01*
X174260Y692715D01*
X173711Y690900D01*
X173124Y689097D01*
X172498Y687307D01*
X171834Y685531D01*
X167715Y676424D02*
X166820Y674752D01*
X165890Y673100D01*
X164924Y671468D01*
X163924Y669857D01*
X162890Y668268D01*
X161822Y666701D01*
X155653Y658837D02*
X154386Y657426D01*
X153088Y656043D01*
X151762Y654688D01*
X150407Y653362D01*
X149024Y652064D01*
X147613Y650797D01*
X139749Y644628D02*
X138182Y643560D01*
X136593Y642526D01*
X134982Y641526D01*
X133350Y640560D01*
X131698Y639630D01*
X130026Y638735D01*
X120919Y634616D02*
X119143Y633952D01*
X117353Y633326D01*
X115550Y632739D01*
X113735Y632190D01*
X111909Y631679D01*
X110072Y631208D01*
X100247Y629377D02*
X98364Y629155D01*
X96476Y628973D01*
X94585Y628832D01*
X92692Y628731D01*
X90796Y628670D01*
X88900Y628650D01*
X87004Y628670D01*
X85108Y628731D01*
X83215Y628832D01*
X81324Y628973D01*
X79436Y629155D01*
X77553Y629377D01*
X67728Y631208D02*
X65891Y631679D01*
X64065Y632190D01*
X62250Y632739D01*
X60447Y633326D01*
X58657Y633952D01*
X56881Y634616D01*
X47774Y638735D02*
X46102Y639630D01*
X44450Y640560D01*
X42818Y641526D01*
X41207Y642526D01*
X39618Y643560D01*
X38051Y644628D01*
X30187Y650797D02*
X28776Y652064D01*
X27393Y653362D01*
X26038Y654688D01*
X24712Y656043D01*
X23414Y657426D01*
X22147Y658837D01*
X15978Y666701D02*
X14910Y668268D01*
X13876Y669857D01*
X12876Y671468D01*
X11910Y673100D01*
X10980Y674752D01*
X10085Y676424D01*
X5966Y685531D02*
X5302Y687307D01*
X4676Y689097D01*
X4089Y690900D01*
X3540Y692715D01*
X3029Y694541D01*
X2558Y696378D01*
X727Y706203D02*
X505Y708086D01*
X323Y709974D01*
X182Y711865D01*
X81Y713758D01*
X20Y715654D01*
X0Y717550D01*
X12700Y673100D02*
X12700Y659328D01*
X12700Y649328D02*
X12700Y635555D01*
X12700Y625555D02*
X12700Y611783D01*
X12700Y601783D02*
X12700Y588010D01*
X165100Y588010D02*
X165100Y601783D01*
X165100Y611783D02*
X165100Y625555D01*
X165100Y635555D02*
X165100Y649328D01*
X165100Y659328D02*
X165100Y673100D01*
X88900Y639517D02*
X88900Y628650D01*
X88900Y649517D02*
X88900Y660383D01*
X88900Y670383D02*
X88900Y681250D01*
X88900Y691250D02*
X88900Y702117D01*
X88900Y712117D02*
X88900Y722983D01*
X88900Y732983D02*
X88900Y743850D01*
X88900Y753850D02*
X88900Y764717D01*
X88900Y774717D02*
X88900Y785583D01*
X88900Y795583D02*
X88900Y806450D01*
X10867Y717550D02*
X0Y717550D01*
X20867Y717550D02*
X31733Y717550D01*
X41733Y717550D02*
X52600Y717550D01*
X62600Y717550D02*
X73467Y717550D01*
X83467Y717550D02*
X94333Y717550D01*
X104333Y717550D02*
X115200Y717550D01*
X125200Y717550D02*
X136067Y717550D01*
X146067Y717550D02*
X156933Y717550D01*
X166933Y717550D02*
X177800Y717550D01*
X23000Y588010D02*
X12700Y588010D01*
X33000Y588010D02*
X43300Y588010D01*
X53300Y588010D02*
X63600Y588010D01*
X73600Y588010D02*
X83900Y588010D01*
X93900Y588010D02*
X104200Y588010D01*
X114200Y588010D02*
X124500Y588010D01*
X134500Y588010D02*
X144800Y588010D01*
X154800Y588010D02*
X165100Y588010D01*
X53340Y586740D02*
X22860Y586740D01*
X73660Y586740D02*
X104140Y586740D01*
X124460Y586740D02*
X154940Y586740D01*
X22860Y586740D02*
X22860Y556260D01*
X53340Y556260D01*
X53340Y586740D01*
X73660Y586740D02*
X73660Y556260D01*
X104140Y556260D01*
X104140Y586740D01*
X124460Y586740D02*
X124460Y556260D01*
X154940Y556260D01*
X154940Y586740D01*
D11*
X107745Y590042D02*
X107745Y601218D01*
X104020Y595009D01*
X100295Y601218D01*
X100295Y590042D01*
X93733Y590042D02*
X93733Y601218D01*
X94975Y590042D02*
X92491Y590042D01*
X92491Y601218D02*
X94975Y601218D01*
X88314Y590042D02*
X80864Y601218D01*
X88314Y601218D02*
X80864Y590042D01*
X76264Y598734D02*
X73159Y601218D01*
X73159Y590042D01*
X70055Y590042D02*
X76264Y590042D01*
D10*
X486320Y717550D02*
X486323Y717770D01*
X486331Y717991D01*
X486344Y718211D01*
X486363Y718430D01*
X486388Y718649D01*
X486417Y718868D01*
X486452Y719085D01*
X486493Y719302D01*
X486538Y719518D01*
X486589Y719732D01*
X486645Y719945D01*
X486707Y720157D01*
X486773Y720367D01*
X486845Y720575D01*
X486922Y720782D01*
X487004Y720986D01*
X487090Y721189D01*
X487182Y721389D01*
X487279Y721588D01*
X487380Y721783D01*
X487487Y721976D01*
X487598Y722167D01*
X487713Y722354D01*
X487833Y722539D01*
X487958Y722721D01*
X488087Y722899D01*
X488221Y723075D01*
X488358Y723247D01*
X488500Y723415D01*
X488646Y723581D01*
X488796Y723742D01*
X488950Y723900D01*
X489108Y724054D01*
X489269Y724204D01*
X489435Y724350D01*
X489603Y724492D01*
X489775Y724629D01*
X489951Y724763D01*
X490129Y724892D01*
X490311Y725017D01*
X490496Y725137D01*
X490683Y725252D01*
X490874Y725363D01*
X491067Y725470D01*
X491262Y725571D01*
X491461Y725668D01*
X491661Y725760D01*
X491864Y725846D01*
X492068Y725928D01*
X492275Y726005D01*
X492483Y726077D01*
X492693Y726143D01*
X492905Y726205D01*
X493118Y726261D01*
X493332Y726312D01*
X493548Y726357D01*
X493765Y726398D01*
X493982Y726433D01*
X494201Y726462D01*
X494420Y726487D01*
X494639Y726506D01*
X494859Y726519D01*
X495080Y726527D01*
X495300Y726530D01*
X495520Y726527D01*
X495741Y726519D01*
X495961Y726506D01*
X496180Y726487D01*
X496399Y726462D01*
X496618Y726433D01*
X496835Y726398D01*
X497052Y726357D01*
X497268Y726312D01*
X497482Y726261D01*
X497695Y726205D01*
X497907Y726143D01*
X498117Y726077D01*
X498325Y726005D01*
X498532Y725928D01*
X498736Y725846D01*
X498939Y725760D01*
X499139Y725668D01*
X499338Y725571D01*
X499533Y725470D01*
X499726Y725363D01*
X499917Y725252D01*
X500104Y725137D01*
X500289Y725017D01*
X500471Y724892D01*
X500649Y724763D01*
X500825Y724629D01*
X500997Y724492D01*
X501165Y724350D01*
X501331Y724204D01*
X501492Y724054D01*
X501650Y723900D01*
X501804Y723742D01*
X501954Y723581D01*
X502100Y723415D01*
X502242Y723247D01*
X502379Y723075D01*
X502513Y722899D01*
X502642Y722721D01*
X502767Y722539D01*
X502887Y722354D01*
X503002Y722167D01*
X503113Y721976D01*
X503220Y721783D01*
X503321Y721588D01*
X503418Y721389D01*
X503510Y721189D01*
X503596Y720986D01*
X503678Y720782D01*
X503755Y720575D01*
X503827Y720367D01*
X503893Y720157D01*
X503955Y719945D01*
X504011Y719732D01*
X504062Y719518D01*
X504107Y719302D01*
X504148Y719085D01*
X504183Y718868D01*
X504212Y718649D01*
X504237Y718430D01*
X504256Y718211D01*
X504269Y717991D01*
X504277Y717770D01*
X504280Y717550D01*
X504277Y717330D01*
X504269Y717109D01*
X504256Y716889D01*
X504237Y716670D01*
X504212Y716451D01*
X504183Y716232D01*
X504148Y716015D01*
X504107Y715798D01*
X504062Y715582D01*
X504011Y715368D01*
X503955Y715155D01*
X503893Y714943D01*
X503827Y714733D01*
X503755Y714525D01*
X503678Y714318D01*
X503596Y714114D01*
X503510Y713911D01*
X503418Y713711D01*
X503321Y713512D01*
X503220Y713317D01*
X503113Y713124D01*
X503002Y712933D01*
X502887Y712746D01*
X502767Y712561D01*
X502642Y712379D01*
X502513Y712201D01*
X502379Y712025D01*
X502242Y711853D01*
X502100Y711685D01*
X501954Y711519D01*
X501804Y711358D01*
X501650Y711200D01*
X501492Y711046D01*
X501331Y710896D01*
X501165Y710750D01*
X500997Y710608D01*
X500825Y710471D01*
X500649Y710337D01*
X500471Y710208D01*
X500289Y710083D01*
X500104Y709963D01*
X499917Y709848D01*
X499726Y709737D01*
X499533Y709630D01*
X499338Y709529D01*
X499139Y709432D01*
X498939Y709340D01*
X498736Y709254D01*
X498532Y709172D01*
X498325Y709095D01*
X498117Y709023D01*
X497907Y708957D01*
X497695Y708895D01*
X497482Y708839D01*
X497268Y708788D01*
X497052Y708743D01*
X496835Y708702D01*
X496618Y708667D01*
X496399Y708638D01*
X496180Y708613D01*
X495961Y708594D01*
X495741Y708581D01*
X495520Y708573D01*
X495300Y708570D01*
X495080Y708573D01*
X494859Y708581D01*
X494639Y708594D01*
X494420Y708613D01*
X494201Y708638D01*
X493982Y708667D01*
X493765Y708702D01*
X493548Y708743D01*
X493332Y708788D01*
X493118Y708839D01*
X492905Y708895D01*
X492693Y708957D01*
X492483Y709023D01*
X492275Y709095D01*
X492068Y709172D01*
X491864Y709254D01*
X491661Y709340D01*
X491461Y709432D01*
X491262Y709529D01*
X491067Y709630D01*
X490874Y709737D01*
X490683Y709848D01*
X490496Y709963D01*
X490311Y710083D01*
X490129Y710208D01*
X489951Y710337D01*
X489775Y710471D01*
X489603Y710608D01*
X489435Y710750D01*
X489269Y710896D01*
X489108Y711046D01*
X488950Y711200D01*
X488796Y711358D01*
X488646Y711519D01*
X488500Y711685D01*
X488358Y711853D01*
X488221Y712025D01*
X488087Y712201D01*
X487958Y712379D01*
X487833Y712561D01*
X487713Y712746D01*
X487598Y712933D01*
X487487Y713124D01*
X487380Y713317D01*
X487279Y713512D01*
X487182Y713711D01*
X487090Y713911D01*
X487004Y714114D01*
X486922Y714318D01*
X486845Y714525D01*
X486773Y714733D01*
X486707Y714943D01*
X486645Y715155D01*
X486589Y715368D01*
X486538Y715582D01*
X486493Y715798D01*
X486452Y716015D01*
X486417Y716232D01*
X486388Y716451D01*
X486363Y716670D01*
X486344Y716889D01*
X486331Y717109D01*
X486323Y717330D01*
X486320Y717550D01*
X406400Y717550D02*
X406420Y719446D01*
X406481Y721341D01*
X406582Y723235D01*
X406723Y725126D01*
X406905Y727013D01*
X407127Y728897D01*
X408958Y738722D02*
X409429Y740559D01*
X409939Y742386D01*
X410488Y744201D01*
X411076Y746003D01*
X411702Y747793D01*
X412366Y749570D01*
X416484Y758676D02*
X417380Y760348D01*
X418310Y762000D01*
X419276Y763632D01*
X420276Y765243D01*
X421310Y766833D01*
X422378Y768400D01*
X428547Y776264D02*
X429814Y777674D01*
X431111Y779057D01*
X432438Y780412D01*
X433793Y781739D01*
X435176Y783036D01*
X436586Y784303D01*
X444450Y790472D02*
X446017Y791540D01*
X447607Y792574D01*
X449218Y793574D01*
X450850Y794540D01*
X452502Y795470D01*
X454174Y796366D01*
X463280Y800484D02*
X465057Y801148D01*
X466847Y801774D01*
X468649Y802362D01*
X470464Y802911D01*
X472291Y803421D01*
X474128Y803892D01*
X483953Y805723D02*
X485837Y805945D01*
X487724Y806127D01*
X489615Y806268D01*
X491509Y806369D01*
X493404Y806430D01*
X495300Y806450D01*
X497196Y806430D01*
X499091Y806369D01*
X500985Y806268D01*
X502876Y806127D01*
X504763Y805945D01*
X506647Y805723D01*
X516472Y803892D02*
X518309Y803421D01*
X520136Y802911D01*
X521951Y802362D01*
X523753Y801774D01*
X525543Y801148D01*
X527320Y800484D01*
X536426Y796366D02*
X538098Y795470D01*
X539750Y794540D01*
X541382Y793574D01*
X542993Y792574D01*
X544583Y791540D01*
X546150Y790472D01*
X554014Y784303D02*
X555424Y783036D01*
X556807Y781739D01*
X558162Y780412D01*
X559489Y779057D01*
X560786Y777674D01*
X562053Y776264D01*
X568222Y768400D02*
X569290Y766833D01*
X570324Y765243D01*
X571324Y763632D01*
X572290Y762000D01*
X573220Y760348D01*
X574116Y758676D01*
X578234Y749570D02*
X578898Y747793D01*
X579524Y746003D01*
X580112Y744201D01*
X580661Y742386D01*
X581171Y740559D01*
X581642Y738722D01*
X583473Y728897D02*
X583695Y727013D01*
X583877Y725126D01*
X584018Y723235D01*
X584119Y721341D01*
X584180Y719446D01*
X584200Y717550D01*
X584180Y715654D01*
X584119Y713758D01*
X584018Y711865D01*
X583877Y709974D01*
X583695Y708086D01*
X583473Y706203D01*
X581642Y696378D02*
X581171Y694541D01*
X580660Y692715D01*
X580111Y690900D01*
X579524Y689097D01*
X578898Y687307D01*
X578234Y685531D01*
X574115Y676424D02*
X573220Y674752D01*
X572290Y673100D01*
X571324Y671468D01*
X570324Y669857D01*
X569290Y668268D01*
X568222Y666701D01*
X562053Y658837D02*
X560786Y657426D01*
X559488Y656043D01*
X558162Y654688D01*
X556807Y653362D01*
X555424Y652064D01*
X554013Y650797D01*
X546149Y644628D02*
X544582Y643560D01*
X542993Y642526D01*
X541382Y641526D01*
X539750Y640560D01*
X538098Y639630D01*
X536426Y638735D01*
X527319Y634616D02*
X525543Y633952D01*
X523753Y633326D01*
X521950Y632739D01*
X520135Y632190D01*
X518309Y631679D01*
X516472Y631208D01*
X506647Y629377D02*
X504764Y629155D01*
X502876Y628973D01*
X500985Y628832D01*
X499092Y628731D01*
X497196Y628670D01*
X495300Y628650D01*
X493404Y628670D01*
X491508Y628731D01*
X489615Y628832D01*
X487724Y628973D01*
X485836Y629155D01*
X483953Y629377D01*
X474128Y631208D02*
X472291Y631679D01*
X470465Y632190D01*
X468650Y632739D01*
X466847Y633326D01*
X465057Y633952D01*
X463281Y634616D01*
X454174Y638735D02*
X452502Y639630D01*
X450850Y640560D01*
X449218Y641526D01*
X447607Y642526D01*
X446018Y643560D01*
X444451Y644628D01*
X436587Y650797D02*
X435176Y652064D01*
X433793Y653362D01*
X432438Y654688D01*
X431112Y656043D01*
X429814Y657426D01*
X428547Y658837D01*
X422378Y666701D02*
X421310Y668268D01*
X420276Y669857D01*
X419276Y671468D01*
X418310Y673100D01*
X417380Y674752D01*
X416485Y676424D01*
X412366Y685531D02*
X411702Y687307D01*
X411076Y689097D01*
X410489Y690900D01*
X409940Y692715D01*
X409429Y694541D01*
X408958Y696378D01*
X407127Y706203D02*
X406905Y708086D01*
X406723Y709974D01*
X406582Y711865D01*
X406481Y713758D01*
X406420Y715654D01*
X406400Y717550D01*
X419100Y673100D02*
X419100Y659328D01*
X419100Y649328D02*
X419100Y635555D01*
X419100Y625555D02*
X419100Y611783D01*
X419100Y601783D02*
X419100Y588010D01*
X571500Y588010D02*
X571500Y601783D01*
X571500Y611783D02*
X571500Y625555D01*
X571500Y635555D02*
X571500Y649328D01*
X571500Y659328D02*
X571500Y673100D01*
X495300Y639517D02*
X495300Y628650D01*
X495300Y649517D02*
X495300Y660383D01*
X495300Y670383D02*
X495300Y681250D01*
X495300Y691250D02*
X495300Y702117D01*
X495300Y712117D02*
X495300Y722983D01*
X495300Y732983D02*
X495300Y743850D01*
X495300Y753850D02*
X495300Y764717D01*
X495300Y774717D02*
X495300Y785583D01*
X495300Y795583D02*
X495300Y806450D01*
X417267Y717550D02*
X406400Y717550D01*
X427267Y717550D02*
X438133Y717550D01*
X448133Y717550D02*
X459000Y717550D01*
X469000Y717550D02*
X479867Y717550D01*
X489867Y717550D02*
X500733Y717550D01*
X510733Y717550D02*
X521600Y717550D01*
X531600Y717550D02*
X542467Y717550D01*
X552467Y717550D02*
X563333Y717550D01*
X573333Y717550D02*
X584200Y717550D01*
X429400Y588010D02*
X419100Y588010D01*
X439400Y588010D02*
X449700Y588010D01*
X459700Y588010D02*
X470000Y588010D01*
X480000Y588010D02*
X490300Y588010D01*
X500300Y588010D02*
X510600Y588010D01*
X520600Y588010D02*
X530900Y588010D01*
X540900Y588010D02*
X551200Y588010D01*
X561200Y588010D02*
X571500Y588010D01*
X459740Y586740D02*
X429260Y586740D01*
X480060Y586740D02*
X510540Y586740D01*
X530860Y586740D02*
X561340Y586740D01*
X429260Y586740D02*
X429260Y556260D01*
X459740Y556260D01*
X459740Y586740D01*
X480060Y586740D02*
X480060Y556260D01*
X510540Y556260D01*
X510540Y586740D01*
X530860Y586740D02*
X530860Y556260D01*
X561340Y556260D01*
X561340Y586740D01*
D11*
X514145Y590042D02*
X514145Y601218D01*
X510420Y595009D01*
X506695Y601218D01*
X506695Y590042D01*
X500133Y590042D02*
X500133Y601218D01*
X501375Y590042D02*
X498891Y590042D01*
X498891Y601218D02*
X501375Y601218D01*
X494714Y590042D02*
X487264Y601218D01*
X494714Y601218D02*
X487264Y590042D01*
X476455Y598424D02*
X476457Y598528D01*
X476463Y598633D01*
X476473Y598737D01*
X476486Y598840D01*
X476504Y598943D01*
X476525Y599046D01*
X476550Y599147D01*
X476579Y599248D01*
X476612Y599347D01*
X476648Y599445D01*
X476688Y599541D01*
X476732Y599636D01*
X476779Y599730D01*
X476829Y599821D01*
X476883Y599910D01*
X476940Y599998D01*
X477001Y600083D01*
X477065Y600166D01*
X477131Y600246D01*
X477201Y600324D01*
X477273Y600400D01*
X477349Y600472D01*
X477427Y600542D01*
X477507Y600608D01*
X477590Y600672D01*
X477675Y600733D01*
X477763Y600790D01*
X477852Y600844D01*
X477943Y600894D01*
X478037Y600941D01*
X478132Y600985D01*
X478228Y601025D01*
X478326Y601061D01*
X478425Y601094D01*
X478526Y601123D01*
X478627Y601148D01*
X478730Y601169D01*
X478833Y601187D01*
X478936Y601200D01*
X479040Y601210D01*
X479145Y601216D01*
X479249Y601218D01*
X479249Y601219D02*
X479368Y601217D01*
X479486Y601211D01*
X479605Y601201D01*
X479723Y601188D01*
X479840Y601170D01*
X479957Y601148D01*
X480073Y601123D01*
X480188Y601094D01*
X480303Y601061D01*
X480416Y601024D01*
X480527Y600984D01*
X480638Y600940D01*
X480746Y600892D01*
X480853Y600841D01*
X480959Y600786D01*
X481062Y600727D01*
X481164Y600666D01*
X481263Y600601D01*
X481361Y600532D01*
X481455Y600461D01*
X481548Y600386D01*
X481638Y600309D01*
X481725Y600228D01*
X481810Y600145D01*
X481892Y600059D01*
X481971Y599970D01*
X482047Y599879D01*
X482120Y599785D01*
X482189Y599689D01*
X482256Y599590D01*
X482319Y599490D01*
X482379Y599387D01*
X482436Y599283D01*
X482488Y599176D01*
X482538Y599068D01*
X482584Y598959D01*
X482626Y598847D01*
X482664Y598735D01*
X477386Y596251D02*
X477311Y596325D01*
X477239Y596402D01*
X477169Y596481D01*
X477102Y596563D01*
X477038Y596647D01*
X476977Y596733D01*
X476919Y596821D01*
X476864Y596912D01*
X476812Y597004D01*
X476764Y597098D01*
X476719Y597193D01*
X476677Y597291D01*
X476639Y597389D01*
X476604Y597489D01*
X476573Y597590D01*
X476546Y597692D01*
X476522Y597795D01*
X476501Y597898D01*
X476485Y598003D01*
X476472Y598108D01*
X476462Y598213D01*
X476457Y598318D01*
X476455Y598424D01*
X477386Y596251D02*
X482664Y590042D01*
X476455Y590042D01*
D10*
X285750Y717550D02*
X285752Y717709D01*
X285758Y717868D01*
X285768Y718026D01*
X285782Y718185D01*
X285800Y718343D01*
X285821Y718500D01*
X285847Y718657D01*
X285877Y718813D01*
X285910Y718969D01*
X285948Y719123D01*
X285989Y719277D01*
X286034Y719429D01*
X286083Y719580D01*
X286136Y719730D01*
X286192Y719879D01*
X286253Y720026D01*
X286316Y720171D01*
X286384Y720315D01*
X286455Y720458D01*
X286529Y720598D01*
X286607Y720736D01*
X286689Y720873D01*
X286774Y721007D01*
X286862Y721140D01*
X286953Y721270D01*
X287048Y721397D01*
X287146Y721522D01*
X287247Y721645D01*
X287351Y721765D01*
X287458Y721883D01*
X287568Y721998D01*
X287681Y722110D01*
X287796Y722219D01*
X287914Y722325D01*
X288035Y722429D01*
X288159Y722529D01*
X288284Y722626D01*
X288413Y722720D01*
X288543Y722810D01*
X288676Y722898D01*
X288811Y722982D01*
X288948Y723062D01*
X289087Y723140D01*
X289228Y723213D01*
X289370Y723283D01*
X289515Y723350D01*
X289661Y723413D01*
X289808Y723472D01*
X289957Y723528D01*
X290108Y723579D01*
X290259Y723627D01*
X290412Y723671D01*
X290566Y723712D01*
X290720Y723748D01*
X290876Y723781D01*
X291032Y723810D01*
X291189Y723834D01*
X291347Y723855D01*
X291505Y723872D01*
X291663Y723885D01*
X291822Y723894D01*
X291981Y723899D01*
X292140Y723900D01*
X292299Y723897D01*
X292457Y723890D01*
X292616Y723879D01*
X292774Y723864D01*
X292932Y723845D01*
X293089Y723822D01*
X293246Y723796D01*
X293402Y723765D01*
X293557Y723731D01*
X293711Y723692D01*
X293865Y723650D01*
X294017Y723604D01*
X294168Y723554D01*
X294317Y723500D01*
X294466Y723443D01*
X294612Y723382D01*
X294758Y723317D01*
X294901Y723249D01*
X295043Y723177D01*
X295183Y723101D01*
X295321Y723023D01*
X295457Y722940D01*
X295591Y722855D01*
X295722Y722766D01*
X295852Y722673D01*
X295979Y722578D01*
X296103Y722479D01*
X296226Y722377D01*
X296345Y722273D01*
X296462Y722165D01*
X296576Y722054D01*
X296687Y721941D01*
X296796Y721825D01*
X296901Y721706D01*
X297004Y721584D01*
X297103Y721460D01*
X297200Y721334D01*
X297293Y721205D01*
X297383Y721074D01*
X297469Y720940D01*
X297552Y720805D01*
X297632Y720667D01*
X297708Y720528D01*
X297781Y720387D01*
X297850Y720244D01*
X297916Y720099D01*
X297978Y719952D01*
X298036Y719805D01*
X298091Y719655D01*
X298142Y719505D01*
X298189Y719353D01*
X298232Y719200D01*
X298271Y719046D01*
X298307Y718891D01*
X298338Y718735D01*
X298366Y718579D01*
X298390Y718422D01*
X298410Y718264D01*
X298426Y718106D01*
X298438Y717947D01*
X298446Y717788D01*
X298450Y717629D01*
X298450Y717471D01*
X298446Y717312D01*
X298438Y717153D01*
X298426Y716994D01*
X298410Y716836D01*
X298390Y716678D01*
X298366Y716521D01*
X298338Y716365D01*
X298307Y716209D01*
X298271Y716054D01*
X298232Y715900D01*
X298189Y715747D01*
X298142Y715595D01*
X298091Y715445D01*
X298036Y715295D01*
X297978Y715148D01*
X297916Y715001D01*
X297850Y714856D01*
X297781Y714713D01*
X297708Y714572D01*
X297632Y714433D01*
X297552Y714295D01*
X297469Y714160D01*
X297383Y714026D01*
X297293Y713895D01*
X297200Y713766D01*
X297103Y713640D01*
X297004Y713516D01*
X296901Y713394D01*
X296796Y713275D01*
X296687Y713159D01*
X296576Y713046D01*
X296462Y712935D01*
X296345Y712827D01*
X296226Y712723D01*
X296103Y712621D01*
X295979Y712522D01*
X295852Y712427D01*
X295722Y712334D01*
X295591Y712245D01*
X295457Y712160D01*
X295321Y712077D01*
X295183Y711999D01*
X295043Y711923D01*
X294901Y711851D01*
X294758Y711783D01*
X294612Y711718D01*
X294466Y711657D01*
X294317Y711600D01*
X294168Y711546D01*
X294017Y711496D01*
X293865Y711450D01*
X293711Y711408D01*
X293557Y711369D01*
X293402Y711335D01*
X293246Y711304D01*
X293089Y711278D01*
X292932Y711255D01*
X292774Y711236D01*
X292616Y711221D01*
X292457Y711210D01*
X292299Y711203D01*
X292140Y711200D01*
X291981Y711201D01*
X291822Y711206D01*
X291663Y711215D01*
X291505Y711228D01*
X291347Y711245D01*
X291189Y711266D01*
X291032Y711290D01*
X290876Y711319D01*
X290720Y711352D01*
X290566Y711388D01*
X290412Y711429D01*
X290259Y711473D01*
X290108Y711521D01*
X289957Y711572D01*
X289808Y711628D01*
X289661Y711687D01*
X289515Y711750D01*
X289370Y711817D01*
X289228Y711887D01*
X289087Y711960D01*
X288948Y712038D01*
X288811Y712118D01*
X288676Y712202D01*
X288543Y712290D01*
X288413Y712380D01*
X288284Y712474D01*
X288159Y712571D01*
X288035Y712671D01*
X287914Y712775D01*
X287796Y712881D01*
X287681Y712990D01*
X287568Y713102D01*
X287458Y713217D01*
X287351Y713335D01*
X287247Y713455D01*
X287146Y713578D01*
X287048Y713703D01*
X286953Y713830D01*
X286862Y713960D01*
X286774Y714093D01*
X286689Y714227D01*
X286607Y714364D01*
X286529Y714502D01*
X286455Y714642D01*
X286384Y714785D01*
X286316Y714929D01*
X286253Y715074D01*
X286192Y715221D01*
X286136Y715370D01*
X286083Y715520D01*
X286034Y715671D01*
X285989Y715823D01*
X285948Y715977D01*
X285910Y716131D01*
X285877Y716287D01*
X285847Y716443D01*
X285821Y716600D01*
X285800Y716757D01*
X285782Y716915D01*
X285768Y717074D01*
X285758Y717232D01*
X285752Y717391D01*
X285750Y717550D01*
D11*
X226060Y676910D02*
X226060Y671830D01*
X226060Y676910D02*
X220980Y676910D01*
X220980Y758190D01*
X226060Y758190D01*
X226060Y763270D01*
X358140Y763270D01*
X358140Y758190D01*
X363220Y758190D01*
X363220Y676910D01*
X358140Y676910D01*
X358140Y671830D01*
X226060Y671830D01*
D10*
X285750Y717550D02*
X298450Y717550D01*
X292100Y711200D02*
X292100Y723900D01*
D14*
X357505Y709410D02*
X357507Y709468D01*
X357513Y709525D01*
X357523Y709582D01*
X357536Y709639D01*
X357554Y709694D01*
X357575Y709747D01*
X357600Y709800D01*
X357628Y709850D01*
X357660Y709898D01*
X357695Y709945D01*
X357733Y709988D01*
X357774Y710029D01*
X357817Y710067D01*
X357864Y710102D01*
X357912Y710134D01*
X357962Y710162D01*
X358015Y710187D01*
X358068Y710208D01*
X358123Y710226D01*
X358180Y710239D01*
X358237Y710249D01*
X358294Y710255D01*
X358352Y710257D01*
X357505Y709410D02*
X357507Y709327D01*
X357513Y709244D01*
X357522Y709162D01*
X357536Y709080D01*
X357553Y708999D01*
X357574Y708918D01*
X357599Y708839D01*
X357627Y708761D01*
X357659Y708684D01*
X357694Y708609D01*
X357733Y708536D01*
X357776Y708464D01*
X357821Y708395D01*
X357870Y708328D01*
X357922Y708263D01*
X357976Y708200D01*
X358034Y708140D01*
X360468Y708246D02*
X360523Y708248D01*
X360579Y708253D01*
X360633Y708262D01*
X360687Y708275D01*
X360740Y708291D01*
X360792Y708310D01*
X360843Y708333D01*
X360892Y708359D01*
X360939Y708389D01*
X360984Y708421D01*
X361026Y708456D01*
X361067Y708494D01*
X361105Y708535D01*
X361140Y708577D01*
X361172Y708622D01*
X361202Y708670D01*
X361228Y708718D01*
X361251Y708769D01*
X361270Y708821D01*
X361286Y708874D01*
X361299Y708928D01*
X361308Y708982D01*
X361313Y709038D01*
X361315Y709093D01*
X361316Y709093D02*
X361314Y709172D01*
X361308Y709250D01*
X361299Y709328D01*
X361285Y709405D01*
X361268Y709482D01*
X361246Y709558D01*
X361222Y709632D01*
X361193Y709706D01*
X361161Y709777D01*
X361125Y709847D01*
X361086Y709916D01*
X361044Y709982D01*
X360998Y710046D01*
X359727Y708669D02*
X359757Y708622D01*
X359790Y708577D01*
X359826Y708534D01*
X359864Y708494D01*
X359905Y708456D01*
X359948Y708421D01*
X359994Y708389D01*
X360041Y708359D01*
X360091Y708333D01*
X360142Y708310D01*
X360194Y708291D01*
X360247Y708275D01*
X360302Y708262D01*
X360357Y708253D01*
X360412Y708248D01*
X360468Y708246D01*
X359093Y709834D02*
X359063Y709881D01*
X359030Y709926D01*
X358994Y709969D01*
X358956Y710009D01*
X358915Y710047D01*
X358872Y710082D01*
X358826Y710114D01*
X358779Y710144D01*
X358729Y710170D01*
X358678Y710193D01*
X358626Y710212D01*
X358573Y710228D01*
X358518Y710241D01*
X358463Y710250D01*
X358408Y710255D01*
X358352Y710257D01*
X359093Y709834D02*
X359728Y708669D01*
X361315Y711529D02*
X357505Y712375D01*
X360045Y713222D01*
X357505Y714069D01*
X361315Y714915D01*
X361315Y716636D02*
X357505Y716636D01*
X357505Y717059D02*
X357505Y716212D01*
X361315Y716212D02*
X361315Y717059D01*
X361315Y719318D02*
X357505Y719318D01*
X361315Y718260D02*
X361315Y720376D01*
X357505Y722510D02*
X357505Y723357D01*
X357505Y722510D02*
X357507Y722455D01*
X357512Y722399D01*
X357521Y722345D01*
X357534Y722291D01*
X357550Y722238D01*
X357569Y722186D01*
X357592Y722135D01*
X357618Y722087D01*
X357648Y722039D01*
X357680Y721994D01*
X357715Y721952D01*
X357753Y721911D01*
X357794Y721873D01*
X357836Y721838D01*
X357881Y721806D01*
X357929Y721776D01*
X357977Y721750D01*
X358028Y721727D01*
X358080Y721708D01*
X358133Y721692D01*
X358187Y721679D01*
X358241Y721670D01*
X358297Y721665D01*
X358352Y721663D01*
X358352Y721664D02*
X360468Y721664D01*
X360468Y721663D02*
X360526Y721665D01*
X360583Y721671D01*
X360640Y721681D01*
X360697Y721694D01*
X360752Y721712D01*
X360805Y721733D01*
X360858Y721758D01*
X360908Y721786D01*
X360956Y721818D01*
X361003Y721853D01*
X361046Y721891D01*
X361087Y721932D01*
X361125Y721975D01*
X361160Y722022D01*
X361192Y722070D01*
X361220Y722120D01*
X361245Y722173D01*
X361266Y722226D01*
X361284Y722281D01*
X361297Y722338D01*
X361307Y722395D01*
X361313Y722452D01*
X361315Y722510D01*
X361315Y723357D01*
X361315Y724843D02*
X357505Y724843D01*
X359622Y724843D02*
X359622Y726960D01*
X361315Y726960D02*
X357505Y726960D01*
D13*
X313320Y772668D02*
X313320Y784352D01*
X309426Y777861D01*
X305531Y784352D01*
X305531Y772668D01*
X300098Y775914D02*
X300098Y781106D01*
X300099Y781106D02*
X300097Y781219D01*
X300091Y781332D01*
X300081Y781445D01*
X300067Y781558D01*
X300050Y781670D01*
X300028Y781781D01*
X300003Y781891D01*
X299973Y782001D01*
X299940Y782109D01*
X299903Y782216D01*
X299863Y782322D01*
X299818Y782426D01*
X299770Y782529D01*
X299719Y782630D01*
X299664Y782729D01*
X299606Y782826D01*
X299544Y782921D01*
X299479Y783014D01*
X299411Y783104D01*
X299340Y783192D01*
X299265Y783278D01*
X299188Y783361D01*
X299108Y783441D01*
X299025Y783518D01*
X298939Y783593D01*
X298851Y783664D01*
X298761Y783732D01*
X298668Y783797D01*
X298573Y783859D01*
X298476Y783917D01*
X298377Y783972D01*
X298276Y784023D01*
X298173Y784071D01*
X298069Y784116D01*
X297963Y784156D01*
X297856Y784193D01*
X297748Y784226D01*
X297638Y784256D01*
X297528Y784281D01*
X297417Y784303D01*
X297305Y784320D01*
X297192Y784334D01*
X297079Y784344D01*
X296966Y784350D01*
X296853Y784352D01*
X296740Y784350D01*
X296627Y784344D01*
X296514Y784334D01*
X296401Y784320D01*
X296289Y784303D01*
X296178Y784281D01*
X296068Y784256D01*
X295958Y784226D01*
X295850Y784193D01*
X295743Y784156D01*
X295637Y784116D01*
X295533Y784071D01*
X295430Y784023D01*
X295329Y783972D01*
X295230Y783917D01*
X295133Y783859D01*
X295038Y783797D01*
X294945Y783732D01*
X294855Y783664D01*
X294767Y783593D01*
X294681Y783518D01*
X294598Y783441D01*
X294518Y783361D01*
X294441Y783278D01*
X294366Y783192D01*
X294295Y783104D01*
X294227Y783014D01*
X294162Y782921D01*
X294100Y782826D01*
X294042Y782729D01*
X293987Y782630D01*
X293936Y782529D01*
X293888Y782426D01*
X293843Y782322D01*
X293803Y782216D01*
X293766Y782109D01*
X293733Y782001D01*
X293703Y781891D01*
X293678Y781781D01*
X293656Y781670D01*
X293639Y781558D01*
X293625Y781445D01*
X293615Y781332D01*
X293609Y781219D01*
X293607Y781106D01*
X293607Y775914D01*
X293609Y775801D01*
X293615Y775688D01*
X293625Y775575D01*
X293639Y775462D01*
X293656Y775350D01*
X293678Y775239D01*
X293703Y775129D01*
X293733Y775019D01*
X293766Y774911D01*
X293803Y774804D01*
X293843Y774698D01*
X293888Y774594D01*
X293936Y774491D01*
X293987Y774390D01*
X294042Y774291D01*
X294100Y774194D01*
X294162Y774099D01*
X294227Y774006D01*
X294295Y773916D01*
X294366Y773828D01*
X294441Y773742D01*
X294518Y773659D01*
X294598Y773579D01*
X294681Y773502D01*
X294767Y773427D01*
X294855Y773356D01*
X294945Y773288D01*
X295038Y773223D01*
X295133Y773161D01*
X295230Y773103D01*
X295329Y773048D01*
X295430Y772997D01*
X295533Y772949D01*
X295637Y772904D01*
X295743Y772864D01*
X295850Y772827D01*
X295958Y772794D01*
X296068Y772764D01*
X296178Y772739D01*
X296289Y772717D01*
X296401Y772700D01*
X296514Y772686D01*
X296627Y772676D01*
X296740Y772670D01*
X296853Y772668D01*
X296966Y772670D01*
X297079Y772676D01*
X297192Y772686D01*
X297305Y772700D01*
X297417Y772717D01*
X297528Y772739D01*
X297638Y772764D01*
X297748Y772794D01*
X297856Y772827D01*
X297963Y772864D01*
X298069Y772904D01*
X298173Y772949D01*
X298276Y772997D01*
X298377Y773048D01*
X298476Y773103D01*
X298573Y773161D01*
X298668Y773223D01*
X298761Y773288D01*
X298851Y773356D01*
X298939Y773427D01*
X299025Y773502D01*
X299108Y773579D01*
X299188Y773659D01*
X299265Y773742D01*
X299340Y773828D01*
X299411Y773916D01*
X299479Y774006D01*
X299544Y774099D01*
X299606Y774194D01*
X299664Y774291D01*
X299719Y774390D01*
X299770Y774491D01*
X299818Y774594D01*
X299863Y774698D01*
X299903Y774804D01*
X299940Y774911D01*
X299973Y775019D01*
X300003Y775129D01*
X300028Y775239D01*
X300050Y775350D01*
X300067Y775462D01*
X300081Y775575D01*
X300091Y775688D01*
X300097Y775801D01*
X300099Y775914D01*
X288287Y772668D02*
X288287Y784352D01*
X285042Y784352D01*
X284929Y784350D01*
X284816Y784344D01*
X284703Y784334D01*
X284590Y784320D01*
X284478Y784303D01*
X284367Y784281D01*
X284257Y784256D01*
X284147Y784226D01*
X284039Y784193D01*
X283932Y784156D01*
X283826Y784116D01*
X283722Y784071D01*
X283619Y784023D01*
X283518Y783972D01*
X283419Y783917D01*
X283322Y783859D01*
X283227Y783797D01*
X283134Y783732D01*
X283044Y783664D01*
X282956Y783593D01*
X282870Y783518D01*
X282787Y783441D01*
X282707Y783361D01*
X282630Y783278D01*
X282555Y783192D01*
X282484Y783104D01*
X282416Y783014D01*
X282351Y782921D01*
X282289Y782826D01*
X282231Y782729D01*
X282176Y782630D01*
X282125Y782529D01*
X282077Y782426D01*
X282032Y782322D01*
X281992Y782216D01*
X281955Y782109D01*
X281922Y782001D01*
X281892Y781891D01*
X281867Y781781D01*
X281845Y781670D01*
X281828Y781558D01*
X281814Y781445D01*
X281804Y781332D01*
X281798Y781219D01*
X281796Y781106D01*
X281796Y775914D01*
X281798Y775801D01*
X281804Y775688D01*
X281814Y775575D01*
X281828Y775462D01*
X281845Y775350D01*
X281867Y775239D01*
X281892Y775129D01*
X281922Y775019D01*
X281955Y774911D01*
X281992Y774804D01*
X282032Y774698D01*
X282077Y774594D01*
X282125Y774491D01*
X282176Y774390D01*
X282231Y774291D01*
X282289Y774194D01*
X282351Y774099D01*
X282416Y774006D01*
X282484Y773916D01*
X282555Y773828D01*
X282630Y773742D01*
X282707Y773659D01*
X282787Y773579D01*
X282870Y773502D01*
X282956Y773427D01*
X283044Y773356D01*
X283134Y773288D01*
X283227Y773223D01*
X283322Y773161D01*
X283419Y773103D01*
X283518Y773048D01*
X283619Y772997D01*
X283722Y772949D01*
X283826Y772904D01*
X283932Y772864D01*
X284039Y772827D01*
X284147Y772794D01*
X284257Y772764D01*
X284367Y772739D01*
X284478Y772717D01*
X284590Y772700D01*
X284703Y772686D01*
X284816Y772676D01*
X284929Y772670D01*
X285042Y772668D01*
X288287Y772668D01*
X276073Y772668D02*
X270880Y772668D01*
X276073Y772668D02*
X276073Y784352D01*
X270880Y784352D01*
X272178Y779159D02*
X276073Y779159D01*
M02*
