G04 EAGLE Gerber RS-274X export*
G75*
%MOMM*%
%FSLAX34Y34*%
%LPD*%
%INSoldermask Bottom*%
%IPPOS*%
%AMOC8*
5,1,8,0,0,1.08239X$1,22.5*%
G01*
%ADD10P,2.556822X8X22.500000*%
%ADD11P,1.951982X8X202.500000*%
%ADD12C,1.803400*%
%ADD13C,1.981200*%
%ADD14R,1.981200X1.981200*%
%ADD15R,2.743200X2.743200*%
%ADD16C,2.743200*%
%ADD17P,2.556822X8X202.500000*%
%ADD18R,3.619200X3.619200*%
%ADD19C,3.619200*%
%ADD20C,2.133600*%
%ADD21P,1.951982X8X292.500000*%


D10*
X190500Y838200D03*
D11*
X139700Y787400D03*
D12*
X165100Y787400D03*
D11*
X139700Y723900D03*
D12*
X165100Y723900D03*
D11*
X50800Y635000D03*
D12*
X76200Y635000D03*
D13*
X304800Y241300D03*
D14*
X279400Y241300D03*
D15*
X139700Y838200D03*
D16*
X88900Y838200D03*
X38100Y838200D03*
D10*
X393700Y838200D03*
X228600Y838200D03*
X355600Y838200D03*
X330200Y241300D03*
X190500Y241300D03*
D17*
X254000Y241300D03*
D10*
X368300Y241300D03*
X393700Y241300D03*
D15*
X546100Y838200D03*
D16*
X495300Y838200D03*
X444500Y838200D03*
D15*
X139700Y571500D03*
D16*
X88900Y571500D03*
X38100Y571500D03*
D15*
X546100Y571500D03*
D16*
X495300Y571500D03*
X444500Y571500D03*
D10*
X292100Y533400D03*
X266700Y533400D03*
X317500Y533400D03*
X215900Y241300D03*
D18*
X243760Y693420D03*
D19*
X292060Y693420D03*
X340360Y693420D03*
X243760Y741720D03*
X292060Y741720D03*
X340360Y741720D03*
D20*
X266700Y622300D03*
X292100Y647700D03*
X317500Y622300D03*
D21*
X546100Y617220D03*
D12*
X546100Y652780D03*
M02*
