G04 EAGLE Gerber RS-274X export*
G75*
%MOMM*%
%FSLAX34Y34*%
%LPD*%
%INSoldermask Top*%
%IPPOS*%
%AMOC8*
5,1,8,0,0,1.08239X$1,22.5*%
G01*
%ADD10P,2.556822X8X22.500000*%
%ADD11P,1.951982X8X202.500000*%
%ADD12C,1.803400*%
%ADD13R,1.503200X1.703200*%
%ADD14R,1.703200X1.503200*%
%ADD15C,1.981200*%
%ADD16R,1.981200X1.981200*%
%ADD17R,1.403200X0.953200*%
%ADD18R,2.743200X2.743200*%
%ADD19C,2.743200*%
%ADD20R,1.503200X2.353200*%
%ADD21R,5.703200X5.903200*%
%ADD22R,2.235200X0.863600*%
%ADD23P,2.556822X8X202.500000*%
%ADD24R,0.838200X2.743200*%
%ADD25R,3.619200X3.619200*%
%ADD26C,3.619200*%
%ADD27C,2.133600*%
%ADD28P,1.951982X8X292.500000*%


D10*
X190500Y838200D03*
D11*
X139700Y787400D03*
D12*
X165100Y787400D03*
D13*
X28600Y533400D03*
X47600Y533400D03*
D14*
X50800Y435000D03*
X50800Y454000D03*
X76200Y454000D03*
X76200Y435000D03*
D13*
X98400Y533400D03*
X79400Y533400D03*
X206400Y571500D03*
X225400Y571500D03*
D14*
X101600Y435000D03*
X101600Y454000D03*
X127000Y435000D03*
X127000Y454000D03*
X177800Y504800D03*
X177800Y485800D03*
X152400Y485800D03*
X152400Y504800D03*
D13*
X257200Y469900D03*
X276200Y469900D03*
D11*
X139700Y723900D03*
D12*
X165100Y723900D03*
D13*
X206400Y520700D03*
X225400Y520700D03*
D14*
X76200Y485800D03*
X76200Y504800D03*
X495300Y251410D03*
X495300Y232410D03*
D13*
X377800Y520700D03*
X358800Y520700D03*
X327000Y495300D03*
X308000Y495300D03*
D14*
X406400Y454000D03*
X406400Y435000D03*
X457200Y454000D03*
X457200Y435000D03*
X431800Y504800D03*
X431800Y485800D03*
D13*
X358800Y546100D03*
X377800Y546100D03*
X479400Y533400D03*
X460400Y533400D03*
D11*
X50800Y635000D03*
D12*
X76200Y635000D03*
D14*
X482600Y454000D03*
X482600Y435000D03*
X508000Y435000D03*
X508000Y454000D03*
D13*
X358800Y571500D03*
X377800Y571500D03*
D14*
X558800Y485800D03*
X558800Y504800D03*
X482600Y504800D03*
X482600Y485800D03*
D13*
X530200Y533400D03*
X511200Y533400D03*
X257200Y444500D03*
X276200Y444500D03*
X206400Y444500D03*
X225400Y444500D03*
X327000Y419100D03*
X308000Y419100D03*
X377800Y393700D03*
X358800Y393700D03*
X384200Y749300D03*
X403200Y749300D03*
X327000Y292100D03*
X308000Y292100D03*
X142900Y596900D03*
X161900Y596900D03*
X327000Y571500D03*
X308000Y571500D03*
X403200Y647700D03*
X384200Y647700D03*
D14*
X165100Y231800D03*
X165100Y250800D03*
D13*
X206400Y317500D03*
X225400Y317500D03*
D14*
X63500Y250140D03*
X63500Y231140D03*
D13*
X206400Y368300D03*
X225400Y368300D03*
D15*
X304800Y241300D03*
D16*
X279400Y241300D03*
D17*
X275100Y838200D03*
X309100Y838200D03*
D18*
X139700Y838200D03*
D19*
X88900Y838200D03*
X38100Y838200D03*
D10*
X393700Y838200D03*
X228600Y838200D03*
X355600Y838200D03*
X330200Y241300D03*
D20*
X40650Y694100D03*
D21*
X63500Y760750D03*
D20*
X86350Y694100D03*
D22*
X439166Y749300D03*
X500634Y749300D03*
X439166Y736600D03*
X439166Y723900D03*
X500634Y736600D03*
X500634Y723900D03*
X439166Y711200D03*
X500634Y711200D03*
X439166Y698500D03*
X439166Y685800D03*
X500634Y698500D03*
X500634Y685800D03*
X439166Y673100D03*
X500634Y673100D03*
X261366Y393700D03*
X322834Y393700D03*
X261366Y381000D03*
X261366Y368300D03*
X322834Y381000D03*
X322834Y368300D03*
X261366Y355600D03*
X322834Y355600D03*
X261366Y342900D03*
X261366Y330200D03*
X322834Y342900D03*
X322834Y330200D03*
X261366Y317500D03*
X322834Y317500D03*
D10*
X190500Y241300D03*
D23*
X254000Y241300D03*
D10*
X368300Y241300D03*
X393700Y241300D03*
D13*
X282600Y266700D03*
X301600Y266700D03*
X536600Y749300D03*
X555600Y749300D03*
X555600Y698500D03*
X536600Y698500D03*
X536600Y774700D03*
X555600Y774700D03*
D14*
X139700Y231800D03*
X139700Y250800D03*
D13*
X206400Y292100D03*
X225400Y292100D03*
X206400Y342900D03*
X225400Y342900D03*
D14*
X88900Y231800D03*
X88900Y250800D03*
X25400Y485800D03*
X25400Y504800D03*
D13*
X142900Y673100D03*
X161900Y673100D03*
D14*
X25400Y435000D03*
X25400Y454000D03*
X50800Y485800D03*
X50800Y504800D03*
X127000Y485800D03*
X127000Y504800D03*
X101600Y504800D03*
X101600Y485800D03*
D13*
X149200Y533400D03*
X130200Y533400D03*
X225400Y546100D03*
X206400Y546100D03*
X225400Y495300D03*
X206400Y495300D03*
X206400Y469900D03*
X225400Y469900D03*
D14*
X152400Y454000D03*
X152400Y435000D03*
X177800Y454000D03*
X177800Y435000D03*
D13*
X161900Y647700D03*
X142900Y647700D03*
D14*
X520700Y231800D03*
X520700Y250800D03*
D13*
X327000Y469900D03*
X308000Y469900D03*
X377800Y469900D03*
X358800Y469900D03*
X377800Y495300D03*
X358800Y495300D03*
D14*
X406400Y504800D03*
X406400Y485800D03*
X431800Y454000D03*
X431800Y435000D03*
D13*
X428600Y533400D03*
X409600Y533400D03*
D14*
X457200Y504800D03*
X457200Y485800D03*
X508000Y504800D03*
X508000Y485800D03*
X533400Y504800D03*
X533400Y485800D03*
D13*
X384200Y774700D03*
X403200Y774700D03*
D14*
X533400Y454000D03*
X533400Y435000D03*
X558800Y454000D03*
X558800Y435000D03*
D13*
X276200Y419100D03*
X257200Y419100D03*
X206400Y393700D03*
X225400Y393700D03*
X257200Y495300D03*
X276200Y495300D03*
X206400Y419100D03*
X225400Y419100D03*
D14*
X444500Y250800D03*
X444500Y231800D03*
D13*
X377800Y419100D03*
X358800Y419100D03*
X377800Y444500D03*
X358800Y444500D03*
X308000Y444500D03*
X327000Y444500D03*
X504800Y774700D03*
X485800Y774700D03*
X358800Y368300D03*
X377800Y368300D03*
D14*
X419100Y231800D03*
X419100Y250800D03*
D13*
X257200Y292100D03*
X276200Y292100D03*
X358800Y292100D03*
X377800Y292100D03*
X276200Y571500D03*
X257200Y571500D03*
X555600Y723900D03*
X536600Y723900D03*
X403200Y698500D03*
X384200Y698500D03*
X384200Y673100D03*
X403200Y673100D03*
X384200Y622300D03*
X403200Y622300D03*
X454000Y622300D03*
X435000Y622300D03*
D18*
X546100Y838200D03*
D19*
X495300Y838200D03*
X444500Y838200D03*
D24*
X19050Y290830D03*
X31750Y290830D03*
X44450Y290830D03*
X57150Y290830D03*
X69850Y290830D03*
X82550Y290830D03*
X95250Y290830D03*
X107950Y290830D03*
X120650Y290830D03*
X133350Y290830D03*
X146050Y290830D03*
X158750Y290830D03*
X171450Y290830D03*
X184150Y290830D03*
X184150Y394970D03*
X171450Y394970D03*
X158750Y394970D03*
X146050Y394970D03*
X133350Y394970D03*
X120650Y394970D03*
X107950Y394970D03*
X95250Y394970D03*
X82550Y394970D03*
X69850Y394970D03*
X57150Y394970D03*
X44450Y394970D03*
X31750Y394970D03*
X19050Y394970D03*
X400050Y290830D03*
X412750Y290830D03*
X425450Y290830D03*
X438150Y290830D03*
X450850Y290830D03*
X463550Y290830D03*
X476250Y290830D03*
X488950Y290830D03*
X501650Y290830D03*
X514350Y290830D03*
X527050Y290830D03*
X539750Y290830D03*
X552450Y290830D03*
X565150Y290830D03*
X565150Y394970D03*
X552450Y394970D03*
X539750Y394970D03*
X527050Y394970D03*
X514350Y394970D03*
X501650Y394970D03*
X488950Y394970D03*
X476250Y394970D03*
X463550Y394970D03*
X450850Y394970D03*
X438150Y394970D03*
X425450Y394970D03*
X412750Y394970D03*
X400050Y394970D03*
D14*
X469900Y231800D03*
X469900Y250800D03*
X38100Y231800D03*
X38100Y250800D03*
D13*
X435000Y647700D03*
X454000Y647700D03*
D14*
X490220Y625500D03*
X490220Y644500D03*
D18*
X139700Y571500D03*
D19*
X88900Y571500D03*
X38100Y571500D03*
D18*
X546100Y571500D03*
D19*
X495300Y571500D03*
X444500Y571500D03*
D14*
X114300Y250800D03*
X114300Y231800D03*
X546100Y231800D03*
X546100Y250800D03*
D10*
X292100Y533400D03*
X266700Y533400D03*
X317500Y533400D03*
X215900Y241300D03*
D13*
X377800Y317500D03*
X358800Y317500D03*
X358800Y342900D03*
X377800Y342900D03*
D25*
X243760Y693420D03*
D26*
X292060Y693420D03*
X340360Y693420D03*
X243760Y741720D03*
X292060Y741720D03*
X340360Y741720D03*
D27*
X266700Y622300D03*
X292100Y647700D03*
X317500Y622300D03*
D13*
X384200Y723900D03*
X403200Y723900D03*
X142900Y622300D03*
X161900Y622300D03*
X454000Y774700D03*
X435000Y774700D03*
D28*
X546100Y617220D03*
D12*
X546100Y652780D03*
M02*
