M48
;GenerationSoftware,Autodesk,EAGLE,9.3.2*%
;CreationDate,2022-03-03T01:31:30Z*%
FMAT,2
ICI,OFF
METRIC,TZ,000.000
T7C0.350
T6C0.813
T5C0.900
T4C1.000
T3C1.016
T2C1.400
T1C2.400
%
G90
M71
T1
X24376Y74172
X24376Y69342
X34036Y69342
X29206Y69342
X29206Y74172
X34036Y74172
T2
X13970Y83820
X49530Y57150
X44450Y57150
X49530Y83820
X54610Y83820
X54610Y57150
X44450Y83820
X13970Y57150
X8890Y57150
X3810Y57150
X8890Y83820
X3810Y83820
T3
X26670Y53340
X19050Y83820
X39370Y83820
X22860Y83820
X19050Y24130
X29210Y53340
X31750Y53340
X21590Y24130
X39370Y24130
X36830Y24130
X25400Y24130
X33020Y24130
X35560Y83820
T4
X26670Y62230
X29210Y64770
X31750Y62230
T5
X30480Y24130
X27940Y24130
T6
X13970Y78740
X13970Y72390
X5080Y63500
X7620Y63500
X16510Y72390
X16510Y78740
X54610Y61722
X54610Y65278
T7
X21590Y45720
X19177Y48260
X13993Y36830
X46990Y46990
X46990Y36830
X41910Y52070
X45720Y36830
X44450Y52070
X49530Y46990
X52070Y36830
X52070Y46990
X17940Y51910
X24130Y60960
X24130Y44450
X24130Y40640
X39370Y35560
X36830Y45720
X34290Y58420
X21590Y40640
X36830Y40640
X36830Y33020
X54610Y71120
X6350Y69850
X46525Y71585
X53340Y36830
X28575Y34544
X26035Y83820
X47922Y79629
X48260Y73660
X12700Y63500
X27940Y36830
X39421Y78722
X17780Y31750
X9525Y31369
X56515Y31623
X43815Y31242
X5715Y31115
X48260Y71120
X55880Y24130
X43180Y24130
X30480Y38100
X24130Y48260
X25400Y26670
X49530Y52070
X36830Y53340
X36830Y58420
X12700Y66040
X7597Y26670
X55880Y52070
X44450Y66040
X2540Y31750
X26670Y27940
X8255Y36830
X11430Y31750
X39370Y68580
X44450Y76200
X56899Y53340
X54610Y26670
X10160Y21841
X52070Y67310
X5080Y46990
X5080Y36830
X3810Y52070
X21590Y35560
X8890Y46990
X15240Y36830
M30